{
.appVersion = "1352";
DisplayStrings = (
"aáa/abreve/abreveacute/abrevedotbelow/abrevegrave/abrevehookabove/abrevetilde/acaron â/acircumflexacute/acircumflexdotbelow/acircumflexgrave/acircumflexhookabove/acircumflextilde/adblgrave ä/adotbelow à/ahookabove/ainvertedbreve/amacron/aogonek å/aringacute ã",
"OÓ/Obreve Ô/Ocircumflexacute/Ocircumflexdotbelow/Ocircumflexgrave/Ocircumflexhookabove/Ocircumflextilde/Odblgrave Ö/Odieresismacron/Odotaccentmacron/Odotbelow Ò/Ohookabove/Ohorn/Ohungarumlaut/Oinvertedbreve/Omacron/Oogonek Õ/Otildemacron",
"aá/abreve/abreveacute/abrevedotbelow/abrevegrave/abrevehookabove/abrevetilde/acaron â/acircumflexacute/acircumflexdotbelow/acircumflexgrave/acircumflexhookabove/acircumflextilde/adblgrave ä/adotbelow à/ahookabove/ainvertedbreve/amacron/aogonek å/aringacute ã",
"/dieresiscomb.case/dieresiscomb.case/Odieresismacron/dotaccentcomb.case/Odotaccentmacron/tildecomb.case/Otildemacron",
"nn/Placeholder no/Placeholder oo/space \012/Placeholder a/space/Placeholder e/space/Placeholder i/space/Placeholder o/space/Placeholder u\012ovobcndnefongohijnknlmnopqrnsno/space fTD/space Twombli/space Tgmaiwan/space WcWd/space Twardock/space AWA/space Wrcnder/space/Abrevehookabove/space UVÁVb/cacute peavaY/O.sc YdtnunonvonovowUIonoxonovonTVImaonz/space Yëçollo/space pmi/space mama/space me/space mima",
"\012HH/Placeholder HO/Placeholder OO\012FngAENAHHGHIJNGHRyonandaAOenguoocionjNuOPQROSTHUVWOXYOZHL,YONH\012/Placeholder a/space/Placeholder e/space/Placeholder i/space/Placeholder o/space/Placeholder u/space/space u/space"
);
classes = (
{
automatic = 1;

glyphs = (
{
glyphname = .notdef;
lastChange = "2021-08-12 00:41:17 +0000";
layers = (
{
layerId = "274E8830-0A80-4149-8BE8-CF3C4CCD3F6F";
paths = (
{
closed = 1;
nodes = (
"250 0 LINE",
"2002 0 LINE",
"2002 3200 LINE",
"250 3200 LINE",
"250 0 LINE"
);
},
{
closed = 1;
nodes = (
"500 250 LINE",
"1118 1494 LINE",
"1736 250 LINE",
"500 250 LINE"
);
},
{
closed = 1;
nodes = (
"500 474 LINE",
"500 2737 LINE",
"1062 1605 LINE",
"500 474 LINE"
);
},
{
closed = 1;
nodes = (
"1752 441 LINE",
"1173 1605 LINE",
"1752 2770 LINE",
"1752 441 LINE"
);
},
{
closed = 1;
nodes = (
"1118 1717 LINE",
"504 2950 LINE",
"1731 2950 LINE",
"1118 1717 LINE"
);
}
);
width = 2273;
}
);
note = .notdef;
},
{
glyphname = A;
lastChange = "2021-08-12 00:41:17 +0000";
layers = (
{
anchors = (
{
name = bottom;
position = "{1259, 0}";
},
{
name = ogonek;
position = "{2408, 43}";
},
{
name = top;
position = "{1385, 2681}";
}
);
layerId = "274E8830-0A80-4149-8BE8-CF3C4CCD3F6F";
paths = (
{
closed = 1;
nodes = (
"880 74 LINE",
"659 74 OFFCURVE",
"548 111 OFFCURVE",
"548 186 CURVE SMOOTH",
"548 192 OFFCURVE",
"549 198 OFFCURVE",
"550 204 CURVE SMOOTH",
"568 287 OFFCURVE",
"650 507 OFFCURVE",
"796 864 CURVE SMOOTH",
"805 885 OFFCURVE",
"817 896 OFFCURVE",
"833 896 CURVE SMOOTH",
"1752 896 LINE SMOOTH",
"1773 896 OFFCURVE",
"1785 885 OFFCURVE",
"1789 864 CURVE",
"1922 436 OFFCURVE",
"1989 216 OFFCURVE",
"1989 204 CURVE SMOOTH",
"1996 115 OFFCURVE",
"1898 70 OFFCURVE",
"1697 70 CURVE",
"1665 -10 LINE",
"1682 -10 OFFCURVE",
"1769 -7 OFFCURVE",
"1925 0 CURVE SMOOTH",
"2081 6 OFFCURVE",
"2180 9 OFFCURVE",
"2221 9 CURVE SMOOTH",
"2260 9 OFFCURVE",
"2432 3 OFFCURVE",
"2735 -10 CURVE",
"2777 74 LINE",
"2709 81 OFFCURVE",
"2641 87 OFFCURVE",
"2573 93 CURVE",
"2470 114 OFFCURVE",
"2397 164 OFFCURVE",
"2355 241 CURVE SMOOTH",
"2280 380 OFFCURVE",
"2161 676 OFFCURVE",
"1998 1131 CURVE SMOOTH",
"1845 1558 LINE SMOOTH",
"1738 1857 OFFCURVE",
"1612 2244 OFFCURVE",
"1460 2716 CURVE",
"1385 2664 OFFCURVE",
"1306 2602 OFFCURVE",
"1225 2531 CURVE SMOOTH",
"1206 2515 OFFCURVE",
"1198 2497 OFFCURVE",
"1198 2480 CURVE SMOOTH",
"1198 2473 OFFCURVE",
"1199 2464 OFFCURVE",
"1202 2455 CURVE SMOOTH",
"1209 2429 OFFCURVE",
"1210 2421 OFFCURVE",
"1210 2412 CURVE SMOOTH",
"1210 2347 OFFCURVE",
"1191 2261 OFFCURVE",
"1149 2153 CURVE SMOOTH",
"451 375 LINE SMOOTH",
"405 258 OFFCURVE",
"350 180 OFFCURVE",
"287 141 CURVE SMOOTH",
"240 113 OFFCURVE",
"149 90 OFFCURVE",
"13 72 CURVE",
"-25 -10 LINE",
"90 3 OFFCURVE",
"233 9 OFFCURVE",
"406 9 CURVE SMOOTH",
"589 9 OFFCURVE",
"733 2 OFFCURVE",
"838 -12 CURVE",
"838 -12 LINE"
);
},
{
closed = 1;
nodes = (
"889 1028 LINE",
"874 1028 OFFCURVE",
"866 1034 OFFCURVE",
"866 1045 CURVE SMOOTH",
"866 1049 OFFCURVE",
"867 1055 OFFCURVE",
"870 1061 CURVE SMOOTH",
"1297 2149 LINE SMOOTH",
"1301 2160 OFFCURVE",
"1306 2165 OFFCURVE",
"1310 2165 CURVE SMOOTH",
"1315 2165 OFFCURVE",
"1320 2158 OFFCURVE",
"1325 2144 CURVE SMOOTH",
"1715 1061 LINE SMOOTH",
"1718 1054 OFFCURVE",
"1720 1048 OFFCURVE",
"1720 1044 CURVE SMOOTH",
"1720 1033 OFFCURVE",
"1712 1028 OFFCURVE",
"1696 1028 CURVE SMOOTH",
"889 1028 LINE"
);
}
);
width = 2752;
}
);
leftKerningGroup = A;
note = A;
rightKerningGroup = A;
unicode = 0041;
},
{
glyphname = AE;
lastChange = "2021-08-12 00:41:17 +0000";
layers = (
{
anchors = (
{
name = bottom;
position = "{1805, 0}";
},
{
name = top;
position = "{2217, 2643}";
}
);
layerId = "274E8830-0A80-4149-8BE8-CF3C4CCD3F6F";
paths = (
{
closed = 1;
nodes = (
"3350 -26 OFFCURVE",
"3397 -11 OFFCURVE",
"3426 18 CURVE SMOOTH",
"3451 44 OFFCURVE",
"3469 94 OFFCURVE",
"3480 170 CURVE SMOOTH",
"3501 309 OFFCURVE",
"3535 437 OFFCURVE",
"3586 552 CURVE",
"3531 570 LINE",
"3524 526 OFFCURVE",
"3496 461 OFFCURVE",
"3448 379 CURVE SMOOTH",
"3395 293 OFFCURVE",
"3347 235 OFFCURVE",
"3303 204 CURVE SMOOTH",
"3214 141 OFFCURVE",
"3036 108 OFFCURVE",
"2768 108 CURVE SMOOTH",
"2699 108 OFFCURVE",
"2634 112 OFFCURVE",
"2573 119 CURVE SMOOTH",
"2436 137 OFFCURVE",
"2352 151 OFFCURVE",
"2321 163 CURVE SMOOTH",
"2280 180 OFFCURVE",
"2255 213 OFFCURVE",
"2245 264 CURVE SMOOTH",
"2218 406 OFFCURVE",
"2202 761 OFFCURVE",
"2200 1333 CURVE",
"2242 1335 OFFCURVE",
"2293 1337 OFFCURVE",
"2351 1337 CURVE SMOOTH",
"2457 1337 OFFCURVE",
"2589 1333 OFFCURVE",
"2749 1325 CURVE SMOOTH",
"2914 1318 OFFCURVE",
"2994 1257 OFFCURVE",
"2993 1146 CURVE",
"2983 1100 OFFCURVE",
"2976 1071 OFFCURVE",
"2972 1059 CURVE",
"3052 1078 LINE",
"3049 1132 OFFCURVE",
"3048 1165 OFFCURVE",
"3048 1175 CURVE SMOOTH",
"3048 1204 OFFCURVE",
"3055 1246 OFFCURVE",
"3067 1302 CURVE SMOOTH",
"3081 1361 OFFCURVE",
"3088 1397 OFFCURVE",
"3088 1415 CURVE SMOOTH",
"3088 1445 OFFCURVE",
"3076 1464 OFFCURVE",
"3048 1464 CURVE SMOOTH",
"2200 1455 LINE",
"2200 2000 OFFCURVE",
"2220 2347 OFFCURVE",
"2259 2493 CURVE",
"2324 2502 OFFCURVE",
"2429 2508 OFFCURVE",
"2576 2509 CURVE SMOOTH",
"2637 2509 LINE SMOOTH",
"2749 2509 OFFCURVE",
"2834 2505 OFFCURVE",
"2889 2498 CURVE SMOOTH",
"3047 2479 OFFCURVE",
"3126 2426 OFFCURVE",
"3126 2343 CURVE SMOOTH",
"3126 2313 OFFCURVE",
"3105 2237 OFFCURVE",
"3063 2118 CURVE",
"3141 2100 LINE",
"3184 2335 LINE SMOOTH",
"3187 2351 OFFCURVE",
"3198 2396 OFFCURVE",
"3217 2468 CURVE SMOOTH",
"3232 2526 OFFCURVE",
"3240 2569 OFFCURVE",
"3240 2595 CURVE SMOOTH",
"3240 2634 OFFCURVE",
"3227 2653 OFFCURVE",
"3199 2656 CURVE",
"2800 2653 OFFCURVE",
"2421 2649 OFFCURVE",
"2060 2645 CURVE SMOOTH",
"1836 2648 OFFCURVE",
"1656 2660 OFFCURVE",
"1521 2681 CURVE",
"1484 2602 LINE",
"1504 2604 OFFCURVE",
"1523 2605 OFFCURVE",
"1542 2605 CURVE SMOOTH",
"1678 2605 OFFCURVE",
"1787 2560 OFFCURVE",
"1842 2504 CURVE SMOOTH",
"1852 2493 OFFCURVE",
"1830 2591 OFFCURVE",
"1839 2563 CURVE",
"1792 2496 OFFCURVE",
"1702 2356 OFFCURVE",
"565 413 CURVE SMOOTH",
"501 304 OFFCURVE",
"405 180 OFFCURVE",
"342 141 CURVE SMOOTH",
"295 113 OFFCURVE",
"204 90 OFFCURVE",
"68 72 CURVE",
"30 -10 LINE",
"145 3 OFFCURVE",
"362 9 OFFCURVE",
"535 9 CURVE SMOOTH",
"718 9 OFFCURVE",
"862 2 OFFCURVE",
"967 -12 CURVE",
"1009 74 LINE",
"788 74 OFFCURVE",
"677 111 OFFCURVE",
"677 186 CURVE SMOOTH",
"677 192 OFFCURVE",
"678 198 OFFCURVE",
"679 204 CURVE SMOOTH",
"697 287 OFFCURVE",
"829 553 OFFCURVE",
"1052 910 CURVE SMOOTH",
"1066 931 OFFCURVE",
"1080 942 OFFCURVE",
"1096 942 CURVE SMOOTH",
"1908 942 LINE",
"1904 609 OFFCURVE",
"1893 353 OFFCURVE",
"1872 264 CURVE SMOOTH",
"1854 195 OFFCURVE",
"1802 144 OFFCURVE",
"1712 108 CURVE SMOOTH",
"1643 79 OFFCURVE",
"1569 65 OFFCURVE",
"1487 65 CURVE SMOOTH",
"1462 65 OFFCURVE",
"1441 68 OFFCURVE",
"1425 71 CURVE",
"1391 -10 LINE",
"1725 14 OFFCURVE",
"1923 29 OFFCURVE",
"1988 32 CURVE SMOOTH",
"2054 36 OFFCURVE",
"2130 39 OFFCURVE",
"2213 39 CURVE SMOOTH",
"2290 39 OFFCURVE",
"2627 18 OFFCURVE",
"3227 -25 CURVE SMOOTH",
"3247 -26 OFFCURVE",
"3265 -26 OFFCURVE",
"3281 -26 CURVE",
"3281 -26 LINE"
);
},
{
closed = 1;
nodes = (
"1194 1091 LINE",
"1181 1091 OFFCURVE",
"1175 1095 OFFCURVE",
"1175 1103 CURVE SMOOTH",
"1175 1109 OFFCURVE",
"1177 1116 OFFCURVE",
"1182 1124 CURVE SMOOTH",
"1881 2365 LINE",
"1907 2225 OFFCURVE",
"1904 2013 OFFCURVE",
"1908 1848 CURVE SMOOTH",
"1909 1801 OFFCURVE",
"1909 1616 OFFCURVE",
"1909 1166 CURVE SMOOTH",
"1909 1095 LINE",
"1904 1092 OFFCURVE",
"1898 1091 OFFCURVE",
"1890 1091 CURVE SMOOTH",
"1194 1091 LINE"
);
}
);
width = 3609;
}
);
leftKerningGroup = AE;
note = AE;
rightKerningGroup = E;
unicode = 00C6;
},
{
glyphname = B;
lastChange = "2021-08-12 00:41:17 +0000";
layers = (
{
layerId = "274E8830-0A80-4149-8BE8-CF3C4CCD3F6F";
paths = (
{
closed = 1;
nodes = (
"80 -10 LINE",
"326 7 OFFCURVE",
"505 17 OFFCURVE",
"618 18 CURVE SMOOTH",
"728 19 OFFCURVE",
"813 19 OFFCURVE",
"873 19 CURVE SMOOTH",
"933 19 OFFCURVE",
"969 19 OFFCURVE",
"979 18 CURVE SMOOTH",
"1141 6 OFFCURVE",
"1272 0 OFFCURVE",
"1371 0 CURVE SMOOTH",
"1391 0 OFFCURVE",
"1410 0 OFFCURVE",
"1428 1 CURVE SMOOTH",
"1707 9 OFFCURVE",
"1930 78 OFFCURVE",
"2099 207 CURVE SMOOTH",
"2292 354 OFFCURVE",
"2388 563 OFFCURVE",
"2388 836 CURVE SMOOTH",
"2388 1025 OFFCURVE",
"2348 1171 OFFCURVE",
"2268 1272 CURVE SMOOTH",
"2143 1431 OFFCURVE",
"1926 1519 OFFCURVE",
"1619 1538 CURVE",
"1748 1593 OFFCURVE",
"1850 1672 OFFCURVE",
"1924 1774 CURVE SMOOTH",
"2001 1880 OFFCURVE",
"2039 2001 OFFCURVE",
"2039 2136 CURVE SMOOTH",
"2039 2307 OFFCURVE",
"1977 2436 OFFCURVE",
"1852 2521 CURVE SMOOTH",
"1717 2613 OFFCURVE",
"1516 2659 OFFCURVE",
"1249 2659 CURVE SMOOTH",
"1183 2659 OFFCURVE",
"1113 2656 OFFCURVE",
"1038 2650 CURVE SMOOTH",
"922 2642 OFFCURVE",
"807 2637 OFFCURVE",
"691 2637 CURVE SMOOTH",
"518 2637 OFFCURVE",
"346 2647 OFFCURVE",
"173 2666 CURVE",
"136 2587 LINE",
"187 2598 OFFCURVE",
"233 2604 OFFCURVE",
"276 2604 CURVE SMOOTH",
"357 2604 OFFCURVE",
"423 2583 OFFCURVE",
"474 2540 CURVE",
"531 2475 OFFCURVE",
"560 2005 OFFCURVE",
"560 1130 CURVE SMOOTH",
"560 652 OFFCURVE",
"544 359 OFFCURVE",
"512 251 CURVE SMOOTH",
"475 129 OFFCURVE",
"345 70 OFFCURVE",
"120 73 CURVE",
"80 -10 LINE"
);
},
{
closed = 1;
nodes = (
"1188 84 OFFCURVE",
"1084 88 OFFCURVE",
"1043 97 CURVE SMOOTH",
"944 118 OFFCURVE",
"890 171 OFFCURVE",
"880 256 CURVE SMOOTH",
"859 440 OFFCURVE",
"848 700 OFFCURVE",
"848 1036 CURVE SMOOTH",
"848 1612 LINE SMOOTH",
"848 1969 OFFCURVE",
"857 2235 OFFCURVE",
"876 2411 CURVE SMOOTH",
"882 2468 OFFCURVE",
"924 2505 OFFCURVE",
"1002 2521 CURVE SMOOTH",
"1041 2528 OFFCURVE",
"1124 2532 OFFCURVE",
"1251 2532 CURVE SMOOTH",
"1414 2532 OFFCURVE",
"1545 2484 OFFCURVE",
"1646 2387 CURVE SMOOTH",
"1741 2296 OFFCURVE",
"1788 2186 OFFCURVE",
"1788 2055 CURVE SMOOTH",
"1788 1960 OFFCURVE",
"1761 1870 OFFCURVE",
"1707 1785 CURVE SMOOTH",
"1668 1722 OFFCURVE",
"1603 1667 OFFCURVE",
"1512 1619 CURVE SMOOTH",
"1417 1569 OFFCURVE",
"1323 1544 OFFCURVE",
"1232 1544 CURVE SMOOTH",
"1160 1544 LINE",
"1104 1456 LINE",
"1436 1456 LINE SMOOTH",
"1626 1456 OFFCURVE",
"1779 1402 OFFCURVE",
"1896 1293 CURVE SMOOTH",
"2023 1177 OFFCURVE",
"2084 1014 OFFCURVE",
"2084 807 CURVE SMOOTH",
"2084 587 OFFCURVE",
"2017 411 OFFCURVE",
"1882 280 CURVE SMOOTH",
"1749 149 OFFCURVE",
"1573 84 OFFCURVE",
"1356 84 CURVE",
"1356 84 LINE"
);
}
);
width = 2498;
}
);
leftKerningGroup = H;
leftMetricsKey = H;
note = B;
rightKerningGroup = B;
unicode = 0042;
},
{
glyphname = C;
lastChange = "2021-08-12 00:41:17 +0000";
layers = (
{
anchors = (
{
name = bottom;
position = "{1532, 0}";
},
{
name = top;
position = "{1639, 2686}";
}
);
layerId = "274E8830-0A80-4149-8BE8-CF3C4CCD3F6F";
paths = (
{
closed = 1;
nodes = (
"1933 -46 OFFCURVE",
"2149 -1 OFFCURVE",
"2352 89 CURVE SMOOTH",
"2395 108 OFFCURVE",
"2523 180 OFFCURVE",
"2736 305 CURVE",
"2737 381 LINE",
"2381 221 OFFCURVE",
"2053 136 OFFCURVE",
"1753 126 CURVE SMOOTH",
"1736 125 OFFCURVE",
"1718 125 OFFCURVE",
"1701 125 CURVE SMOOTH",
"1340 125 OFFCURVE",
"1049 256 OFFCURVE",
"828 517 CURVE SMOOTH",
"611 774 OFFCURVE",
"502 1104 OFFCURVE",
"502 1505 CURVE SMOOTH",
"502 1847 OFFCURVE",
"598 2103 OFFCURVE",
"790 2274 CURVE SMOOTH",
"979 2443 OFFCURVE",
"1242 2527 OFFCURVE",
"1579 2527 CURVE SMOOTH",
"1828 2527 OFFCURVE",
"2035 2493 OFFCURVE",
"2200 2425 CURVE SMOOTH",
"2336 2368 OFFCURVE",
"2431 2306 OFFCURVE",
"2484 2237 CURVE SMOOTH",
"2535 2171 OFFCURVE",
"2561 2083 OFFCURVE",
"2561 1972 CURVE SMOOTH",
"2561 1943 OFFCURVE",
"2559 1912 OFFCURVE",
"2556 1877 CURVE",
"2611 1865 LINE",
"2610 1872 OFFCURVE",
"2610 1880 OFFCURVE",
"2610 1891 CURVE SMOOTH",
"2610 1982 OFFCURVE",
"2627 2098 OFFCURVE",
"2661 2237 CURVE SMOOTH",
"2700 2398 OFFCURVE",
"2741 2477 OFFCURVE",
"2784 2476 CURVE",
"2794 2504 LINE",
"2464 2626 OFFCURVE",
"2106 2687 OFFCURVE",
"1721 2687 CURVE SMOOTH",
"1680 2687 OFFCURVE",
"1639 2686 OFFCURVE",
"1598 2685 CURVE SMOOTH",
"1179 2672 OFFCURVE",
"837 2557 OFFCURVE",
"573 2339 CURVE SMOOTH",
"288 2103 OFFCURVE",
"145 1784 OFFCURVE",
"145 1382 CURVE SMOOTH",
"145 1309 OFFCURVE",
"150 1235 OFFCURVE",
"160 1158 CURVE SMOOTH",
"218 707 OFFCURVE",
"424 380 OFFCURVE",
"777 176 CURVE SMOOTH",
"1033 28 OFFCURVE",
"1341 -46 OFFCURVE",
"1702 -46 CURVE",
"1702 -46 LINE"
);
}
);
width = 2897;
}
);
leftKerningGroup = O;
leftMetricsKey = O;
note = C;
rightKerningGroup = C;
unicode = 0043;
},
{
glyphname = D;
lastChange = "2021-08-12 00:41:17 +0000";
layers = (
{
anchors = (
{
name = bottom;
position = "{1550, 0}";
},
{
name = center;
position = "{1550, 1341}";
},
{
name = top;
position = "{1550, 2681}";
}
);
layerId = "274E8830-0A80-4149-8BE8-CF3C4CCD3F6F";
paths = (
{
closed = 1;
nodes = (
"80 -10 LINE",
"360 12 OFFCURVE",
"598 23 OFFCURVE",
"793 23 CURVE SMOOTH",
"914 23 OFFCURVE",
"1019 18 OFFCURVE",
"1108 10 CURVE SMOOTH",
"1209 1 OFFCURVE",
"1304 -4 OFFCURVE",
"1395 -4 CURVE SMOOTH",
"1824 -4 OFFCURVE",
"2181 104 OFFCURVE",
"2468 319 CURVE SMOOTH",
"2585 407 OFFCURVE",
"2685 544 OFFCURVE",
"2766 731 CURVE SMOOTH",
"2853 932 OFFCURVE",
"2897 1141 OFFCURVE",
"2897 1358 CURVE SMOOTH",
"2897 1617 OFFCURVE",
"2834 1850 OFFCURVE",
"2707 2059 CURVE SMOOTH",
"2464 2459 OFFCURVE",
"2025 2659 OFFCURVE",
"1388 2659 CURVE SMOOTH",
"1261 2659 OFFCURVE",
"1101 2650 OFFCURVE",
"907 2631 CURVE SMOOTH",
"853 2626 OFFCURVE",
"793 2623 OFFCURVE",
"726 2623 CURVE SMOOTH",
"585 2623 OFFCURVE",
"415 2635 OFFCURVE",
"216 2657 CURVE",
"180 2570 LINE",
"229 2581 OFFCURVE",
"274 2586 OFFCURVE",
"315 2586 CURVE SMOOTH",
"395 2586 OFFCURVE",
"459 2566 OFFCURVE",
"509 2524 CURVE",
"564 2461 OFFCURVE",
"592 1987 OFFCURVE",
"592 1102 CURVE SMOOTH",
"592 639 OFFCURVE",
"580 358 OFFCURVE",
"555 257 CURVE SMOOTH",
"539 190 OFFCURVE",
"487 139 OFFCURVE",
"400 104 CURVE SMOOTH",
"333 77 OFFCURVE",
"259 64 OFFCURVE",
"179 64 CURVE SMOOTH",
"154 64 OFFCURVE",
"134 65 OFFCURVE",
"118 68 CURVE",
"80 -10 LINE"
);
},
{
closed = 1;
nodes = (
"1145 97 OFFCURVE",
"971 165 OFFCURVE",
"911 302 CURVE",
"894 693 OFFCURVE",
"884 1024 OFFCURVE",
"882 1295 CURVE SMOOTH",
"881 1407 OFFCURVE",
"880 1512 OFFCURVE",
"880 1609 CURVE SMOOTH",
"880 2114 OFFCURVE",
"900 2409 OFFCURVE",
"939 2490 CURVE",
"972 2530 OFFCURVE",
"1092 2550 OFFCURVE",
"1298 2550 CURVE SMOOTH",
"1379 2550 OFFCURVE",
"1464 2544 OFFCURVE",
"1553 2531 CURVE SMOOTH",
"1814 2494 OFFCURVE",
"2036 2375 OFFCURVE",
"2220 2174 CURVE SMOOTH",
"2420 1956 OFFCURVE",
"2523 1690 OFFCURVE",
"2529 1376 CURVE SMOOTH",
"2529 1357 OFFCURVE",
"2530 1339 OFFCURVE",
"2530 1321 CURVE SMOOTH",
"2530 887 OFFCURVE",
"2426 571 OFFCURVE",
"2221 371 CURVE SMOOTH",
"2079 234 OFFCURVE",
"1872 146 OFFCURVE",
"1600 108 CURVE SMOOTH",
"1546 101 OFFCURVE",
"1491 97 OFFCURVE",
"1434 97 CURVE",
"1434 97 LINE"
);
}
);
width = 3042;
}
);
leftKerningGroup = H;
leftMetricsKey = H;
note = D;
rightKerningGroup = O;
rightMetricsKey = O;
unicode = 0044;
},
{
glyphname = Eth;
lastChange = "2021-08-12 00:41:17 +0000";
layers = (
{
layerId = "274E8830-0A80-4149-8BE8-CF3C4CCD3F6F";
paths = (
{
closed = 1;
nodes = (
"52 -10 LINE",
"332 12 OFFCURVE",
"570 23 OFFCURVE",
"765 23 CURVE SMOOTH",
"886 23 OFFCURVE",
"991 18 OFFCURVE",
"1080 10 CURVE SMOOTH",
"1181 1 OFFCURVE",
"1276 -4 OFFCURVE",
"1367 -4 CURVE SMOOTH",
"1796 -4 OFFCURVE",
"2153 104 OFFCURVE",
"2440 319 CURVE SMOOTH",
"2557 407 OFFCURVE",
"2657 544 OFFCURVE",
"2738 731 CURVE SMOOTH",
"2825 932 OFFCURVE",
"2869 1141 OFFCURVE",
"2869 1358 CURVE SMOOTH",
"2869 1617 OFFCURVE",
"2806 1850 OFFCURVE",
"2679 2059 CURVE SMOOTH",
"2436 2459 OFFCURVE",
"1997 2659 OFFCURVE",
"1360 2659 CURVE SMOOTH",
"1233 2659 OFFCURVE",
"1073 2650 OFFCURVE",
"879 2631 CURVE SMOOTH",
"825 2626 OFFCURVE",
"765 2623 OFFCURVE",
"698 2623 CURVE SMOOTH",
"557 2623 OFFCURVE",
"387 2635 OFFCURVE",
"188 2657 CURVE",
"152 2570 LINE",
"201 2581 OFFCURVE",
"246 2586 OFFCURVE",
"287 2586 CURVE SMOOTH",
"367 2586 OFFCURVE",
"431 2566 OFFCURVE",
"481 2524 CURVE",
"536 2461 OFFCURVE",
"564 1987 OFFCURVE",
"564 1102 CURVE SMOOTH",
"564 639 OFFCURVE",
"552 358 OFFCURVE",
"527 257 CURVE SMOOTH",
"511 190 OFFCURVE",
"459 139 OFFCURVE",
"372 104 CURVE SMOOTH",
"305 77 OFFCURVE",
"231 64 OFFCURVE",
"151 64 CURVE SMOOTH",
"126 64 OFFCURVE",
"106 65 OFFCURVE",
"90 68 CURVE",
"52 -10 LINE"
);
},
{
closed = 1;
nodes = (
"1257 1156 OFFCURVE",
"1281 1185 OFFCURVE",
"1310 1246 CURVE SMOOTH",
"1337 1303 OFFCURVE",
"1351 1344 OFFCURVE",
"1351 1369 CURVE SMOOTH",
"1351 1374 OFFCURVE",
"1350 1377 OFFCURVE",
"1347 1378 CURVE",
"1332 1377 OFFCURVE",
"1247 1371 OFFCURVE",
"1092 1358 CURVE SMOOTH",
"967 1348 OFFCURVE",
"862 1342 OFFCURVE",
"779 1342 CURVE SMOOTH",
"565 1342 OFFCURVE",
"407 1357 OFFCURVE",
"306 1385 CURVE SMOOTH",
"288 1390 OFFCURVE",
"264 1361 OFFCURVE",
"235 1300 CURVE SMOOTH",
"208 1242 OFFCURVE",
"194 1201 OFFCURVE",
"194 1176 CURVE SMOOTH",
"194 1171 OFFCURVE",
"195 1169 OFFCURVE",
"198 1168 CURVE",
"416 1192 OFFCURVE",
"600 1204 OFFCURVE",
"749 1204 CURVE SMOOTH",
"973 1204 OFFCURVE",
"1136 1190 OFFCURVE",
"1239 1161 CURVE",
"1239 1161 LINE"
);
},
{
closed = 1;
nodes = (
"1117 97 OFFCURVE",
"943 165 OFFCURVE",
"883 302 CURVE",
"866 693 OFFCURVE",
"856 1024 OFFCURVE",
"854 1295 CURVE SMOOTH",
"853 1407 OFFCURVE",
"852 1512 OFFCURVE",
"852 1609 CURVE SMOOTH",
"852 2114 OFFCURVE",
"872 2409 OFFCURVE",
"911 2490 CURVE",
"944 2530 OFFCURVE",
"1064 2550 OFFCURVE",
"1270 2550 CURVE SMOOTH",
"1351 2550 OFFCURVE",
"1436 2544 OFFCURVE",
"1525 2531 CURVE SMOOTH",
"1786 2494 OFFCURVE",
"2008 2375 OFFCURVE",
"2192 2174 CURVE SMOOTH",
"2392 1956 OFFCURVE",
"2495 1690 OFFCURVE",
"2501 1376 CURVE SMOOTH",
"2501 1357 OFFCURVE",
"2502 1339 OFFCURVE",
"2502 1321 CURVE SMOOTH",
"2502 887 OFFCURVE",
"2398 571 OFFCURVE",
"2193 371 CURVE SMOOTH",
"2051 234 OFFCURVE",
"1844 146 OFFCURVE",
"1572 108 CURVE SMOOTH",
"1518 101 OFFCURVE",
"1463 97 OFFCURVE",
"1406 97 CURVE",
"1406 97 LINE"
);
}
);
width = 3044;
}
);
leftKerningGroup = E;
note = Eth;
rightKerningGroup = E;
unicode = 00D0;
},
{
glyphname = Dcroat;
lastChange = "2021-08-12 00:41:17 +0000";
layers = (
{
layerId = "274E8830-0A80-4149-8BE8-CF3C4CCD3F6F";
paths = (
{
closed = 1;
nodes = (
"52 -10 LINE",
"332 12 OFFCURVE",
"570 23 OFFCURVE",
"765 23 CURVE SMOOTH",
"886 23 OFFCURVE",
"991 18 OFFCURVE",
"1080 10 CURVE SMOOTH",
"1181 1 OFFCURVE",
"1276 -4 OFFCURVE",
"1367 -4 CURVE SMOOTH",
"1796 -4 OFFCURVE",
"2153 104 OFFCURVE",
"2440 319 CURVE SMOOTH",
"2557 407 OFFCURVE",
"2657 544 OFFCURVE",
"2738 731 CURVE SMOOTH",
"2825 932 OFFCURVE",
"2869 1141 OFFCURVE",
"2869 1358 CURVE SMOOTH",
"2869 1617 OFFCURVE",
"2806 1850 OFFCURVE",
"2679 2059 CURVE SMOOTH",
"2436 2459 OFFCURVE",
"1997 2659 OFFCURVE",
"1360 2659 CURVE SMOOTH",
"1233 2659 OFFCURVE",
"1073 2650 OFFCURVE",
"879 2631 CURVE SMOOTH",
"825 2626 OFFCURVE",
"765 2623 OFFCURVE",
"698 2623 CURVE SMOOTH",
"557 2623 OFFCURVE",
"387 2635 OFFCURVE",
"188 2657 CURVE",
"152 2570 LINE",
"201 2581 OFFCURVE",
"246 2586 OFFCURVE",
"287 2586 CURVE SMOOTH",
"367 2586 OFFCURVE",
"431 2566 OFFCURVE",
"481 2524 CURVE",
"536 2461 OFFCURVE",
"564 1987 OFFCURVE",
"564 1102 CURVE SMOOTH",
"564 639 OFFCURVE",
"552 358 OFFCURVE",
"527 257 CURVE SMOOTH",
"511 190 OFFCURVE",
"459 139 OFFCURVE",
"372 104 CURVE SMOOTH",
"305 77 OFFCURVE",
"231 64 OFFCURVE",
"151 64 CURVE SMOOTH",
"126 64 OFFCURVE",
"106 65 OFFCURVE",
"90 68 CURVE",
"52 -10 LINE"
);
},
{
closed = 1;
nodes = (
"1257 1156 OFFCURVE",
"1281 1185 OFFCURVE",
"1310 1246 CURVE SMOOTH",
"1337 1303 OFFCURVE",
"1351 1344 OFFCURVE",
"1351 1369 CURVE SMOOTH",
"1351 1374 OFFCURVE",
"1350 1377 OFFCURVE",
"1347 1378 CURVE",
"1332 1377 OFFCURVE",
"1247 1371 OFFCURVE",
"1092 1358 CURVE SMOOTH",
"967 1348 OFFCURVE",
"862 1342 OFFCURVE",
"779 1342 CURVE SMOOTH",
"565 1342 OFFCURVE",
"407 1357 OFFCURVE",
"306 1385 CURVE SMOOTH",
"288 1390 OFFCURVE",
"264 1361 OFFCURVE",
"235 1300 CURVE SMOOTH",
"208 1242 OFFCURVE",
"194 1201 OFFCURVE",
"194 1176 CURVE SMOOTH",
"194 1171 OFFCURVE",
"195 1169 OFFCURVE",
"198 1168 CURVE",
"416 1192 OFFCURVE",
"600 1204 OFFCURVE",
"749 1204 CURVE SMOOTH",
"973 1204 OFFCURVE",
"1136 1190 OFFCURVE",
"1239 1161 CURVE",
"1239 1161 LINE"
);
},
{
closed = 1;
nodes = (
"1117 97 OFFCURVE",
"943 165 OFFCURVE",
"883 302 CURVE",
"866 693 OFFCURVE",
"856 1024 OFFCURVE",
"854 1295 CURVE SMOOTH",
"853 1407 OFFCURVE",
"852 1512 OFFCURVE",
"852 1609 CURVE SMOOTH",
"852 2114 OFFCURVE",
"872 2409 OFFCURVE",
"911 2490 CURVE",
"944 2530 OFFCURVE",
"1064 2550 OFFCURVE",
"1270 2550 CURVE SMOOTH",
"1351 2550 OFFCURVE",
"1436 2544 OFFCURVE",
"1525 2531 CURVE SMOOTH",
"1786 2494 OFFCURVE",
"2008 2375 OFFCURVE",
"2192 2174 CURVE SMOOTH",
"2392 1956 OFFCURVE",
"2495 1690 OFFCURVE",
"2501 1376 CURVE SMOOTH",
"2501 1357 OFFCURVE",
"2502 1339 OFFCURVE",
"2502 1321 CURVE SMOOTH",
"2502 887 OFFCURVE",
"2398 571 OFFCURVE",
"2193 371 CURVE SMOOTH",
"2051 234 OFFCURVE",
"1844 146 OFFCURVE",
"1572 108 CURVE SMOOTH",
"1518 101 OFFCURVE",
"1463 97 OFFCURVE",
"1406 97 CURVE",
"1406 97 LINE"
);
}
);
width = 3044;
}
);
leftKerningGroup = H;
note = Dcroat;
rightKerningGroup = D;
unicode = 0110;
},
{
glyphname = E;
lastChange = "2021-08-12 00:41:17 +0000";
layers = (
{
anchors = (
{
name = bottom;
position = "{1181, 39}";
},
{
name = ogonek;
position = "{2138, 0}";
},
{
name = top;
position = "{1226, 2681}";
},
{
name = topleft;
position = "{59, 2681}";
}
);
layerId = "274E8830-0A80-4149-8BE8-CF3C4CCD3F6F";
paths = (
{
closed = 1;
nodes = (
"2039 -26 OFFCURVE",
"2086 -11 OFFCURVE",
"2115 18 CURVE SMOOTH",
"2140 44 OFFCURVE",
"2158 94 OFFCURVE",
"2169 170 CURVE SMOOTH",
"2190 309 OFFCURVE",
"2224 437 OFFCURVE",
"2275 552 CURVE",
"2220 570 LINE",
"2213 526 OFFCURVE",
"2185 461 OFFCURVE",
"2137 379 CURVE SMOOTH",
"2084 293 OFFCURVE",
"2036 235 OFFCURVE",
"1992 204 CURVE SMOOTH",
"1903 141 OFFCURVE",
"1725 108 OFFCURVE",
"1457 108 CURVE SMOOTH",
"1388 108 OFFCURVE",
"1323 112 OFFCURVE",
"1262 119 CURVE SMOOTH",
"1125 137 OFFCURVE",
"1041 151 OFFCURVE",
"1010 163 CURVE SMOOTH",
"969 180 OFFCURVE",
"944 213 OFFCURVE",
"934 264 CURVE SMOOTH",
"907 406 OFFCURVE",
"891 761 OFFCURVE",
"889 1333 CURVE",
"931 1335 OFFCURVE",
"982 1337 OFFCURVE",
"1040 1337 CURVE SMOOTH",
"1146 1337 OFFCURVE",
"1278 1333 OFFCURVE",
"1438 1325 CURVE SMOOTH",
"1603 1318 OFFCURVE",
"1683 1257 OFFCURVE",
"1682 1146 CURVE",
"1672 1100 OFFCURVE",
"1665 1071 OFFCURVE",
"1661 1059 CURVE",
"1741 1078 LINE",
"1738 1132 OFFCURVE",
"1737 1165 OFFCURVE",
"1737 1175 CURVE SMOOTH",
"1737 1204 OFFCURVE",
"1744 1246 OFFCURVE",
"1756 1302 CURVE SMOOTH",
"1770 1361 OFFCURVE",
"1777 1397 OFFCURVE",
"1777 1415 CURVE SMOOTH",
"1777 1445 OFFCURVE",
"1765 1464 OFFCURVE",
"1737 1464 CURVE SMOOTH",
"889 1455 LINE",
"889 2000 OFFCURVE",
"909 2347 OFFCURVE",
"948 2493 CURVE",
"1013 2502 OFFCURVE",
"1118 2508 OFFCURVE",
"1265 2509 CURVE SMOOTH",
"1326 2509 LINE SMOOTH",
"1438 2509 OFFCURVE",
"1523 2505 OFFCURVE",
"1578 2498 CURVE SMOOTH",
"1736 2479 OFFCURVE",
"1815 2426 OFFCURVE",
"1815 2343 CURVE SMOOTH",
"1815 2313 OFFCURVE",
"1794 2237 OFFCURVE",
"1752 2118 CURVE",
"1830 2100 LINE",
"1873 2335 LINE SMOOTH",
"1876 2351 OFFCURVE",
"1887 2396 OFFCURVE",
"1906 2468 CURVE SMOOTH",
"1921 2526 OFFCURVE",
"1929 2569 OFFCURVE",
"1929 2595 CURVE SMOOTH",
"1929 2634 OFFCURVE",
"1916 2653 OFFCURVE",
"1888 2656 CURVE",
"1489 2653 OFFCURVE",
"1110 2649 OFFCURVE",
"749 2645 CURVE SMOOTH",
"525 2648 OFFCURVE",
"345 2660 OFFCURVE",
"210 2681 CURVE",
"173 2602 LINE",
"205 2605 OFFCURVE",
"235 2606 OFFCURVE",
"263 2606 CURVE SMOOTH",
"378 2606 OFFCURVE",
"461 2581 OFFCURVE",
"512 2530 CURVE SMOOTH",
"558 2483 OFFCURVE",
"587 2256 OFFCURVE",
"597 1848 CURVE SMOOTH",
"598 1801 OFFCURVE",
"598 1553 OFFCURVE",
"598 1103 CURVE SMOOTH",
"598 649 OFFCURVE",
"586 370 OFFCURVE",
"561 264 CURVE SMOOTH",
"543 195 OFFCURVE",
"491 144 OFFCURVE",
"401 108 CURVE SMOOTH",
"332 79 OFFCURVE",
"258 65 OFFCURVE",
"176 65 CURVE SMOOTH",
"151 65 OFFCURVE",
"130 68 OFFCURVE",
"114 71 CURVE",
"80 -10 LINE",
"414 14 OFFCURVE",
"612 29 OFFCURVE",
"677 32 CURVE SMOOTH",
"743 36 OFFCURVE",
"819 39 OFFCURVE",
"902 39 CURVE SMOOTH",
"979 39 OFFCURVE",
"1316 18 OFFCURVE",
"1916 -25 CURVE SMOOTH",
"1936 -26 OFFCURVE",
"1954 -26 OFFCURVE",
"1970 -26 CURVE",
"1970 -26 LINE"
);
}
);
width = 2365;
}
);
leftKerningGroup = H;
leftMetricsKey = H;
note = E;
rightKerningGroup = E;
unicode = 0045;
},
{
glyphname = F;
lastChange = "2021-08-12 00:41:17 +0000";
layers = (
{
layerId = "274E8830-0A80-4149-8BE8-CF3C4CCD3F6F";
paths = (
{
closed = 1;
nodes = (
"80 -10 LINE",
"413 15 OFFCURVE",
"632 28 OFFCURVE",
"739 29 CURVE SMOOTH",
"799 29 LINE SMOOTH",
"1074 29 OFFCURVE",
"1259 16 OFFCURVE",
"1353 -10 CURVE",
"1398 78 LINE",
"1376 76 OFFCURVE",
"1354 75 OFFCURVE",
"1332 75 CURVE SMOOTH",
"1266 75 OFFCURVE",
"1199 85 OFFCURVE",
"1131 105 CURVE SMOOTH",
"1020 139 OFFCURVE",
"957 192 OFFCURVE",
"944 264 CURVE SMOOTH",
"923 383 OFFCURVE",
"909 528 OFFCURVE",
"904 698 CURVE SMOOTH",
"898 1135 LINE",
"894 1330 LINE",
"936 1332 OFFCURVE",
"987 1334 OFFCURVE",
"1046 1334 CURVE SMOOTH",
"1152 1334 OFFCURVE",
"1284 1330 OFFCURVE",
"1443 1322 CURVE SMOOTH",
"1618 1313 OFFCURVE",
"1706 1261 OFFCURVE",
"1706 1166 CURVE SMOOTH",
"1706 1147 OFFCURVE",
"1699 1121 OFFCURVE",
"1686 1087 CURVE",
"1765 1076 LINE",
"1763 1130 OFFCURVE",
"1762 1162 OFFCURVE",
"1762 1173 CURVE SMOOTH",
"1761 1201 OFFCURVE",
"1768 1243 OFFCURVE",
"1781 1300 CURVE SMOOTH",
"1795 1357 OFFCURVE",
"1802 1394 OFFCURVE",
"1802 1411 CURVE SMOOTH",
"1802 1442 OFFCURVE",
"1789 1459 OFFCURVE",
"1762 1461 CURVE",
"894 1451 LINE",
"895 1996 OFFCURVE",
"915 2342 OFFCURVE",
"954 2487 CURVE",
"1019 2497 OFFCURVE",
"1162 2503 OFFCURVE",
"1383 2506 CURVE SMOOTH",
"1426 2506 OFFCURVE",
"1467 2507 OFFCURVE",
"1504 2507 CURVE SMOOTH",
"1653 2507 OFFCURVE",
"1753 2503 OFFCURVE",
"1805 2497 CURVE SMOOTH",
"1946 2480 OFFCURVE",
"2017 2429 OFFCURVE",
"2017 2345 CURVE SMOOTH",
"2017 2340 OFFCURVE",
"2017 2335 OFFCURVE",
"2016 2330 CURVE SMOOTH",
"2009 2279 OFFCURVE",
"1990 2209 OFFCURVE",
"1957 2118 CURVE",
"2036 2099 LINE",
"2078 2336 LINE SMOOTH",
"2081 2355 OFFCURVE",
"2094 2400 OFFCURVE",
"2116 2472 CURVE SMOOTH",
"2134 2533 OFFCURVE",
"2143 2576 OFFCURVE",
"2143 2601 CURVE SMOOTH",
"2143 2635 OFFCURVE",
"2130 2653 OFFCURVE",
"2104 2654 CURVE SMOOTH",
"1635 2651 OFFCURVE",
"1186 2646 OFFCURVE",
"755 2639 CURVE",
"584 2642 OFFCURVE",
"405 2654 OFFCURVE",
"218 2675 CURVE",
"181 2596 LINE",
"200 2600 OFFCURVE",
"222 2602 OFFCURVE",
"246 2602 CURVE SMOOTH",
"274 2602 OFFCURVE",
"306 2600 OFFCURVE",
"341 2595 CURVE SMOOTH",
"421 2584 OFFCURVE",
"481 2562 OFFCURVE",
"520 2529 CURVE",
"580 2460 OFFCURVE",
"609 2121 OFFCURVE",
"609 1510 CURVE SMOOTH",
"609 1418 LINE",
"606 962 LINE SMOOTH",
"604 618 OFFCURVE",
"588 385 OFFCURVE",
"559 264 CURVE SMOOTH",
"542 195 OFFCURVE",
"491 143 OFFCURVE",
"404 107 CURVE SMOOTH",
"337 79 OFFCURVE",
"263 65 OFFCURVE",
"183 65 CURVE SMOOTH",
"158 65 OFFCURVE",
"138 67 OFFCURVE",
"121 70 CURVE",
"80 -10 LINE"
);
}
);
width = 2233;
}
);
leftKerningGroup = H;
leftMetricsKey = H;
note = F;
rightKerningGroup = F;
unicode = 0046;
},
{
glyphname = G;
lastChange = "2021-08-12 00:41:17 +0000";
layers = (
{
anchors = (
{
name = bottom;
position = "{1583, 35}";
},
{
name = top;
position = "{1715, 2673}";
}
);
layerId = "274E8830-0A80-4149-8BE8-CF3C4CCD3F6F";
paths = (
{
closed = 1;
nodes = (
"1832 -7 OFFCURVE",
"2022 7 OFFCURVE",
"2227 35 CURVE SMOOTH",
"2433 64 OFFCURVE",
"2566 78 OFFCURVE",
"2625 78 CURVE SMOOTH",
"2662 78 OFFCURVE",
"2697 76 OFFCURVE",
"2730 72 CURVE",
"2740 95 LINE",
"2713 174 OFFCURVE",
"2697 326 OFFCURVE",
"2693 551 CURVE SMOOTH",
"2692 602 OFFCURVE",
"2691 650 OFFCURVE",
"2691 695 CURVE SMOOTH",
"2691 830 OFFCURVE",
"2697 938 OFFCURVE",
"2708 1017 CURVE SMOOTH",
"2727 1148 OFFCURVE",
"2806 1212 OFFCURVE",
"2946 1207 CURVE",
"2961 1284 LINE",
"2840 1243 OFFCURVE",
"2679 1220 OFFCURVE",
"2478 1213 CURVE SMOOTH",
"2440 1212 OFFCURVE",
"2403 1211 OFFCURVE",
"2367 1211 CURVE SMOOTH",
"2209 1211 OFFCURVE",
"2070 1223 OFFCURVE",
"1949 1247 CURVE",
"1934 1163 LINE",
"1965 1166 OFFCURVE",
"1996 1167 OFFCURVE",
"2026 1167 CURVE SMOOTH",
"2126 1167 OFFCURVE",
"2219 1153 OFFCURVE",
"2308 1125 CURVE SMOOTH",
"2371 1104 OFFCURVE",
"2403 953 OFFCURVE",
"2403 671 CURVE SMOOTH",
"2403 454 OFFCURVE",
"2392 289 OFFCURVE",
"2369 176 CURVE",
"2194 139 OFFCURVE",
"2024 121 OFFCURVE",
"1859 121 CURVE SMOOTH",
"1592 121 OFFCURVE",
"1360 169 OFFCURVE",
"1163 264 CURVE SMOOTH",
"937 374 OFFCURVE",
"764 543 OFFCURVE",
"645 772 CURVE SMOOTH",
"540 974 OFFCURVE",
"487 1198 OFFCURVE",
"487 1444 CURVE SMOOTH",
"487 1815 OFFCURVE",
"586 2088 OFFCURVE",
"783 2264 CURVE SMOOTH",
"971 2431 OFFCURVE",
"1232 2515 OFFCURVE",
"1565 2515 CURVE SMOOTH",
"1812 2515 OFFCURVE",
"2017 2481 OFFCURVE",
"2180 2413 CURVE SMOOTH",
"2314 2358 OFFCURVE",
"2408 2296 OFFCURVE",
"2461 2228 CURVE SMOOTH",
"2512 2163 OFFCURVE",
"2537 2075 OFFCURVE",
"2537 1965 CURVE SMOOTH",
"2537 1936 OFFCURVE",
"2535 1905 OFFCURVE",
"2532 1871 CURVE",
"2586 1859 LINE",
"2585 1866 OFFCURVE",
"2585 1874 OFFCURVE",
"2585 1885 CURVE SMOOTH",
"2585 1975 OFFCURVE",
"2602 2089 OFFCURVE",
"2636 2228 CURVE SMOOTH",
"2675 2387 OFFCURVE",
"2715 2465 OFFCURVE",
"2758 2464 CURVE",
"2768 2492 LINE",
"2441 2613 OFFCURVE",
"2086 2673 OFFCURVE",
"1705 2673 CURVE SMOOTH",
"1665 2673 OFFCURVE",
"1624 2672 OFFCURVE",
"1583 2671 CURVE SMOOTH",
"1168 2658 OFFCURVE",
"830 2544 OFFCURVE",
"569 2328 CURVE SMOOTH",
"286 2095 OFFCURVE",
"145 1779 OFFCURVE",
"145 1381 CURVE SMOOTH",
"145 1309 OFFCURVE",
"150 1235 OFFCURVE",
"160 1159 CURVE SMOOTH",
"217 714 OFFCURVE",
"415 394 OFFCURVE",
"756 200 CURVE SMOOTH",
"998 62 OFFCURVE",
"1299 -7 OFFCURVE",
"1658 -7 CURVE",
"1658 -7 LINE"
);
}
);
width = 3086;
}
);
leftKerningGroup = O;
leftMetricsKey = O;
note = G;
rightKerningGroup = G;
unicode = 0047;
},
{
glyphname = H;
lastChange = "2021-08-12 00:41:17 +0000";
layers = (
{
anchors = (
{
name = bottom;
position = "{1716, 0}";
},
{
name = center;
position = "{1716, 1341}";
},
{
name = top;
position = "{1716, 2681}";
},
{
name = topleft;
position = "{-11, 2681}";
}
);
layerId = "274E8830-0A80-4149-8BE8-CF3C4CCD3F6F";
paths = (
{
closed = 1;
nodes = (
"80 -10 LINE",
"466 17 OFFCURVE",
"683 32 OFFCURVE",
"732 34 CURVE",
"1073 24 OFFCURVE",
"1278 9 OFFCURVE",
"1347 -10 CURVE",
"1392 78 LINE",
"1366 75 OFFCURVE",
"1339 74 OFFCURVE",
"1313 74 CURVE SMOOTH",
"1250 74 OFFCURVE",
"1189 82 OFFCURVE",
"1128 99 CURVE SMOOTH",
"1018 130 OFFCURVE",
"957 181 OFFCURVE",
"944 254 CURVE SMOOTH",
"923 374 OFFCURVE",
"908 660 OFFCURVE",
"899 1111 CURVE SMOOTH",
"896 1300 LINE",
"1203 1313 OFFCURVE",
"1405 1320 OFFCURVE",
"1502 1320 CURVE SMOOTH",
"2631 1320 LINE",
"2631 1305 OFFCURVE",
"2631 1264 OFFCURVE",
"2630 1196 CURVE SMOOTH",
"2630 1114 LINE SMOOTH",
"2630 673 OFFCURVE",
"2614 387 OFFCURVE",
"2582 254 CURVE SMOOTH",
"2551 128 OFFCURVE",
"2429 65 OFFCURVE",
"2214 65 CURVE SMOOTH",
"2185 65 OFFCURVE",
"2161 67 OFFCURVE",
"2142 70 CURVE",
"2103 -10 LINE",
"2488 17 OFFCURVE",
"2706 32 OFFCURVE",
"2755 34 CURVE",
"3096 24 OFFCURVE",
"3301 9 OFFCURVE",
"3370 -10 CURVE",
"3415 78 LINE",
"3389 75 OFFCURVE",
"3362 74 OFFCURVE",
"3336 74 CURVE SMOOTH",
"3273 74 OFFCURVE",
"3212 82 OFFCURVE",
"3151 99 CURVE SMOOTH",
"3041 130 OFFCURVE",
"2980 181 OFFCURVE",
"2967 254 CURVE SMOOTH",
"2946 374 OFFCURVE",
"2931 660 OFFCURVE",
"2922 1111 CURVE SMOOTH",
"2920 1219 OFFCURVE",
"2919 1323 OFFCURVE",
"2919 1425 CURVE SMOOTH",
"2919 1639 OFFCURVE",
"2924 1840 OFFCURVE",
"2933 2030 CURVE SMOOTH",
"2946 2304 OFFCURVE",
"2965 2465 OFFCURVE",
"2988 2514 CURVE",
"3043 2580 OFFCURVE",
"3122 2612 OFFCURVE",
"3227 2612 CURVE SMOOTH",
"3249 2612 OFFCURVE",
"3271 2611 OFFCURVE",
"3295 2608 CURVE",
"3351 2681 LINE",
"3180 2662 OFFCURVE",
"2989 2648 OFFCURVE",
"2780 2639 CURVE",
"2509 2653 OFFCURVE",
"2330 2665 OFFCURVE",
"2243 2675 CURVE",
"2206 2596 LINE",
"2256 2607 OFFCURVE",
"2302 2613 OFFCURVE",
"2344 2613 CURVE SMOOTH",
"2427 2613 OFFCURVE",
"2493 2591 OFFCURVE",
"2544 2549 CURVE",
"2602 2483 OFFCURVE",
"2631 2121 OFFCURVE",
"2631 1464 CURVE",
"2564 1463 OFFCURVE",
"2379 1456 OFFCURVE",
"2076 1444 CURVE SMOOTH",
"1806 1434 OFFCURVE",
"1615 1429 OFFCURVE",
"1502 1429 CURVE SMOOTH",
"1438 1429 OFFCURVE",
"1334 1435 OFFCURVE",
"1189 1446 CURVE SMOOTH",
"1021 1459 OFFCURVE",
"923 1466 OFFCURVE",
"896 1467 CURVE",
"897 2072 OFFCURVE",
"920 2421 OFFCURVE",
"965 2514 CURVE",
"1020 2580 OFFCURVE",
"1099 2612 OFFCURVE",
"1204 2612 CURVE SMOOTH",
"1226 2612 OFFCURVE",
"1248 2611 OFFCURVE",
"1272 2608 CURVE",
"1328 2681 LINE",
"1157 2662 OFFCURVE",
"966 2648 OFFCURVE",
"757 2639 CURVE",
"486 2653 OFFCURVE",
"307 2665 OFFCURVE",
"220 2675 CURVE",
"183 2596 LINE",
"233 2607 OFFCURVE",
"280 2613 OFFCURVE",
"322 2613 CURVE SMOOTH",
"404 2613 OFFCURVE",
"471 2591 OFFCURVE",
"522 2549 CURVE",
"579 2484 OFFCURVE",
"607 2005 OFFCURVE",
"607 1114 CURVE SMOOTH",
"607 663 OFFCURVE",
"593 380 OFFCURVE",
"565 264 CURVE SMOOTH",
"548 195 OFFCURVE",
"495 143 OFFCURVE",
"405 107 CURVE SMOOTH",
"336 79 OFFCURVE",
"260 65 OFFCURVE",
"178 65 CURVE SMOOTH",
"153 65 OFFCURVE",
"132 67 OFFCURVE",
"115 70 CURVE",
"80 -10 LINE"
);
}
);
width = 3495;
}
);
leftKerningGroup = H;
note = H;
rightKerningGroup = H;
unicode = 0048;
},
{
glyphname = I;
lastChange = "2021-08-12 00:41:17 +0000";
layers = (
{
anchors = (
{
name = bottom;
position = "{737, 0}";
},
{
name = ogonek;
position = "{1418, 10}";
},
{
name = top;
position = "{737, 2681}";
},
{
name = topleft;
position = "{-94, 2681}";
}
);
layerId = "274E8830-0A80-4149-8BE8-CF3C4CCD3F6F";
paths = (
{
closed = 1;
nodes = (
"80 -10 LINE",
"465 17 OFFCURVE",
"683 32 OFFCURVE",
"732 34 CURVE",
"1072 24 OFFCURVE",
"1277 9 OFFCURVE",
"1347 -10 CURVE",
"1391 78 LINE",
"1365 75 OFFCURVE",
"1339 74 OFFCURVE",
"1313 74 CURVE SMOOTH",
"1250 74 OFFCURVE",
"1189 82 OFFCURVE",
"1128 99 CURVE SMOOTH",
"1018 130 OFFCURVE",
"957 181 OFFCURVE",
"944 254 CURVE SMOOTH",
"923 373 OFFCURVE",
"908 665 OFFCURVE",
"899 1131 CURVE SMOOTH",
"896 1292 OFFCURVE",
"894 1439 OFFCURVE",
"894 1572 CURVE SMOOTH",
"894 2096 OFFCURVE",
"918 2407 OFFCURVE",
"965 2504 CURVE",
"1020 2570 OFFCURVE",
"1099 2602 OFFCURVE",
"1204 2602 CURVE SMOOTH",
"1225 2602 OFFCURVE",
"1248 2601 OFFCURVE",
"1271 2598 CURVE",
"1328 2681 LINE",
"1157 2662 OFFCURVE",
"966 2648 OFFCURVE",
"757 2639 CURVE",
"486 2653 OFFCURVE",
"307 2665 OFFCURVE",
"220 2675 CURVE",
"183 2586 LINE",
"233 2597 OFFCURVE",
"279 2603 OFFCURVE",
"321 2603 CURVE SMOOTH",
"404 2603 OFFCURVE",
"470 2581 OFFCURVE",
"521 2539 CURVE",
"578 2474 OFFCURVE",
"607 2006 OFFCURVE",
"607 1135 CURVE SMOOTH",
"607 680 OFFCURVE",
"591 387 OFFCURVE",
"559 254 CURVE SMOOTH",
"528 128 OFFCURVE",
"406 65 OFFCURVE",
"191 65 CURVE SMOOTH",
"162 65 OFFCURVE",
"138 67 OFFCURVE",
"118 70 CURVE",
"80 -10 LINE"
);
}
);
width = 1471;
}
);
leftKerningGroup = H;
leftMetricsKey = H;
note = I;
rightKerningGroup = H;
rightMetricsKey = H;
unicode = 0049;
},
{
glyphname = J;
lastChange = "2021-08-12 00:41:17 +0000";
layers = (
{
anchors = (
{
name = bottom;
position = "{658, 0}";
},
{
name = top;
position = "{1069, 2639}";
}
);
layerId = "274E8830-0A80-4149-8BE8-CF3C4CCD3F6F";
paths = (
{
closed = 1;
nodes = (
"861 -65 OFFCURVE",
"1006 -9 OFFCURVE",
"1094 103 CURVE SMOOTH",
"1179 212 OFFCURVE",
"1226 395 OFFCURVE",
"1236 654 CURVE SMOOTH",
"1237 675 OFFCURVE",
"1237 700 OFFCURVE",
"1237 729 CURVE SMOOTH",
"1237 796 OFFCURVE",
"1233 964 OFFCURVE",
"1224 1235 CURVE SMOOTH",
"1215 1506 OFFCURVE",
"1211 1716 OFFCURVE",
"1211 1865 CURVE SMOOTH",
"1211 2226 OFFCURVE",
"1233 2443 OFFCURVE",
"1276 2514 CURVE",
"1332 2580 OFFCURVE",
"1411 2612 OFFCURVE",
"1516 2612 CURVE SMOOTH",
"1537 2612 OFFCURVE",
"1560 2611 OFFCURVE",
"1583 2608 CURVE",
"1640 2681 LINE",
"1469 2662 OFFCURVE",
"1278 2648 OFFCURVE",
"1069 2639 CURVE",
"798 2653 OFFCURVE",
"619 2665 OFFCURVE",
"532 2675 CURVE",
"494 2596 LINE",
"544 2607 OFFCURVE",
"591 2613 OFFCURVE",
"633 2613 CURVE SMOOTH",
"715 2613 OFFCURVE",
"782 2591 OFFCURVE",
"833 2549 CURVE",
"890 2484 OFFCURVE",
"919 2012 OFFCURVE",
"919 1135 CURVE SMOOTH",
"919 852 OFFCURVE",
"917 669 OFFCURVE",
"914 588 CURVE SMOOTH",
"899 222 OFFCURVE",
"767 40 OFFCURVE",
"520 40 CURVE SMOOTH",
"377 40 OFFCURVE",
"289 115 OFFCURVE",
"256 266 CURVE SMOOTH",
"243 324 OFFCURVE",
"237 384 OFFCURVE",
"237 447 CURVE SMOOTH",
"237 495 OFFCURVE",
"241 545 OFFCURVE",
"248 597 CURVE",
"194 613 LINE",
"163 246 OFFCURVE",
"122 64 OFFCURVE",
"71 66 CURVE",
"65 49 LINE",
"202 -2 OFFCURVE",
"321 -34 OFFCURVE",
"422 -47 CURVE SMOOTH",
"510 -59 OFFCURVE",
"589 -65 OFFCURVE",
"658 -65 CURVE",
"658 -65 LINE"
);
}
);
width = 1705;
}
);
leftKerningGroup = J;
note = J;
rightKerningGroup = J;
rightMetricsKey = "=H-15";
unicode = 004A;
},
{
glyphname = K;
lastChange = "2021-08-12 00:41:17 +0000";
layers = (
{
anchors = (
{
name = bottom;
position = "{1749, 0}";
},
{
name = top;
position = "{1478, 2681}";
}
);
layerId = "274E8830-0A80-4149-8BE8-CF3C4CCD3F6F";
paths = (
{
closed = 1;
nodes = (
"2712 -18 OFFCURVE",
"2858 0 OFFCURVE",
"3038 35 CURVE",
"3074 115 LINE",
"3055 113 OFFCURVE",
"3036 112 OFFCURVE",
"3017 112 CURVE SMOOTH",
"2858 112 OFFCURVE",
"2679 179 OFFCURVE",
"2480 314 CURVE SMOOTH",
"2242 475 OFFCURVE",
"2025 670 OFFCURVE",
"1829 897 CURVE SMOOTH",
"1508 1268 OFFCURVE",
"1336 1465 OFFCURVE",
"1312 1487 CURVE",
"1884 2072 OFFCURVE",
"2266 2416 OFFCURVE",
"2458 2521 CURVE SMOOTH",
"2554 2574 OFFCURVE",
"2641 2600 OFFCURVE",
"2720 2600 CURVE",
"2758 2657 LINE",
"2544 2638 OFFCURVE",
"2356 2624 OFFCURVE",
"2195 2616 CURVE",
"1910 2634 OFFCURVE",
"1745 2647 OFFCURVE",
"1700 2656 CURVE",
"1647 2586 LINE",
"1678 2591 OFFCURVE",
"1712 2594 OFFCURVE",
"1749 2594 CURVE SMOOTH",
"1908 2594 OFFCURVE",
"1992 2545 OFFCURVE",
"2000 2448 CURVE SMOOTH",
"2008 2353 OFFCURVE",
"1692 2002 OFFCURVE",
"1053 1393 CURVE",
"1218 1196 OFFCURVE",
"1362 1022 OFFCURVE",
"1485 869 CURVE SMOOTH",
"1951 291 LINE SMOOTH",
"2117 85 OFFCURVE",
"2334 -18 OFFCURVE",
"2599 -18 CURVE",
"2599 -18 LINE"
);
},
{
closed = 1;
nodes = (
"80 -10 LINE",
"465 17 OFFCURVE",
"683 32 OFFCURVE",
"732 34 CURVE",
"1072 24 OFFCURVE",
"1277 9 OFFCURVE",
"1347 -10 CURVE",
"1391 78 LINE",
"1365 75 OFFCURVE",
"1339 74 OFFCURVE",
"1313 74 CURVE SMOOTH",
"1250 74 OFFCURVE",
"1189 82 OFFCURVE",
"1128 99 CURVE SMOOTH",
"1018 130 OFFCURVE",
"957 181 OFFCURVE",
"944 254 CURVE SMOOTH",
"917 405 OFFCURVE",
"901 671 OFFCURVE",
"899 1050 CURVE SMOOTH",
"896 1513 LINE",
"896 1635 LINE SMOOTH",
"896 2126 OFFCURVE",
"919 2419 OFFCURVE",
"965 2514 CURVE",
"1020 2580 OFFCURVE",
"1099 2612 OFFCURVE",
"1204 2612 CURVE SMOOTH",
"1225 2612 OFFCURVE",
"1248 2611 OFFCURVE",
"1271 2608 CURVE",
"1328 2681 LINE",
"1157 2662 OFFCURVE",
"966 2648 OFFCURVE",
"757 2639 CURVE",
"486 2653 OFFCURVE",
"307 2665 OFFCURVE",
"220 2675 CURVE",
"183 2596 LINE",
"233 2607 OFFCURVE",
"279 2613 OFFCURVE",
"321 2613 CURVE SMOOTH",
"404 2613 OFFCURVE",
"470 2591 OFFCURVE",
"521 2549 CURVE",
"578 2484 OFFCURVE",
"605 2159 OFFCURVE",
"606 1573 CURVE SMOOTH",
"607 1135 LINE",
"607 1098 LINE SMOOTH",
"607 668 OFFCURVE",
"590 390 OFFCURVE",
"560 264 CURVE SMOOTH",
"543 195 OFFCURVE",
"491 143 OFFCURVE",
"402 107 CURVE SMOOTH",
"333 79 OFFCURVE",
"257 65 OFFCURVE",
"176 65 CURVE SMOOTH",
"151 65 OFFCURVE",
"130 67 OFFCURVE",
"113 70 CURVE",
"80 -10 LINE"
);
}
);
width = 3009;
}
);
leftKerningGroup = H;
leftMetricsKey = H;
note = K;
rightKerningGroup = K;
unicode = 004B;
},
{
glyphname = L;
lastChange = "2021-08-12 00:41:17 +0000";
layers = (
{
anchors = (
{
name = bottom;
position = "{1437, 0}";
},
{
name = center;
position = "{1188, 1341}";
},
{
name = top;
position = "{747, 2639}";
},
{
name = topright;
position = "{1522, 2747}";
}
);
layerId = "274E8830-0A80-4149-8BE8-CF3C4CCD3F6F";
paths = (
{
closed = 1;
nodes = (
"2046 -28 OFFCURVE",
"2089 -16 OFFCURVE",
"2112 8 CURVE SMOOTH",
"2136 32 OFFCURVE",
"2153 79 OFFCURVE",
"2164 148 CURVE SMOOTH",
"2187 306 OFFCURVE",
"2223 440 OFFCURVE",
"2271 549 CURVE",
"2216 568 LINE",
"2209 523 OFFCURVE",
"2181 459 OFFCURVE",
"2130 377 CURVE SMOOTH",
"2078 290 OFFCURVE",
"2030 231 OFFCURVE",
"1985 200 CURVE SMOOTH",
"1899 139 OFFCURVE",
"1725 109 OFFCURVE",
"1463 109 CURVE SMOOTH",
"1392 109 OFFCURVE",
"1325 113 OFFCURVE",
"1261 120 CURVE SMOOTH",
"1136 135 OFFCURVE",
"1053 154 OFFCURVE",
"1011 178 CURVE SMOOTH",
"972 200 OFFCURVE",
"947 239 OFFCURVE",
"936 294 CURVE SMOOTH",
"915 409 OFFCURVE",
"902 548 OFFCURVE",
"896 711 CURVE SMOOTH",
"893 851 OFFCURVE",
"891 991 OFFCURVE",
"889 1131 CURVE SMOOTH",
"886 1293 OFFCURVE",
"884 1441 OFFCURVE",
"884 1576 CURVE SMOOTH",
"884 2104 OFFCURVE",
"908 2417 OFFCURVE",
"955 2514 CURVE",
"1010 2580 OFFCURVE",
"1089 2612 OFFCURVE",
"1194 2612 CURVE SMOOTH",
"1216 2612 OFFCURVE",
"1238 2611 OFFCURVE",
"1262 2608 CURVE",
"1318 2681 LINE",
"1147 2665 OFFCURVE",
"956 2649 OFFCURVE",
"747 2639 CURVE",
"476 2653 OFFCURVE",
"297 2665 OFFCURVE",
"210 2675 CURVE",
"173 2596 LINE",
"223 2607 OFFCURVE",
"269 2613 OFFCURVE",
"311 2613 CURVE SMOOTH",
"394 2613 OFFCURVE",
"460 2591 OFFCURVE",
"511 2549 CURVE",
"568 2484 OFFCURVE",
"597 2012 OFFCURVE",
"597 1135 CURVE SMOOTH",
"597 659 OFFCURVE",
"584 369 OFFCURVE",
"559 264 CURVE SMOOTH",
"542 195 OFFCURVE",
"490 143 OFFCURVE",
"402 107 CURVE SMOOTH",
"333 79 OFFCURVE",
"258 65 OFFCURVE",
"177 65 CURVE SMOOTH",
"152 65 OFFCURVE",
"132 67 OFFCURVE",
"115 70 CURVE",
"80 -10 LINE",
"413 14 OFFCURVE",
"611 28 OFFCURVE",
"675 31 CURVE SMOOTH",
"722 34 OFFCURVE",
"780 36 OFFCURVE",
"847 36 CURVE SMOOTH",
"977 36 OFFCURVE",
"1332 16 OFFCURVE",
"1912 -25 CURVE SMOOTH",
"1940 -27 OFFCURVE",
"1964 -28 OFFCURVE",
"1983 -28 CURVE",
"1983 -28 LINE"
);
}
);
width = 2316;
}
);
leftKerningGroup = H;
leftMetricsKey = H;
note = L;
rightKerningGroup = L;
unicode = 004C;
},
{
glyphname = Lslash;
lastChange = "2021-08-12 00:41:17 +0000";
layers = (
{
layerId = "274E8830-0A80-4149-8BE8-CF3C4CCD3F6F";
paths = (
{
closed = 1;
nodes = (
"32 -30 LINE",
"355 -6 OFFCURVE",
"548 8 OFFCURVE",
"609 11 CURVE SMOOTH",
"692 17 OFFCURVE",
"788 20 OFFCURVE",
"896 20 CURVE SMOOTH",
"1097 20 OFFCURVE",
"1405 5 OFFCURVE",
"1821 -24 CURVE SMOOTH",
"1848 -26 OFFCURVE",
"1871 -27 OFFCURVE",
"1890 -27 CURVE SMOOTH",
"1951 -27 OFFCURVE",
"1992 -16 OFFCURVE",
"2015 7 CURVE SMOOTH",
"2038 30 OFFCURVE",
"2055 76 OFFCURVE",
"2065 144 CURVE SMOOTH",
"2085 279 OFFCURVE",
"2120 403 OFFCURVE",
"2169 515 CURVE",
"2115 532 LINE",
"2109 488 OFFCURVE",
"2082 426 OFFCURVE",
"2034 347 CURVE SMOOTH",
"1983 264 OFFCURVE",
"1937 208 OFFCURVE",
"1894 177 CURVE SMOOTH",
"1808 116 OFFCURVE",
"1635 85 OFFCURVE",
"1376 85 CURVE SMOOTH",
"1309 85 OFFCURVE",
"1246 89 OFFCURVE",
"1186 96 CURVE SMOOTH",
"1059 111 OFFCURVE",
"978 127 OFFCURVE",
"943 142 CURVE SMOOTH",
"904 160 OFFCURVE",
"880 195 OFFCURVE",
"871 246 CURVE SMOOTH",
"850 357 OFFCURVE",
"836 641 OFFCURVE",
"827 1098 CURVE SMOOTH",
"824 1256 OFFCURVE",
"822 1401 OFFCURVE",
"822 1532 CURVE SMOOTH",
"822 2044 OFFCURVE",
"846 2346 OFFCURVE",
"891 2440 CURVE",
"945 2504 OFFCURVE",
"1022 2536 OFFCURVE",
"1123 2536 CURVE SMOOTH",
"1144 2536 OFFCURVE",
"1166 2535 OFFCURVE",
"1189 2532 CURVE",
"1244 2603 LINE",
"1077 2584 OFFCURVE",
"892 2571 OFFCURVE",
"689 2562 CURVE",
"426 2575 OFFCURVE",
"253 2587 OFFCURVE",
"168 2597 CURVE",
"132 2520 LINE",
"181 2531 OFFCURVE",
"226 2536 OFFCURVE",
"267 2536 CURVE SMOOTH",
"347 2536 OFFCURVE",
"411 2516 OFFCURVE",
"461 2474 CURVE",
"516 2411 OFFCURVE",
"544 1954 OFFCURVE",
"544 1102 CURVE SMOOTH",
"544 647 OFFCURVE",
"528 356 OFFCURVE",
"497 227 CURVE SMOOTH",
"481 160 OFFCURVE",
"429 110 OFFCURVE",
"342 75 CURVE SMOOTH",
"275 48 OFFCURVE",
"201 34 OFFCURVE",
"121 34 CURVE SMOOTH",
"96 34 OFFCURVE",
"76 36 OFFCURVE",
"60 39 CURVE",
"32 -30 LINE"
);
}
);
width = 2234;
}
);
leftKerningGroup = H;
note = Lslash;
rightKerningGroup = L;
unicode = 0141;
},
{
glyphname = M;
lastChange = "2021-08-12 00:41:17 +0000";
layers = (
{
layerId = "274E8830-0A80-4149-8BE8-CF3C4CCD3F6F";
paths = (
{
closed = 1;
nodes = (
"1809 -108 LINE",
"1848 80 OFFCURVE",
"1967 428 OFFCURVE",
"2167 936 CURVE SMOOTH",
"2384 1487 OFFCURVE",
"2573 1901 OFFCURVE",
"2734 2178 CURVE",
"2787 1697 OFFCURVE",
"2821 1339 OFFCURVE",
"2835 1102 CURVE SMOOTH",
"2859 789 OFFCURVE",
"2870 559 OFFCURVE",
"2870 413 CURVE SMOOTH",
"2870 341 OFFCURVE",
"2868 289 OFFCURVE",
"2862 257 CURVE SMOOTH",
"2851 190 OFFCURVE",
"2801 139 OFFCURVE",
"2713 104 CURVE SMOOTH",
"2645 77 OFFCURVE",
"2570 64 OFFCURVE",
"2488 64 CURVE SMOOTH",
"2463 64 OFFCURVE",
"2442 65 OFFCURVE",
"2426 68 CURVE",
"2388 -10 LINE",
"2763 17 OFFCURVE",
"2974 32 OFFCURVE",
"3021 33 CURVE",
"3352 23 OFFCURVE",
"3551 9 OFFCURVE",
"3619 -10 CURVE",
"3663 79 LINE",
"3637 76 OFFCURVE",
"3611 75 OFFCURVE",
"3586 75 CURVE SMOOTH",
"3525 75 OFFCURVE",
"3466 83 OFFCURVE",
"3408 99 CURVE SMOOTH",
"3304 128 OFFCURVE",
"3243 177 OFFCURVE",
"3226 247 CURVE SMOOTH",
"3197 362 OFFCURVE",
"3161 645 OFFCURVE",
"3119 1098 CURVE SMOOTH",
"3081 1505 OFFCURVE",
"3062 1852 OFFCURVE",
"3062 2139 CURVE SMOOTH",
"3062 2305 OFFCURVE",
"3069 2405 OFFCURVE",
"3084 2440 CURVE",
"3133 2504 OFFCURVE",
"3208 2536 OFFCURVE",
"3309 2536 CURVE SMOOTH",
"3330 2536 OFFCURVE",
"3352 2535 OFFCURVE",
"3375 2532 CURVE",
"3425 2603 LINE",
"3188 2576 OFFCURVE",
"3008 2561 OFFCURVE",
"2884 2556 CURVE",
"2790 2559 LINE SMOOTH",
"2754 2561 OFFCURVE",
"2723 2562 OFFCURVE",
"2698 2562 CURVE SMOOTH",
"2683 2562 OFFCURVE",
"2671 2561 OFFCURVE",
"2660 2561 CURVE SMOOTH",
"2617 2559 OFFCURVE",
"2595 2553 OFFCURVE",
"2595 2543 CURVE SMOOTH",
"2595 2440 OFFCURVE",
"2482 2089 OFFCURVE",
"2257 1488 CURVE SMOOTH",
"2052 940 OFFCURVE",
"1906 579 OFFCURVE",
"1821 404 CURVE SMOOTH",
"1809 379 OFFCURVE",
"1798 367 OFFCURVE",
"1789 367 CURVE SMOOTH",
"1780 367 OFFCURVE",
"1769 382 OFFCURVE",
"1756 412 CURVE SMOOTH",
"1651 685 OFFCURVE",
"1573 891 OFFCURVE",
"1524 1030 CURVE SMOOTH",
"1351 1487 OFFCURVE",
"1221 1878 OFFCURVE",
"1136 2203 CURVE SMOOTH",
"1090 2378 OFFCURVE",
"1067 2497 OFFCURVE",
"1067 2560 CURVE",
"939 2572 OFFCURVE",
"835 2578 OFFCURVE",
"755 2578 CURVE SMOOTH",
"735 2578 OFFCURVE",
"716 2578 OFFCURVE",
"699 2577 CURVE",
"540 2584 OFFCURVE",
"438 2591 OFFCURVE",
"393 2596 CURVE",
"357 2519 LINE",
"380 2524 OFFCURVE",
"410 2526 OFFCURVE",
"445 2526 CURVE SMOOTH",
"578 2526 OFFCURVE",
"653 2476 OFFCURVE",
"670 2375 CURVE",
"583 1349 LINE SMOOTH",
"552 933 OFFCURVE",
"495 557 OFFCURVE",
"413 220 CURVE SMOOTH",
"388 116 OFFCURVE",
"294 64 OFFCURVE",
"129 64 CURVE",
"90 -15 LINE",
"165 2 OFFCURVE",
"321 19 OFFCURVE",
"558 34 CURVE",
"839 17 OFFCURVE",
"1003 4 OFFCURVE",
"1049 -5 CURVE",
"1091 81 LINE",
"1061 78 OFFCURVE",
"1032 76 OFFCURVE",
"1003 76 CURVE SMOOTH",
"834 76 OFFCURVE",
"735 130 OFFCURVE",
"704 237 CURVE SMOOTH",
"688 294 OFFCURVE",
"680 394 OFFCURVE",
"680 537 CURVE SMOOTH",
"680 704 OFFCURVE",
"694 977 OFFCURVE",
"723 1355 CURVE SMOOTH",
"745 1646 OFFCURVE",
"772 1938 OFFCURVE",
"805 2231 CURVE",
"1000 1710 OFFCURVE",
"1145 1311 OFFCURVE",
"1240 1034 CURVE SMOOTH",
"1323 803 OFFCURVE",
"1390 614 OFFCURVE",
"1439 466 CURVE SMOOTH",
"1477 348 OFFCURVE",
"1505 259 OFFCURVE",
"1523 200 CURVE SMOOTH",
"1538 157 OFFCURVE",
"1578 101 OFFCURVE",
"1643 31 CURVE SMOOTH",
"1714 -46 OFFCURVE",
"1757 -99 OFFCURVE",
"1772 -128 CURVE",
"1772 -128 LINE"
);
}
);
width = 3738;
}
);
leftKerningGroup = M;
note = M;
rightKerningGroup = M;
unicode = 004D;
},
{
glyphname = N;
lastChange = "2021-08-12 00:41:17 +0000";
layers = (
{
anchors = (
{
name = bottom;
position = "{1799, 0}";
},
{
name = top;
position = "{1804, 2681}";
}
);
layerId = "274E8830-0A80-4149-8BE8-CF3C4CCD3F6F";
paths = (
{
closed = 1;
nodes = (
"2876 -216 LINE",
"2840 -31 OFFCURVE",
"2822 341 OFFCURVE",
"2822 900 CURVE SMOOTH",
"2822 1764 OFFCURVE",
"2845 2290 OFFCURVE",
"2890 2479 CURVE SMOOTH",
"2916 2586 OFFCURVE",
"3014 2639 OFFCURVE",
"3184 2639 CURVE",
"3213 2690 LINE",
"3136 2671 OFFCURVE",
"2976 2654 OFFCURVE",
"2732 2639 CURVE",
"2452 2656 OFFCURVE",
"2287 2670 OFFCURVE",
"2236 2679 CURVE",
"2202 2610 LINE",
"2259 2620 OFFCURVE",
"2307 2625 OFFCURVE",
"2346 2625 CURVE SMOOTH",
"2484 2625 OFFCURVE",
"2566 2574 OFFCURVE",
"2593 2472 CURVE SMOOTH",
"2624 2357 OFFCURVE",
"2639 2031 OFFCURVE",
"2639 1496 CURVE SMOOTH",
"2639 1082 OFFCURVE",
"2626 758 OFFCURVE",
"2600 524 CURVE",
"2257 857 OFFCURVE",
"1967 1137 OFFCURVE",
"1731 1362 CURVE",
"1578 1518 OFFCURVE",
"1386 1731 OFFCURVE",
"1156 2002 CURVE SMOOTH",
"919 2281 OFFCURVE",
"739 2506 OFFCURVE",
"617 2677 CURVE",
"506 2669 OFFCURVE",
"408 2665 OFFCURVE",
"321 2665 CURVE SMOOTH",
"243 2665 OFFCURVE",
"175 2668 OFFCURVE",
"117 2675 CURVE",
"80 2596 LINE",
"130 2607 OFFCURVE",
"177 2613 OFFCURVE",
"219 2613 CURVE SMOOTH",
"301 2613 OFFCURVE",
"368 2591 OFFCURVE",
"419 2549 CURVE",
"478 2482 OFFCURVE",
"508 2104 OFFCURVE",
"508 1417 CURVE SMOOTH",
"508 1310 OFFCURVE",
"487 914 OFFCURVE",
"445 229 CURVE SMOOTH",
"442 186 OFFCURVE",
"417 150 OFFCURVE",
"370 120 CURVE SMOOTH",
"315 85 OFFCURVE",
"242 68 OFFCURVE",
"151 68 CURVE",
"112 -12 LINE",
"216 13 OFFCURVE",
"356 25 OFFCURVE",
"532 25 CURVE SMOOTH",
"728 25 OFFCURVE",
"919 13 OFFCURVE",
"1104 -12 CURVE",
"1153 78 LINE",
"1120 72 OFFCURVE",
"1085 69 OFFCURVE",
"1049 69 CURVE SMOOTH",
"891 69 OFFCURVE",
"792 125 OFFCURVE",
"752 236 CURVE SMOOTH",
"705 366 OFFCURVE",
"682 753 OFFCURVE",
"682 1396 CURVE SMOOTH",
"682 1657 OFFCURVE",
"694 1871 OFFCURVE",
"717 2039 CURVE",
"1064 1662 OFFCURVE",
"1341 1377 OFFCURVE",
"1537 1173 CURVE SMOOTH",
"2231 453 LINE SMOOTH",
"2580 90 OFFCURVE",
"2784 -141 OFFCURVE",
"2841 -241 CURVE",
"2841 -241 LINE"
);
}
);
width = 3283;
}
);
leftKerningGroup = H;
leftMetricsKey = H;
note = N;
rightKerningGroup = N;
rightMetricsKey = "=H-10";
unicode = 004E;
},
{
color = 3;
glyphname = Eng;
lastChange = "2021-08-12 00:41:17 +0000";
layers = (
{
layerId = "274E8830-0A80-4149-8BE8-CF3C4CCD3F6F";
paths = (
{
closed = 1;
nodes = (
"2567 -1591 OFFCURVE",
"2733 -1291 OFFCURVE",
"2733 -792 CURVE SMOOTH",
"2733 -626 OFFCURVE",
"2727 -424 OFFCURVE",
"2722 -203 CURVE SMOOTH",
"2713 170 OFFCURVE",
"2701 601 OFFCURVE",
"2701 1019 CURVE SMOOTH",
"2701 1583 OFFCURVE",
"2722 2125 OFFCURVE",
"2796 2475 CURVE SMOOTH",
"2818 2580 OFFCURVE",
"2921 2633 OFFCURVE",
"3089 2633 CURVE",
"3119 2683 LINE",
"3043 2663 OFFCURVE",
"2885 2643 OFFCURVE",
"2643 2633 CURVE",
"2364 2647 OFFCURVE",
"2202 2663 OFFCURVE",
"2150 2673 CURVE",
"2115 2603 LINE",
"2177 2613 OFFCURVE",
"2221 2619 OFFCURVE",
"2256 2619 CURVE SMOOTH",
"2400 2619 OFFCURVE",
"2486 2559 OFFCURVE",
"2510 2445 CURVE SMOOTH",
"2525 2375 OFFCURVE",
"2536 1947 OFFCURVE",
"2536 1498 CURVE SMOOTH",
"2536 1129 OFFCURVE",
"2528 746 OFFCURVE",
"2509 538 CURVE",
"1778 1237 OFFCURVE",
"1358 1569 OFFCURVE",
"547 2667 CURVE",
"441 2657 OFFCURVE",
"351 2657 OFFCURVE",
"267 2657 CURVE SMOOTH",
"187 2657 OFFCURVE",
"113 2657 OFFCURVE",
"52 2667 CURVE",
"19 2589 LINE",
"67 2599 OFFCURVE",
"110 2603 OFFCURVE",
"150 2603 CURVE SMOOTH",
"264 2603 OFFCURVE",
"362 2583 OFFCURVE",
"389 2455 CURVE SMOOTH",
"419 2313 OFFCURVE",
"438 2020 OFFCURVE",
"438 1577 CURVE SMOOTH",
"438 1527 OFFCURVE",
"438 1474 OFFCURVE",
"437 1420 CURVE SMOOTH",
"436 1316 OFFCURVE",
"404 920 OFFCURVE",
"368 246 CURVE SMOOTH",
"363 152 OFFCURVE",
"247 88 OFFCURVE",
"79 88 CURVE",
"41 8 LINE",
"146 28 OFFCURVE",
"286 44 OFFCURVE",
"460 44 CURVE SMOOTH",
"652 44 OFFCURVE",
"844 28 OFFCURVE",
"1022 8 CURVE",
"1074 92 LINE",
"1039 88 OFFCURVE",
"1001 88 OFFCURVE",
"965 88 CURVE SMOOTH",
"783 88 OFFCURVE",
"687 162 OFFCURVE",
"656 310 CURVE SMOOTH",
"637 402 OFFCURVE",
"602 826 OFFCURVE",
"602 1283 CURVE SMOOTH",
"602 1542 OFFCURVE",
"613 1813 OFFCURVE",
"645 2039 CURVE",
"986 1663 OFFCURVE",
"1261 1377 OFFCURVE",
"1454 1177 CURVE SMOOTH",
"2144 464 LINE SMOOTH",
"2262 342 OFFCURVE",
"2360 236 OFFCURVE",
"2444 142 CURVE",
"2457 65 OFFCURVE",
"2468 -216 OFFCURVE",
"2468 -509 CURVE SMOOTH",
"2468 -645 OFFCURVE",
"2465 -783 OFFCURVE",
"2460 -905 CURVE SMOOTH",
"2444 -1276 OFFCURVE",
"2292 -1487 OFFCURVE",
"2039 -1487 CURVE SMOOTH",
"1900 -1487 OFFCURVE",
"1816 -1412 OFFCURVE",
"1785 -1264 CURVE SMOOTH",
"1777 -1226 OFFCURVE",
"1774 -1175 OFFCURVE",
"1774 -1121 CURVE SMOOTH",
"1774 -1026 OFFCURVE",
"1784 -920 OFFCURVE",
"1797 -848 CURVE",
"1709 -834 LINE",
"1681 -1196 OFFCURVE",
"1623 -1462 OFFCURVE",
"1569 -1462 CURVE",
"1572 -1477 LINE",
"1822 -1581 OFFCURVE",
"2032 -1591 OFFCURVE",
"2256 -1591 CURVE",
"2256 -1591 LINE"
);
}
);
width = 3226;
}
);
leftKerningGroup = H;
rightKerningGroup = N;
unicode = 014A;
},
{
glyphname = O;
lastChange = "2021-08-12 00:41:17 +0000";
layers = (
{
anchors = (
{
name = bottom;
position = "{1573, 0}";
},
{
name = center;
position = "{1573, 1341}";
},
{
name = ogonek;
position = "{1800, 10}";
},
{
name = top;
position = "{1573, 2681}";
},
{
name = topleft;
position = "{2, 2681}";
},
{
name = topright;
position = "{1874, 2681}";
}
);
layerId = "274E8830-0A80-4149-8BE8-CF3C4CCD3F6F";
paths = (
{
closed = 1;
nodes = (
"2536 -78 OFFCURVE",
"3014 405 OFFCURVE",
"3014 1370 CURVE SMOOTH",
"3014 1817 OFFCURVE",
"2884 2153 OFFCURVE",
"2624 2380 CURVE SMOOTH",
"2377 2595 OFFCURVE",
"2027 2703 OFFCURVE",
"1573 2703 CURVE SMOOTH",
"1119 2703 OFFCURVE",
"770 2595 OFFCURVE",
"527 2378 CURVE SMOOTH",
"272 2151 OFFCURVE",
"145 1815 OFFCURVE",
"145 1370 CURVE SMOOTH",
"146 405 OFFCURVE",
"624 -78 OFFCURVE",
"1581 -78 CURVE",
"1581 -78 LINE"
);
},
{
closed = 1;
nodes = (
"1271 42 OFFCURVE",
"997 187 OFFCURVE",
"784 477 CURVE SMOOTH",
"588 742 OFFCURVE",
"490 1053 OFFCURVE",
"490 1410 CURVE SMOOTH",
"490 1709 OFFCURVE",
"564 1962 OFFCURVE",
"712 2169 CURVE SMOOTH",
"878 2400 OFFCURVE",
"1113 2534 OFFCURVE",
"1417 2571 CURVE SMOOTH",
"1468 2578 OFFCURVE",
"1519 2581 OFFCURVE",
"1569 2581 CURVE SMOOTH",
"1909 2581 OFFCURVE",
"2182 2443 OFFCURVE",
"2389 2167 CURVE SMOOTH",
"2576 1918 OFFCURVE",
"2670 1618 OFFCURVE",
"2670 1267 CURVE SMOOTH",
"2670 958 OFFCURVE",
"2594 693 OFFCURVE",
"2441 472 CURVE SMOOTH",
"2272 228 OFFCURVE",
"2037 88 OFFCURVE",
"1738 51 CURVE SMOOTH",
"1693 45 OFFCURVE",
"1648 42 OFFCURVE",
"1604 42 CURVE",
"1604 42 LINE"
);
}
);
width = 3159;
}
);
leftKerningGroup = O;
note = O;
rightKerningGroup = O;
unicode = 004F;
},
{
glyphname = Oslash;
lastChange = "2021-08-12 00:41:17 +0000";
layers = (
{
anchors = (
{
name = bottom;
position = "{1545, 0}";
},
{
name = top;
position = "{1545, 2681}";
}
);
layerId = "274E8830-0A80-4149-8BE8-CF3C4CCD3F6F";
paths = (
{
closed = 1;
nodes = (
"2480 -76 OFFCURVE",
"2944 393 OFFCURVE",
"2944 1331 CURVE SMOOTH",
"2944 1845 OFFCURVE",
"2767 2208 OFFCURVE",
"2414 2420 CURVE",
"2590 2653 LINE",
"2353 2653 LINE",
"2244 2505 LINE",
"2047 2584 OFFCURVE",
"1814 2624 OFFCURVE",
"1545 2624 CURVE SMOOTH",
"1104 2624 OFFCURVE",
"766 2519 OFFCURVE",
"529 2309 CURVE SMOOTH",
"282 2089 OFFCURVE",
"158 1763 OFFCURVE",
"158 1331 CURVE SMOOTH",
"159 836 OFFCURVE",
"294 470 OFFCURVE",
"563 233 CURVE",
"389 -2 LINE",
"584 0 LINE",
"688 138 LINE",
"910 -5 OFFCURVE",
"1198 -76 OFFCURVE",
"1552 -76 CURVE",
"1552 -76 LINE"
);
},
{
closed = 1;
nodes = (
"756 494 LINE",
"581 747 OFFCURVE",
"493 1039 OFFCURVE",
"493 1369 CURVE SMOOTH",
"493 1659 OFFCURVE",
"565 1904 OFFCURVE",
"709 2105 CURVE SMOOTH",
"870 2330 OFFCURVE",
"1098 2460 OFFCURVE",
"1393 2496 CURVE SMOOTH",
"1443 2502 OFFCURVE",
"1492 2505 OFFCURVE",
"1541 2505 CURVE SMOOTH",
"1756 2505 OFFCURVE",
"1946 2446 OFFCURVE",
"2112 2327 CURVE",
"756 494 LINE"
);
},
{
closed = 1;
nodes = (
"1295 41 OFFCURVE",
"1056 149 OFFCURVE",
"859 364 CURVE",
"2251 2205 LINE",
"2490 1956 OFFCURVE",
"2609 1631 OFFCURVE",
"2609 1230 CURVE SMOOTH",
"2609 930 OFFCURVE",
"2535 673 OFFCURVE",
"2387 458 CURVE SMOOTH",
"2223 221 OFFCURVE",
"1996 85 OFFCURVE",
"1705 49 CURVE SMOOTH",
"1661 44 OFFCURVE",
"1617 41 OFFCURVE",
"1574 41 CURVE",
"1574 41 LINE"
);
}
);
width = 3089;
}
);
leftKerningGroup = O;
note = Oslash;
rightKerningGroup = O;
unicode = 00D8;
},
{
glyphname = OE;
lastChange = "2021-08-12 00:41:17 +0000";
layers = (
{
layerId = "274E8830-0A80-4149-8BE8-CF3C4CCD3F6F";
paths = (
{
closed = 1;
nodes = (
"1761 -76 OFFCURVE",
"1957 -48 OFFCURVE",
"2127 7 CURVE",
"2189 11 LINE SMOOTH",
"2268 16 OFFCURVE",
"2358 18 OFFCURVE",
"2459 18 CURVE SMOOTH",
"2686 18 OFFCURVE",
"3000 4 OFFCURVE",
"3400 -24 CURVE SMOOTH",
"3419 -25 OFFCURVE",
"3437 -26 OFFCURVE",
"3452 -26 CURVE SMOOTH",
"3518 -26 OFFCURVE",
"3565 -12 OFFCURVE",
"3592 17 CURVE SMOOTH",
"3616 42 OFFCURVE",
"3633 91 OFFCURVE",
"3644 164 CURVE SMOOTH",
"3664 299 OFFCURVE",
"3699 423 OFFCURVE",
"3749 535 CURVE",
"3694 552 LINE",
"3688 508 OFFCURVE",
"3661 446 OFFCURVE",
"3613 367 CURVE SMOOTH",
"3563 284 OFFCURVE",
"3516 228 OFFCURVE",
"3473 197 CURVE SMOOTH",
"3387 136 OFFCURVE",
"3214 105 OFFCURVE",
"2955 105 CURVE SMOOTH",
"2888 105 OFFCURVE",
"2825 109 OFFCURVE",
"2765 116 CURVE SMOOTH",
"2634 131 OFFCURVE",
"2553 145 OFFCURVE",
"2522 158 CURVE SMOOTH",
"2483 173 OFFCURVE",
"2458 206 OFFCURVE",
"2449 256 CURVE SMOOTH",
"2422 393 OFFCURVE",
"2407 738 OFFCURVE",
"2404 1291 CURVE",
"2446 1294 OFFCURVE",
"2496 1295 OFFCURVE",
"2554 1295 CURVE SMOOTH",
"2656 1295 OFFCURVE",
"2784 1291 OFFCURVE",
"2937 1284 CURVE SMOOTH",
"3096 1276 OFFCURVE",
"3174 1218 OFFCURVE",
"3172 1109 CURVE",
"3163 1066 OFFCURVE",
"3157 1039 OFFCURVE",
"3152 1026 CURVE",
"3230 1045 LINE",
"3228 1098 OFFCURVE",
"3227 1129 OFFCURVE",
"3227 1139 CURVE SMOOTH",
"3226 1166 OFFCURVE",
"3232 1207 OFFCURVE",
"3245 1262 CURVE SMOOTH",
"3259 1317 OFFCURVE",
"3266 1353 OFFCURVE",
"3266 1370 CURVE SMOOTH",
"3266 1401 OFFCURVE",
"3253 1417 OFFCURVE",
"3227 1418 CURVE",
"3260 1416 OFFCURVE",
"2985 1413 OFFCURVE",
"2404 1409 CURVE",
"2404 1938 OFFCURVE",
"2423 2273 OFFCURVE",
"2461 2414 CURVE",
"2524 2424 OFFCURVE",
"2627 2430 OFFCURVE",
"2770 2431 CURVE SMOOTH",
"2811 2431 LINE SMOOTH",
"2928 2431 OFFCURVE",
"3015 2427 OFFCURVE",
"3072 2420 CURVE SMOOTH",
"3225 2401 OFFCURVE",
"3302 2351 OFFCURVE",
"3302 2270 CURVE SMOOTH",
"3302 2240 OFFCURVE",
"3281 2167 OFFCURVE",
"3240 2051 CURVE",
"3316 2034 LINE",
"3357 2262 LINE SMOOTH",
"3360 2277 OFFCURVE",
"3371 2321 OFFCURVE",
"3390 2392 CURVE SMOOTH",
"3405 2448 OFFCURVE",
"3413 2489 OFFCURVE",
"3413 2515 CURVE SMOOTH",
"3413 2552 OFFCURVE",
"3399 2571 OFFCURVE",
"3372 2573 CURVE",
"2986 2570 OFFCURVE",
"2618 2567 OFFCURVE",
"2269 2562 CURVE SMOOTH",
"2188 2563 OFFCURVE",
"2103 2567 OFFCURVE",
"2014 2573 CURVE",
"1868 2607 OFFCURVE",
"1707 2624 OFFCURVE",
"1532 2624 CURVE SMOOTH",
"1091 2624 OFFCURVE",
"753 2519 OFFCURVE",
"516 2309 CURVE SMOOTH",
"269 2089 OFFCURVE",
"145 1763 OFFCURVE",
"145 1331 CURVE SMOOTH",
"146 393 OFFCURVE",
"610 -76 OFFCURVE",
"1539 -76 CURVE",
"1539 -76 LINE"
);
},
{
closed = 1;
nodes = (
"1238 41 OFFCURVE",
"972 182 OFFCURVE",
"765 463 CURVE SMOOTH",
"575 721 OFFCURVE",
"480 1023 OFFCURVE",
"480 1369 CURVE SMOOTH",
"480 1659 OFFCURVE",
"552 1904 OFFCURVE",
"696 2105 CURVE SMOOTH",
"857 2330 OFFCURVE",
"1085 2460 OFFCURVE",
"1380 2496 CURVE SMOOTH",
"1430 2502 OFFCURVE",
"1479 2505 OFFCURVE",
"1528 2505 CURVE SMOOTH",
"1735 2505 OFFCURVE",
"1920 2450 OFFCURVE",
"2082 2339 CURVE",
"2109 2168 OFFCURVE",
"2123 1744 OFFCURVE",
"2123 1068 CURVE SMOOTH",
"2123 636 OFFCURVE",
"2108 356 OFFCURVE",
"2077 227 CURVE SMOOTH",
"2071 204 OFFCURVE",
"2061 182 OFFCURVE",
"2046 162 CURVE SMOOTH",
"2029 141 OFFCURVE",
"1974 118 OFFCURVE",
"1879 91 CURVE SMOOTH",
"1801 69 OFFCURVE",
"1739 55 OFFCURVE",
"1692 49 CURVE SMOOTH",
"1648 44 OFFCURVE",
"1604 41 OFFCURVE",
"1561 41 CURVE",
"1561 41 LINE"
);
}
);
width = 3839;
}
);
leftKerningGroup = O;
leftMetricsKey = O;
note = OE;
rightKerningGroup = E;
rightMetricsKey = E;
unicode = 0152;
},
{
glyphname = P;
lastChange = "2021-08-12 00:41:17 +0000";
layers = (
{
layerId = "274E8830-0A80-4149-8BE8-CF3C4CCD3F6F";
paths = (
{
closed = 1;
nodes = (
"80 -7 LINE",
"421 12 OFFCURVE",
"616 24 OFFCURVE",
"667 29 CURVE SMOOTH",
"698 31 OFFCURVE",
"732 32 OFFCURVE",
"769 32 CURVE SMOOTH",
"864 32 OFFCURVE",
"983 26 OFFCURVE",
"1127 14 CURVE SMOOTH",
"1201 7 OFFCURVE",
"1275 1 OFFCURVE",
"1348 -5 CURVE",
"1386 79 LINE",
"1374 77 OFFCURVE",
"1359 76 OFFCURVE",
"1341 76 CURVE SMOOTH",
"1295 76 OFFCURVE",
"1229 82 OFFCURVE",
"1141 96 CURVE SMOOTH",
"1000 117 OFFCURVE",
"920 146 OFFCURVE",
"899 182 CURVE",
"868 279 OFFCURVE",
"853 564 OFFCURVE",
"853 1036 CURVE SMOOTH",
"853 1612 LINE SMOOTH",
"853 1969 OFFCURVE",
"862 2235 OFFCURVE",
"881 2411 CURVE SMOOTH",
"887 2469 OFFCURVE",
"927 2506 OFFCURVE",
"1000 2521 CURVE SMOOTH",
"1038 2528 OFFCURVE",
"1123 2532 OFFCURVE",
"1255 2532 CURVE SMOOTH",
"1434 2532 OFFCURVE",
"1578 2472 OFFCURVE",
"1688 2351 CURVE SMOOTH",
"1791 2238 OFFCURVE",
"1843 2099 OFFCURVE",
"1843 1935 CURVE SMOOTH",
"1843 1816 OFFCURVE",
"1814 1704 OFFCURVE",
"1755 1598 CURVE SMOOTH",
"1686 1473 OFFCURVE",
"1574 1382 OFFCURVE",
"1421 1323 CURVE SMOOTH",
"1300 1277 OFFCURVE",
"1180 1256 OFFCURVE",
"1061 1260 CURVE",
"1019 1186 LINE",
"1059 1183 OFFCURVE",
"1099 1181 OFFCURVE",
"1139 1181 CURVE SMOOTH",
"1267 1181 OFFCURVE",
"1392 1199 OFFCURVE",
"1512 1233 CURVE SMOOTH",
"1721 1293 OFFCURVE",
"1881 1410 OFFCURVE",
"1992 1584 CURVE SMOOTH",
"2077 1716 OFFCURVE",
"2119 1867 OFFCURVE",
"2119 2037 CURVE SMOOTH",
"2119 2251 OFFCURVE",
"2050 2411 OFFCURVE",
"1913 2518 CURVE SMOOTH",
"1789 2615 OFFCURVE",
"1596 2663 OFFCURVE",
"1333 2663 CURVE SMOOTH",
"1254 2663 OFFCURVE",
"1157 2659 OFFCURVE",
"1043 2650 CURVE SMOOTH",
"844 2637 OFFCURVE",
"735 2631 OFFCURVE",
"714 2631 CURVE SMOOTH",
"443 2644 OFFCURVE",
"265 2656 OFFCURVE",
"178 2666 CURVE",
"141 2587 LINE",
"192 2598 OFFCURVE",
"238 2604 OFFCURVE",
"281 2604 CURVE SMOOTH",
"362 2604 OFFCURVE",
"428 2583 OFFCURVE",
"479 2540 CURVE",
"536 2475 OFFCURVE",
"564 2005 OFFCURVE",
"564 1130 CURVE SMOOTH",
"564 652 OFFCURVE",
"548 359 OFFCURVE",
"516 251 CURVE SMOOTH",
"480 129 OFFCURVE",
"346 70 OFFCURVE",
"113 74 CURVE",
"80 -7 LINE"
);
}
);
width = 2226;
}
);
leftKerningGroup = H;
leftMetricsKey = H;
note = P;
rightKerningGroup = P;
unicode = 0050;
},
{
glyphname = Thorn;
lastChange = "2021-08-12 00:41:17 +0000";
layers = (
{
layerId = "274E8830-0A80-4149-8BE8-CF3C4CCD3F6F";
paths = (
{
closed = 1;
nodes = (
"56 -757 LINE",
"431 -730 OFFCURVE",
"642 -715 OFFCURVE",
"689 -714 CURVE",
"975 -723 OFFCURVE",
"1154 -737 OFFCURVE",
"1226 -757 CURVE",
"1270 -691 LINE",
"1251 -693 OFFCURVE",
"1233 -694 OFFCURVE",
"1214 -694 CURVE SMOOTH",
"1149 -694 OFFCURVE",
"1082 -682 OFFCURVE",
"1013 -659 CURVE SMOOTH",
"907 -623 OFFCURVE",
"848 -570 OFFCURVE",
"835 -500 CURVE SMOOTH",
"813 -377 OFFCURVE",
"802 -4 OFFCURVE",
"802 619 CURVE SMOOTH",
"802 733 LINE",
"809 753 OFFCURVE",
"813 772 OFFCURVE",
"812 791 CURVE SMOOTH",
"803 1041 LINE SMOOTH",
"802 1068 OFFCURVE",
"802 1099 OFFCURVE",
"802 1135 CURVE SMOOTH",
"802 1220 OFFCURVE",
"804 1330 OFFCURVE",
"810 1464 CURVE SMOOTH",
"817 1633 OFFCURVE",
"825 1769 OFFCURVE",
"836 1872 CURVE SMOOTH",
"842 1928 OFFCURVE",
"890 1962 OFFCURVE",
"981 1974 CURVE SMOOTH",
"1004 1977 OFFCURVE",
"1098 1978 OFFCURVE",
"1262 1978 CURVE SMOOTH",
"1441 1978 OFFCURVE",
"1585 1918 OFFCURVE",
"1695 1797 CURVE SMOOTH",
"1798 1684 OFFCURVE",
"1850 1545 OFFCURVE",
"1850 1381 CURVE SMOOTH",
"1850 1262 OFFCURVE",
"1821 1150 OFFCURVE",
"1762 1044 CURVE SMOOTH",
"1693 919 OFFCURVE",
"1581 828 OFFCURVE",
"1428 769 CURVE SMOOTH",
"1307 723 OFFCURVE",
"1187 702 OFFCURVE",
"1068 706 CURVE",
"1026 632 LINE",
"1066 629 OFFCURVE",
"1106 627 OFFCURVE",
"1146 627 CURVE SMOOTH",
"1274 627 OFFCURVE",
"1399 645 OFFCURVE",
"1519 679 CURVE SMOOTH",
"1728 739 OFFCURVE",
"1888 856 OFFCURVE",
"1999 1031 CURVE SMOOTH",
"2084 1163 OFFCURVE",
"2126 1314 OFFCURVE",
"2126 1483 CURVE SMOOTH",
"2126 1697 OFFCURVE",
"2057 1857 OFFCURVE",
"1920 1964 CURVE SMOOTH",
"1796 2061 OFFCURVE",
"1603 2110 OFFCURVE",
"1340 2110 CURVE SMOOTH",
"1261 2110 OFFCURVE",
"1164 2106 OFFCURVE",
"1050 2097 CURVE SMOOTH",
"962 2090 OFFCURVE",
"888 2085 OFFCURVE",
"829 2081 CURVE",
"834 2339 OFFCURVE",
"839 2481 OFFCURVE",
"842 2507 CURVE SMOOTH",
"847 2548 OFFCURVE",
"852 2585 OFFCURVE",
"859 2618 CURVE SMOOTH",
"860 2626 OFFCURVE",
"861 2633 OFFCURVE",
"861 2640 CURVE SMOOTH",
"861 2666 OFFCURVE",
"846 2679 OFFCURVE",
"816 2679 CURVE SMOOTH",
"803 2679 OFFCURVE",
"770 2674 OFFCURVE",
"715 2663 CURVE SMOOTH",
"660 2652 OFFCURVE",
"616 2648 OFFCURVE",
"581 2649 CURVE SMOOTH",
"380 2655 OFFCURVE",
"248 2662 OFFCURVE",
"185 2669 CURVE",
"149 2592 LINE",
"198 2603 OFFCURVE",
"243 2608 OFFCURVE",
"284 2608 CURVE SMOOTH",
"364 2608 OFFCURVE",
"428 2588 OFFCURVE",
"477 2546 CURVE",
"494 2527 OFFCURVE",
"511 2352 OFFCURVE",
"529 2019 CURVE SMOOTH",
"549 1644 OFFCURVE",
"559 1285 OFFCURVE",
"559 940 CURVE SMOOTH",
"558 355 LINE SMOOTH",
"557 -115 OFFCURVE",
"545 -400 OFFCURVE",
"521 -500 CURVE SMOOTH",
"505 -567 OFFCURVE",
"453 -618 OFFCURVE",
"366 -653 CURVE SMOOTH",
"299 -680 OFFCURVE",
"225 -693 OFFCURVE",
"145 -693 CURVE SMOOTH",
"120 -693 OFFCURVE",
"100 -691 OFFCURVE",
"84 -688 CURVE",
"56 -757 LINE"
);
}
);
width = 2513;
}
);
leftKerningGroup = H;
note = Thorn;
rightKerningGroup = P;
unicode = 00DE;
},
{
glyphname = Q;
lastChange = "2021-08-12 00:41:17 +0000";
layers = (
{
layerId = "274E8830-0A80-4149-8BE8-CF3C4CCD3F6F";
paths = (
{
closed = 1;
nodes = (
"3351 -848 OFFCURVE",
"3548 -808 OFFCURVE",
"3799 -728 CURVE",
"3830 -654 LINE",
"3759 -671 OFFCURVE",
"3687 -680 OFFCURVE",
"3614 -680 CURVE SMOOTH",
"3338 -680 OFFCURVE",
"3009 -540 OFFCURVE",
"2626 -260 CURVE SMOOTH",
"2494 -163 OFFCURVE",
"2343 -71 OFFCURVE",
"2174 15 CURVE",
"2735 192 OFFCURVE",
"3015 648 OFFCURVE",
"3015 1382 CURVE SMOOTH",
"3015 1828 OFFCURVE",
"2885 2165 OFFCURVE",
"2624 2392 CURVE SMOOTH",
"2378 2607 OFFCURVE",
"2028 2714 OFFCURVE",
"1574 2714 CURVE SMOOTH",
"1120 2714 OFFCURVE",
"771 2606 OFFCURVE",
"527 2389 CURVE SMOOTH",
"272 2163 OFFCURVE",
"145 1827 OFFCURVE",
"145 1382 CURVE SMOOTH",
"146 416 OFFCURVE",
"625 -67 OFFCURVE",
"1581 -67 CURVE SMOOTH",
"1718 -67 OFFCURVE",
"1846 -57 OFFCURVE",
"1964 -36 CURVE",
"2079 -117 OFFCURVE",
"2165 -182 OFFCURVE",
"2220 -231 CURVE SMOOTH",
"2714 -662 LINE SMOOTH",
"2857 -786 OFFCURVE",
"3021 -848 OFFCURVE",
"3208 -848 CURVE",
"3208 -848 LINE"
);
},
{
closed = 1;
nodes = (
"1271 54 OFFCURVE",
"998 199 OFFCURVE",
"784 488 CURVE SMOOTH",
"588 754 OFFCURVE",
"490 1065 OFFCURVE",
"490 1421 CURVE SMOOTH",
"490 1720 OFFCURVE",
"564 1973 OFFCURVE",
"713 2180 CURVE SMOOTH",
"879 2411 OFFCURVE",
"1114 2545 OFFCURVE",
"1417 2582 CURVE SMOOTH",
"1469 2589 OFFCURVE",
"1520 2592 OFFCURVE",
"1569 2592 CURVE SMOOTH",
"1910 2592 OFFCURVE",
"2183 2454 OFFCURVE",
"2390 2179 CURVE SMOOTH",
"2577 1929 OFFCURVE",
"2670 1629 OFFCURVE",
"2670 1279 CURVE SMOOTH",
"2670 970 OFFCURVE",
"2594 705 OFFCURVE",
"2441 484 CURVE SMOOTH",
"2272 239 OFFCURVE",
"2038 99 OFFCURVE",
"1739 62 CURVE SMOOTH",
"1694 57 OFFCURVE",
"1649 54 OFFCURVE",
"1604 54 CURVE",
"1604 54 LINE"
);
}
);
width = 3144;
}
);
leftKerningGroup = O;
leftMetricsKey = O;
note = Q;
rightKerningGroup = Q;
unicode = 0051;
},
{
glyphname = R;
lastChange = "2021-08-12 00:41:17 +0000";
layers = (
{
anchors = (
{
name = bottom;
position = "{1611, 0}";
},
{
name = top;
position = "{1226, 2659}";
}
);
layerId = "274E8830-0A80-4149-8BE8-CF3C4CCD3F6F";
paths = (
{
closed = 1;
nodes = (
"2791 -34 OFFCURVE",
"2888 -28 OFFCURVE",
"3002 -17 CURVE",
"3043 57 LINE",
"2805 54 OFFCURVE",
"2535 217 OFFCURVE",
"2232 548 CURVE SMOOTH",
"2007 794 OFFCURVE",
"1814 1068 OFFCURVE",
"1651 1369 CURVE",
"1765 1392 OFFCURVE",
"1876 1466 OFFCURVE",
"1983 1591 CURVE SMOOTH",
"2105 1733 OFFCURVE",
"2166 1888 OFFCURVE",
"2166 2057 CURVE SMOOTH",
"2166 2293 OFFCURVE",
"2088 2459 OFFCURVE",
"1931 2555 CURVE SMOOTH",
"1812 2627 OFFCURVE",
"1636 2663 OFFCURVE",
"1402 2663 CURVE SMOOTH",
"1332 2663 OFFCURVE",
"1226 2659 OFFCURVE",
"1084 2650 CURVE SMOOTH",
"869 2637 OFFCURVE",
"759 2631 OFFCURVE",
"756 2631 CURVE SMOOTH",
"485 2644 OFFCURVE",
"307 2656 OFFCURVE",
"220 2666 CURVE",
"183 2587 LINE",
"234 2598 OFFCURVE",
"280 2604 OFFCURVE",
"323 2604 CURVE SMOOTH",
"404 2604 OFFCURVE",
"470 2583 OFFCURVE",
"521 2540 CURVE",
"578 2475 OFFCURVE",
"606 2005 OFFCURVE",
"606 1130 CURVE SMOOTH",
"606 675 OFFCURVE",
"591 385 OFFCURVE",
"561 261 CURVE SMOOTH",
"544 192 OFFCURVE",
"491 140 OFFCURVE",
"402 105 CURVE SMOOTH",
"332 77 OFFCURVE",
"256 63 OFFCURVE",
"174 63 CURVE SMOOTH",
"149 63 OFFCURVE",
"129 65 OFFCURVE",
"112 68 CURVE",
"80 -13 LINE",
"437 15 OFFCURVE",
"685 29 OFFCURVE",
"825 29 CURVE SMOOTH",
"1014 29 OFFCURVE",
"1187 15 OFFCURVE",
"1342 -12 CURVE",
"1390 74 LINE",
"1125 81 OFFCURVE",
"974 126 OFFCURVE",
"936 210 CURVE",
"909 297 OFFCURVE",
"895 572 OFFCURVE",
"895 1036 CURVE SMOOTH",
"895 1612 LINE SMOOTH",
"895 1969 OFFCURVE",
"904 2235 OFFCURVE",
"923 2411 CURVE SMOOTH",
"929 2469 OFFCURVE",
"969 2506 OFFCURVE",
"1042 2521 CURVE SMOOTH",
"1080 2528 OFFCURVE",
"1165 2532 OFFCURVE",
"1297 2532 CURVE SMOOTH",
"1471 2532 OFFCURVE",
"1611 2477 OFFCURVE",
"1717 2368 CURVE SMOOTH",
"1816 2265 OFFCURVE",
"1866 2138 OFFCURVE",
"1866 1985 CURVE SMOOTH",
"1866 1770 OFFCURVE",
"1793 1602 OFFCURVE",
"1648 1481 CURVE SMOOTH",
"1515 1370 OFFCURVE",
"1342 1314 OFFCURVE",
"1130 1314 CURVE",
"1089 1240 LINE",
"1157 1240 OFFCURVE",
"1228 1245 OFFCURVE",
"1302 1254 CURVE",
"1350 1215 OFFCURVE",
"1397 1166 OFFCURVE",
"1443 1106 CURVE SMOOTH",
"1470 1071 OFFCURVE",
"1513 1011 OFFCURVE",
"1571 926 CURVE SMOOTH",
"1976 327 LINE SMOOTH",
"2139 86 OFFCURVE",
"2384 -34 OFFCURVE",
"2711 -34 CURVE",
"2711 -34 LINE"
);
}
);
width = 3013;
}
);
leftKerningGroup = H;
leftMetricsKey = H;
note = R;
rightKerningGroup = R;
unicode = 0052;
},
{
glyphname = S;
lastChange = "2021-08-12 00:41:17 +0000";
layers = (
{
anchors = (
{
name = bottom;
position = "{877, 0}";
},
{
name = top;
position = "{1008, 2681}";
}
);
layerId = "274E8830-0A80-4149-8BE8-CF3C4CCD3F6F";
paths = (
{
closed = 1;
nodes = (
"894 -74 OFFCURVE",
"1086 -35 OFFCURVE",
"1243 44 CURVE SMOOTH",
"1366 105 OFFCURVE",
"1463 196 OFFCURVE",
"1534 316 CURVE SMOOTH",
"1602 431 OFFCURVE",
"1636 557 OFFCURVE",
"1636 692 CURVE SMOOTH",
"1636 828 OFFCURVE",
"1601 953 OFFCURVE",
"1530 1068 CURVE SMOOTH",
"1467 1171 OFFCURVE",
"1341 1279 OFFCURVE",
"1152 1392 CURVE SMOOTH",
"907 1538 OFFCURVE",
"760 1633 OFFCURVE",
"710 1676 CURVE SMOOTH",
"569 1796 OFFCURVE",
"498 1936 OFFCURVE",
"498 2094 CURVE SMOOTH",
"498 2249 OFFCURVE",
"547 2371 OFFCURVE",
"647 2460 CURVE SMOOTH",
"736 2538 OFFCURVE",
"845 2577 OFFCURVE",
"976 2577 CURVE SMOOTH",
"1107 2577 OFFCURVE",
"1221 2539 OFFCURVE",
"1318 2462 CURVE SMOOTH",
"1379 2414 OFFCURVE",
"1409 2339 OFFCURVE",
"1409 2237 CURVE SMOOTH",
"1409 2166 OFFCURVE",
"1400 2110 OFFCURVE",
"1383 2070 CURVE",
"1468 2036 LINE",
"1467 2206 OFFCURVE",
"1494 2366 OFFCURVE",
"1550 2517 CURVE SMOOTH",
"1551 2521 OFFCURVE",
"1552 2526 OFFCURVE",
"1552 2531 CURVE SMOOTH",
"1552 2559 OFFCURVE",
"1521 2588 OFFCURVE",
"1458 2619 CURVE SMOOTH",
"1365 2664 OFFCURVE",
"1241 2687 OFFCURVE",
"1085 2687 CURVE SMOOTH",
"1081 2687 LINE SMOOTH",
"840 2687 OFFCURVE",
"637 2614 OFFCURVE",
"474 2467 CURVE SMOOTH",
"311 2321 OFFCURVE",
"229 2140 OFFCURVE",
"229 1925 CURVE SMOOTH",
"229 1742 OFFCURVE",
"299 1592 OFFCURVE",
"440 1475 CURVE SMOOTH",
"453 1464 OFFCURVE",
"599 1376 OFFCURVE",
"877 1211 CURVE SMOOTH",
"1060 1102 OFFCURVE",
"1182 980 OFFCURVE",
"1243 843 CURVE SMOOTH",
"1283 753 OFFCURVE",
"1303 654 OFFCURVE",
"1303 547 CURVE SMOOTH",
"1303 332 OFFCURVE",
"1230 185 OFFCURVE",
"1085 105 CURVE SMOOTH",
"1008 62 OFFCURVE",
"917 41 OFFCURVE",
"812 41 CURVE SMOOTH",
"691 41 OFFCURVE",
"579 67 OFFCURVE",
"476 119 CURVE SMOOTH",
"371 173 OFFCURVE",
"309 238 OFFCURVE",
"290 313 CURVE SMOOTH",
"283 343 OFFCURVE",
"279 448 OFFCURVE",
"279 629 CURVE",
"190 596 LINE",
"192 552 OFFCURVE",
"192 504 OFFCURVE",
"192 452 CURVE SMOOTH",
"192 338 OFFCURVE",
"189 206 OFFCURVE",
"181 57 CURVE SMOOTH",
"180 34 OFFCURVE",
"189 16 OFFCURVE",
"209 5 CURVE SMOOTH",
"306 -48 OFFCURVE",
"459 -74 OFFCURVE",
"668 -74 CURVE",
"668 -74 LINE"
);
}
);
width = 1768;
}
);
leftKerningGroup = S;
note = S;
rightKerningGroup = S;
unicode = 0053;
},
{
color = 3;
glyphname = Germandbls;
lastChange = "2021-08-12 00:41:17 +0000";
layers = (
{
background = {
hints = (
{
horizontal = 1;
place = "{-10, 94}";
type = Stem;
},
{
horizontal = 1;
place = "{1456, 82}";
type = Stem;
},
{
horizontal = 1;
place = "{2532, 127}";
type = Stem;
},
{
place = "{572, 288}";
type = Stem;
},
{
place = "{1800, 251}";
type = Stem;
},
{
place = "{2096, 304}";
type = Stem;
},
{
horizontal = 1;
place = "{2666, -20}";
target = down;
type = TopGhost;
}
);
paths = (
{
closed = 1;
nodes = (
"2400 1025 OFFCURVE",
"2360 1171 OFFCURVE",
"2280 1272 CURVE SMOOTH",
"2155 1431 OFFCURVE",
"1938 1519 OFFCURVE",
"1631 1538 CURVE",
"1760 1593 OFFCURVE",
"1862 1672 OFFCURVE",
"1936 1774 CURVE SMOOTH",
"2013 1880 OFFCURVE",
"2051 2001 OFFCURVE",
"2051 2136 CURVE SMOOTH",
"2051 2307 OFFCURVE",
"1989 2436 OFFCURVE",
"1864 2521 CURVE SMOOTH",
"1729 2613 OFFCURVE",
"1528 2659 OFFCURVE",
"1261 2659 CURVE SMOOTH",
"1195 2659 OFFCURVE",
"1125 2656 OFFCURVE",
"1050 2650 CURVE SMOOTH",
"761 2629 OFFCURVE",
"473 2634 OFFCURVE",
"185 2666 CURVE",
"148 2587 LINE",
"297 2620 OFFCURVE",
"409 2605 OFFCURVE",
"486 2540 CURVE",
"543 2475 OFFCURVE",
"572 2005 OFFCURVE",
"572 1130 CURVE SMOOTH",
"572 652 OFFCURVE",
"556 359 OFFCURVE",
"524 251 CURVE SMOOTH",
"487 129 OFFCURVE",
"357 70 OFFCURVE",
"132 73 CURVE",
"92 -10 LINE",
"338 7 OFFCURVE",
"517 17 OFFCURVE",
"630 18 CURVE SMOOTH",
"849 19 OFFCURVE",
"970 19 OFFCURVE",
"991 18 CURVE SMOOTH",
"1186 4 OFFCURVE",
"1335 -2 OFFCURVE",
"1440 1 CURVE SMOOTH",
"1719 9 OFFCURVE",
"1942 78 OFFCURVE",
"2111 207 CURVE SMOOTH",
"2304 354 OFFCURVE",
"2400 563 OFFCURVE",
"2400 836 CURVE SMOOTH"
);
},
{
closed = 1;
nodes = (
"2102 602 OFFCURVE",
"2035 417 OFFCURVE",
"1894 280 CURVE SMOOTH",
"1761 149 OFFCURVE",
"1585 84 OFFCURVE",
"1368 84 CURVE SMOOTH",
"1200 84 OFFCURVE",
"1096 88 OFFCURVE",
"1055 97 CURVE SMOOTH",
"956 118 OFFCURVE",
"902 171 OFFCURVE",
"892 256 CURVE SMOOTH",
"871 440 OFFCURVE",
"860 700 OFFCURVE",
"860 1036 CURVE SMOOTH",
"860 1612 LINE SMOOTH",
"860 1969 OFFCURVE",
"869 2235 OFFCURVE",
"888 2411 CURVE SMOOTH",
"894 2468 OFFCURVE",
"936 2505 OFFCURVE",
"1014 2521 CURVE SMOOTH",
"1053 2528 OFFCURVE",
"1136 2532 OFFCURVE",
"1263 2532 CURVE SMOOTH",
"1426 2532 OFFCURVE",
"1557 2484 OFFCURVE",
"1658 2387 CURVE SMOOTH",
"1753 2296 OFFCURVE",
"1800 2186 OFFCURVE",
"1800 2055 CURVE SMOOTH",
"1800 1960 OFFCURVE",
"1773 1870 OFFCURVE",
"1719 1785 CURVE SMOOTH",
"1680 1722 OFFCURVE",
"1615 1667 OFFCURVE",
"1524 1619 CURVE SMOOTH",
"1429 1569 OFFCURVE",
"1335 1544 OFFCURVE",
"1244 1544 CURVE SMOOTH",
"1172 1544 LINE",
"1116 1456 LINE",
"1448 1456 LINE SMOOTH",
"1638 1456 OFFCURVE",
"1791 1402 OFFCURVE",
"1908 1293 CURVE SMOOTH",
"2029 1182 OFFCURVE",
"2091 1029 OFFCURVE",
"2096 835 CURVE SMOOTH"
);
}
);
};
layerId = "274E8830-0A80-4149-8BE8-CF3C4CCD3F6F";
paths = (
{
closed = 1;
nodes = (
"1544 -57 OFFCURVE",
"1635 -31 OFFCURVE",
"1716 22 CURVE SMOOTH",
"1726 29 OFFCURVE",
"1778 73 OFFCURVE",
"1871 154 CURVE SMOOTH",
"2146 394 LINE SMOOTH",
"2234 471 OFFCURVE",
"2278 577 OFFCURVE",
"2278 711 CURVE SMOOTH",
"2278 1137 OFFCURVE",
"1856 1356 OFFCURVE",
"1385 1497 CURVE SMOOTH",
"1318 1518 OFFCURVE",
"1284 1547 OFFCURVE",
"1284 1585 CURVE SMOOTH",
"1284 1668 OFFCURVE",
"2038 2143 OFFCURVE",
"2038 2400 CURVE SMOOTH",
"2038 2671 OFFCURVE",
"1519 2699 OFFCURVE",
"1263 2699 CURVE SMOOTH",
"1197 2699 OFFCURVE",
"1139 2697 OFFCURVE",
"1076 2692 CURVE SMOOTH",
"816 2674 OFFCURVE",
"651 2606 OFFCURVE",
"581 2488 CURVE SMOOTH",
"526 2396 OFFCURVE",
"513 2358 OFFCURVE",
"513 2215 CURVE SMOOTH",
"513 2075 OFFCURVE",
"526 1834 OFFCURVE",
"526 1343 CURVE SMOOTH",
"526 297 OFFCURVE",
"445 73 OFFCURVE",
"132 73 CURVE SMOOTH",
"108 73 OFFCURVE",
"110 41 OFFCURVE",
"92 -10 CURVE",
"196 -1 OFFCURVE",
"384 -4 OFFCURVE",
"495 0 CURVE SMOOTH",
"599 4 OFFCURVE",
"717 -4 OFFCURVE",
"757 29 CURVE SMOOTH",
"789 55 OFFCURVE",
"796 106 OFFCURVE",
"796 161 CURVE SMOOTH",
"796 200 OFFCURVE",
"793 241 OFFCURVE",
"793 278 CURVE SMOOTH",
"802 942 LINE SMOOTH",
"809 1459 OFFCURVE",
"821 1925 OFFCURVE",
"844 2260 CURVE SMOOTH",
"852 2378 OFFCURVE",
"893 2470 OFFCURVE",
"968 2536 CURVE SMOOTH",
"1034 2595 OFFCURVE",
"1115 2625 OFFCURVE",
"1213 2625 CURVE SMOOTH",
"1339 2625 OFFCURVE",
"1448 2592 OFFCURVE",
"1539 2526 CURVE SMOOTH",
"1638 2453 OFFCURVE",
"1688 2359 OFFCURVE",
"1688 2241 CURVE SMOOTH",
"1688 2051 OFFCURVE",
"1313 1780 OFFCURVE",
"1140 1624 CURVE SMOOTH",
"1091 1580 OFFCURVE",
"1067 1534 OFFCURVE",
"1067 1485 CURVE SMOOTH",
"1067 1430 OFFCURVE",
"1101 1382 OFFCURVE",
"1169 1343 CURVE",
"1454 1196 OFFCURVE",
"1730 1116 OFFCURVE",
"1846 969 CURVE SMOOTH",
"1922 872 OFFCURVE",
"1961 749 OFFCURVE",
"1961 597 CURVE SMOOTH",
"1961 409 OFFCURVE",
"1888 265 OFFCURVE",
"1741 163 CURVE SMOOTH",
"1676 118 OFFCURVE",
"1603 96 OFFCURVE",
"1524 96 CURVE SMOOTH",
"1353 96 OFFCURVE",
"1184 185 OFFCURVE",
"1015 362 CURVE",
"1008 371 OFFCURVE",
"1001 375 OFFCURVE",
"994 375 CURVE SMOOTH",
"976 375 OFFCURVE",
"967 349 OFFCURVE",
"967 296 CURVE SMOOTH",
"967 180 OFFCURVE",
"995 100 OFFCURVE",
"1051 57 CURVE SMOOTH",
"1132 -4 OFFCURVE",
"1242 -42 OFFCURVE",
"1381 -55 CURVE SMOOTH",
"1402 -56 OFFCURVE",
"1422 -57 OFFCURVE",
"1441 -57 CURVE",
"1441 -57 LINE"
);
}
);
width = 2369;
}
);
unicode = 1E9E;
},
{
glyphname = Schwa;
lastChange = "2021-08-12 00:41:17 +0000";
layers = (
{
layerId = "274E8830-0A80-4149-8BE8-CF3C4CCD3F6F";
paths = (
{
closed = 1;
nodes = (
"1601 0 OFFCURVE",
"1974 183 OFFCURVE",
"2159 546 CURVE SMOOTH",
"2272 771 OFFCURVE",
"2329 1061 OFFCURVE",
"2329 1416 CURVE SMOOTH",
"2329 1454 LINE SMOOTH",
"2323 1875 OFFCURVE",
"2253 2181 OFFCURVE",
"2118 2372 CURVE SMOOTH",
"1956 2598 OFFCURVE",
"1677 2711 OFFCURVE",
"1281 2711 CURVE SMOOTH",
"697 2713 OFFCURVE",
"326 2637 OFFCURVE",
"169 2485 CURVE SMOOTH",
"127 2446 OFFCURVE",
"104 2409 OFFCURVE",
"97 2375 CURVE",
"98 2263 OFFCURVE",
"102 2172 OFFCURVE",
"111 2100 CURVE",
"104 1922 OFFCURVE",
"97 1798 OFFCURVE",
"91 1726 CURVE",
"209 1781 LINE",
"207 1800 OFFCURVE",
"210 1824 OFFCURVE",
"216 1853 CURVE SMOOTH",
"305 2313 OFFCURVE",
"602 2577 OFFCURVE",
"1116 2577 CURVE SMOOTH",
"1148 2577 LINE SMOOTH",
"1495 2568 OFFCURVE",
"1788 2423 OFFCURVE",
"1902 2140 CURVE SMOOTH",
"1963 1983 OFFCURVE",
"1980 1746 OFFCURVE",
"1980 1419 CURVE SMOOTH",
"1980 1363 OFFCURVE",
"1980 1303 OFFCURVE",
"1979 1241 CURVE",
"1781 1223 OFFCURVE",
"1536 1214 OFFCURVE",
"1185 1214 CURVE SMOOTH",
"1141 1214 OFFCURVE",
"1005 1209 OFFCURVE",
"776 1201 CURVE SMOOTH",
"739 1200 OFFCURVE",
"703 1199 OFFCURVE",
"667 1199 CURVE SMOOTH",
"576 1199 OFFCURVE",
"488 1204 OFFCURVE",
"406 1215 CURVE SMOOTH",
"383 1218 OFFCURVE",
"326 1157 OFFCURVE",
"236 1033 CURVE SMOOTH",
"162 932 OFFCURVE",
"109 863 OFFCURVE",
"79 823 CURVE",
"76 570 OFFCURVE",
"152 373 OFFCURVE",
"307 231 CURVE SMOOTH",
"474 78 OFFCURVE",
"718 0 OFFCURVE",
"1041 0 CURVE",
"1041 0 LINE"
);
},
{
closed = 1;
nodes = (
"774 129 OFFCURVE",
"536 319 OFFCURVE",
"443 628 CURVE SMOOTH",
"423 696 OFFCURVE",
"414 755 OFFCURVE",
"414 809 CURVE SMOOTH",
"414 918 OFFCURVE",
"471 1009 OFFCURVE",
"545 1020 CURVE SMOOTH",
"688 1041 OFFCURVE",
"913 1055 OFFCURVE",
"1220 1063 CURVE SMOOTH",
"1330 1066 OFFCURVE",
"1427 1067 OFFCURVE",
"1512 1067 CURVE SMOOTH",
"1739 1067 OFFCURVE",
"1882 1058 OFFCURVE",
"1965 1041 CURVE",
"1958 957 OFFCURVE",
"1954 873 OFFCURVE",
"1950 847 CURVE SMOOTH",
"1883 391 OFFCURVE",
"1563 129 OFFCURVE",
"1112 129 CURVE",
"1112 129 LINE"
);
}
);
width = 2409;
}
);
unicode = 018F;
},
{
glyphname = T;
lastChange = "2021-08-12 00:41:17 +0000";
layers = (
{
anchors = (
{
name = bottom;
position = "{1149, 51}";
},
{
name = center;
position = "{1221, 1341}";
},
{
name = top;
position = "{1187, 2642}";
}
);
layerId = "274E8830-0A80-4149-8BE8-CF3C4CCD3F6F";
paths = (
{
closed = 1;
nodes = (
"522 -10 LINE",
"852 15 OFFCURVE",
"1071 28 OFFCURVE",
"1180 29 CURVE SMOOTH",
"1239 29 LINE SMOOTH",
"1511 29 OFFCURVE",
"1694 16 OFFCURVE",
"1789 -10 CURVE",
"1834 78 LINE",
"1807 75 OFFCURVE",
"1781 74 OFFCURVE",
"1754 74 CURVE SMOOTH",
"1691 74 OFFCURVE",
"1628 82 OFFCURVE",
"1565 99 CURVE SMOOTH",
"1452 130 OFFCURVE",
"1389 181 OFFCURVE",
"1376 254 CURVE",
"1357 418 OFFCURVE",
"1347 698 OFFCURVE",
"1347 1095 CURVE SMOOTH",
"1347 1629 LINE SMOOTH",
"1347 2118 OFFCURVE",
"1358 2393 OFFCURVE",
"1380 2455 CURVE SMOOTH",
"1397 2502 OFFCURVE",
"1439 2526 OFFCURVE",
"1508 2526 CURVE SMOOTH",
"1917 2526 OFFCURVE",
"2140 2490 OFFCURVE",
"2177 2417 CURVE SMOOTH",
"2196 2379 OFFCURVE",
"2206 2331 OFFCURVE",
"2206 2273 CURVE SMOOTH",
"2206 2210 OFFCURVE",
"2194 2134 OFFCURVE",
"2172 2046 CURVE",
"2245 2020 LINE",
"2245 2062 OFFCURVE",
"2260 2158 OFFCURVE",
"2291 2308 CURVE SMOOTH",
"2324 2466 OFFCURVE",
"2356 2590 OFFCURVE",
"2386 2681 CURVE",
"2029 2655 OFFCURVE",
"1630 2642 OFFCURVE",
"1187 2642 CURVE SMOOTH",
"836 2642 OFFCURVE",
"486 2655 OFFCURVE",
"135 2681 CURVE",
"104 2435 OFFCURVE",
"75 2226 OFFCURVE",
"50 2055 CURVE",
"126 2024 LINE",
"140 2183 OFFCURVE",
"180 2315 OFFCURVE",
"245 2420 CURVE SMOOTH",
"289 2491 OFFCURVE",
"496 2526 OFFCURVE",
"865 2526 CURVE SMOOTH",
"944 2526 OFFCURVE",
"989 2505 OFFCURVE",
"999 2464 CURVE SMOOTH",
"1006 2439 OFFCURVE",
"1014 2317 OFFCURVE",
"1023 2100 CURVE SMOOTH",
"1033 1888 OFFCURVE",
"1038 1731 OFFCURVE",
"1038 1629 CURVE SMOOTH",
"1038 1066 LINE SMOOTH",
"1038 722 OFFCURVE",
"1027 453 OFFCURVE",
"1005 258 CURVE",
"974 129 OFFCURVE",
"849 65 OFFCURVE",
"629 65 CURVE SMOOTH",
"602 65 OFFCURVE",
"579 67 OFFCURVE",
"561 70 CURVE",
"522 -10 LINE"
);
}
);
width = 2436;
}
);
leftKerningGroup = T;
note = T;
rightKerningGroup = T;
unicode = 0054;
},
{
glyphname = U;
lastChange = "2021-08-12 00:41:17 +0000";
layers = (
{
anchors = (
{
name = bottom;
position = "{1641, 0}";
},
{
name = ogonek;
position = "{2056, 10}";
},
{
name = top;
position = "{1641, 2681}";
},
{
name = topright;
position = "{2839, 2681}";
}
);
layerId = "274E8830-0A80-4149-8BE8-CF3C4CCD3F6F";
paths = (
{
closed = 1;
nodes = (
"1968 -79 OFFCURVE",
"2226 -1 OFFCURVE",
"2426 154 CURVE SMOOTH",
"2681 353 OFFCURVE",
"2809 660 OFFCURVE",
"2809 1076 CURVE SMOOTH",
"2809 1902 LINE SMOOTH",
"2809 2223 OFFCURVE",
"2830 2427 OFFCURVE",
"2873 2514 CURVE",
"2928 2580 OFFCURVE",
"3007 2612 OFFCURVE",
"3112 2612 CURVE SMOOTH",
"3134 2612 OFFCURVE",
"3156 2611 OFFCURVE",
"3180 2608 CURVE",
"3236 2681 LINE",
"3065 2662 OFFCURVE",
"2874 2648 OFFCURVE",
"2665 2639 CURVE",
"2419 2652 OFFCURVE",
"2247 2664 OFFCURVE",
"2148 2675 CURVE",
"2111 2596 LINE",
"2146 2604 OFFCURVE",
"2186 2608 OFFCURVE",
"2230 2608 CURVE SMOOTH",
"2254 2608 OFFCURVE",
"2280 2606 OFFCURVE",
"2307 2604 CURVE SMOOTH",
"2394 2597 OFFCURVE",
"2456 2578 OFFCURVE",
"2491 2549 CURVE",
"2576 2453 OFFCURVE",
"2617 2155 OFFCURVE",
"2618 1654 CURVE SMOOTH",
"2619 1012 LINE SMOOTH",
"2619 710 OFFCURVE",
"2539 476 OFFCURVE",
"2380 309 CURVE SMOOTH",
"2212 134 OFFCURVE",
"1968 46 OFFCURVE",
"1648 46 CURVE SMOOTH",
"1071 46 OFFCURVE",
"783 359 OFFCURVE",
"783 986 CURVE SMOOTH",
"782 1393 OFFCURVE",
"782 1591 OFFCURVE",
"781 1579 CURVE",
"781 1612 LINE SMOOTH",
"781 2119 OFFCURVE",
"804 2419 OFFCURVE",
"850 2514 CURVE",
"905 2580 OFFCURVE",
"984 2612 OFFCURVE",
"1089 2612 CURVE SMOOTH",
"1111 2612 OFFCURVE",
"1133 2611 OFFCURVE",
"1157 2608 CURVE",
"1213 2681 LINE",
"1042 2662 OFFCURVE",
"851 2648 OFFCURVE",
"642 2639 CURVE",
"371 2653 OFFCURVE",
"192 2665 OFFCURVE",
"105 2675 CURVE",
"68 2596 LINE",
"118 2607 OFFCURVE",
"165 2613 OFFCURVE",
"207 2613 CURVE SMOOTH",
"289 2613 OFFCURVE",
"356 2591 OFFCURVE",
"407 2549 CURVE",
"464 2484 OFFCURVE",
"493 2153 OFFCURVE",
"493 1556 CURVE SMOOTH",
"493 888 LINE SMOOTH",
"493 540 OFFCURVE",
"596 288 OFFCURVE",
"801 133 CURVE SMOOTH",
"987 -8 OFFCURVE",
"1271 -79 OFFCURVE",
"1653 -79 CURVE",
"1653 -79 LINE"
);
}
);
width = 3304;
}
);
leftKerningGroup = U;
note = U;
rightKerningGroup = U;
unicode = 0055;
},
{
color = 6;
glyphname = Uhorn;
lastChange = "2021-08-12 00:41:17 +0000";
layers = (
{
anchors = (
{
name = bottom;
position = "{1647, 0}";
},
{
name = ogonek;
position = "{2965, 10}";
},
{
name = top;
position = "{1647, 2681}";
},
{
name = topright;
position = "{2845, 2681}";
}
);
layerId = "274E8830-0A80-4149-8BE8-CF3C4CCD3F6F";
paths = (
{
closed = 1;
nodes = (
"1974 -79 OFFCURVE",
"2232 -1 OFFCURVE",
"2432 154 CURVE SMOOTH",
"2687 353 OFFCURVE",
"2815 660 OFFCURVE",
"2815 1076 CURVE SMOOTH",
"2815 1902 LINE SMOOTH",
"2815 2223 OFFCURVE",
"2836 2427 OFFCURVE",
"2879 2514 CURVE",
"2936 2582 OFFCURVE",
"2980 2625 OFFCURVE",
"3081 2625 CURVE SMOOTH",
"3097 2625 OFFCURVE",
"3114 2624 OFFCURVE",
"3133 2622 CURVE",
"3185 2681 LINE",
"3014 2662 OFFCURVE",
"2880 2648 OFFCURVE",
"2671 2639 CURVE",
"2425 2652 OFFCURVE",
"2253 2664 OFFCURVE",
"2154 2675 CURVE",
"2117 2596 LINE",
"2152 2604 OFFCURVE",
"2192 2608 OFFCURVE",
"2236 2608 CURVE SMOOTH",
"2260 2608 OFFCURVE",
"2286 2606 OFFCURVE",
"2313 2604 CURVE SMOOTH",
"2400 2597 OFFCURVE",
"2462 2578 OFFCURVE",
"2497 2549 CURVE",
"2582 2453 OFFCURVE",
"2623 2155 OFFCURVE",
"2624 1654 CURVE SMOOTH",
"2625 1012 LINE SMOOTH",
"2625 710 OFFCURVE",
"2545 476 OFFCURVE",
"2386 309 CURVE SMOOTH",
"2218 134 OFFCURVE",
"1974 46 OFFCURVE",
"1654 46 CURVE SMOOTH",
"1077 46 OFFCURVE",
"789 359 OFFCURVE",
"789 986 CURVE SMOOTH",
"788 1393 OFFCURVE",
"788 1591 OFFCURVE",
"787 1579 CURVE",
"787 1612 LINE SMOOTH",
"787 2119 OFFCURVE",
"810 2419 OFFCURVE",
"856 2514 CURVE",
"911 2580 OFFCURVE",
"990 2612 OFFCURVE",
"1095 2612 CURVE SMOOTH",
"1117 2612 OFFCURVE",
"1139 2611 OFFCURVE",
"1163 2608 CURVE",
"1219 2681 LINE",
"1048 2662 OFFCURVE",
"857 2648 OFFCURVE",
"648 2639 CURVE",
"377 2653 OFFCURVE",
"198 2665 OFFCURVE",
"111 2675 CURVE",
"74 2596 LINE",
"124 2607 OFFCURVE",
"171 2613 OFFCURVE",
"213 2613 CURVE SMOOTH",
"295 2613 OFFCURVE",
"362 2591 OFFCURVE",
"413 2549 CURVE",
"470 2484 OFFCURVE",
"499 2153 OFFCURVE",
"499 1556 CURVE SMOOTH",
"499 888 LINE SMOOTH",
"499 540 OFFCURVE",
"602 288 OFFCURVE",
"807 133 CURVE SMOOTH",
"993 -8 OFFCURVE",
"1277 -79 OFFCURVE",
"1659 -79 CURVE",
"1659 -79 LINE"
);
},
{
closed = 1;
nodes = (
"3123 2559 OFFCURVE",
"3245 2658 OFFCURVE",
"3245 2856 CURVE SMOOTH",
"3245 2937 OFFCURVE",
"3219 3038 OFFCURVE",
"3213 3063 CURVE",
"2993 2936 LINE",
"3007 2872 OFFCURVE",
"3018 2798 OFFCURVE",
"3018 2785 CURVE SMOOTH",
"3018 2705 OFFCURVE",
"2917 2632 OFFCURVE",
"2701 2632 CURVE",
"2684 2571 LINE",
"2748 2563 OFFCURVE",
"2807 2559 OFFCURVE",
"2859 2559 CURVE",
"2859 2559 LINE"
);
}
);
width = 3294;
}
);
leftKerningGroup = U;
rightKerningGroup = Uhorn;
unicode = 01AF;
},
{
glyphname = V;
lastChange = "2021-08-12 00:41:17 +0000";
layers = (
{
layerId = "274E8830-0A80-4149-8BE8-CF3C4CCD3F6F";
paths = (
{
closed = 1;
nodes = (
"1472 -111 LINE",
"1526 154 OFFCURVE",
"1694 623 OFFCURVE",
"1975 1296 CURVE SMOOTH",
"2282 2032 OFFCURVE",
"2504 2441 OFFCURVE",
"2641 2522 CURVE SMOOTH",
"2728 2574 OFFCURVE",
"2815 2600 OFFCURVE",
"2903 2601 CURVE",
"2947 2675 LINE",
"2794 2660 OFFCURVE",
"2677 2653 OFFCURVE",
"2598 2653 CURVE SMOOTH",
"2439 2647 OFFCURVE",
"2372 2644 OFFCURVE",
"2398 2644 CURVE SMOOTH",
"2414 2644 OFFCURVE",
"2347 2647 OFFCURVE",
"2197 2654 CURVE SMOOTH",
"2040 2661 OFFCURVE",
"1944 2667 OFFCURVE",
"1909 2674 CURVE",
"1851 2587 LINE",
"1882 2592 OFFCURVE",
"1915 2595 OFFCURVE",
"1952 2595 CURVE SMOOTH",
"2119 2595 OFFCURVE",
"2203 2546 OFFCURVE",
"2203 2449 CURVE SMOOTH",
"2203 2343 OFFCURVE",
"2100 2009 OFFCURVE",
"1894 1447 CURVE SMOOTH",
"1706 934 OFFCURVE",
"1569 590 OFFCURVE",
"1484 416 CURVE SMOOTH",
"1471 391 OFFCURVE",
"1460 378 OFFCURVE",
"1451 378 CURVE SMOOTH",
"1441 378 OFFCURVE",
"1430 393 OFFCURVE",
"1417 424 CURVE SMOOTH",
"1308 706 OFFCURVE",
"1229 918 OFFCURVE",
"1178 1061 CURVE SMOOTH",
"894 1808 OFFCURVE",
"752 2273 OFFCURVE",
"752 2456 CURVE SMOOTH",
"752 2505 OFFCURVE",
"788 2541 OFFCURVE",
"859 2566 CURVE SMOOTH",
"910 2585 OFFCURVE",
"966 2594 OFFCURVE",
"1025 2594 CURVE SMOOTH",
"1041 2594 OFFCURVE",
"1055 2593 OFFCURVE",
"1066 2592 CURVE",
"1121 2680 LINE",
"902 2655 OFFCURVE",
"711 2643 OFFCURVE",
"550 2643 CURVE SMOOTH",
"552 2643 OFFCURVE",
"478 2647 OFFCURVE",
"328 2654 CURVE SMOOTH",
"165 2662 OFFCURVE",
"60 2669 OFFCURVE",
"13 2674 CURVE",
"-24 2595 LINE",
"0 2600 OFFCURVE",
"30 2602 OFFCURVE",
"67 2602 CURVE SMOOTH",
"183 2602 OFFCURVE",
"267 2580 OFFCURVE",
"320 2537 CURVE SMOOTH",
"355 2508 OFFCURVE",
"451 2279 OFFCURVE",
"607 1851 CURVE SMOOTH",
"885 1065 LINE SMOOTH",
"971 828 OFFCURVE",
"1040 633 OFFCURVE",
"1091 480 CURVE SMOOTH",
"1130 359 OFFCURVE",
"1158 267 OFFCURVE",
"1177 206 CURVE SMOOTH",
"1193 162 OFFCURVE",
"1234 104 OFFCURVE",
"1300 32 CURVE SMOOTH",
"1373 -47 OFFCURVE",
"1418 -102 OFFCURVE",
"1434 -132 CURVE",
"1434 -132 LINE"
);
}
);
width = 2893;
}
);
leftKerningGroup = V;
note = V;
rightKerningGroup = V;
unicode = 0056;
},
{
glyphname = W;
lastChange = "2021-08-12 00:41:17 +0000";
layers = (
{
anchors = (
{
name = bottom;
position = "{2014, 0}";
},
{
name = top;
position = "{2014, 2681}";
}
);
layerId = "274E8830-0A80-4149-8BE8-CF3C4CCD3F6F";
paths = (
{
closed = 1;
nodes = (
"1459 -111 LINE",
"1504 109 OFFCURVE",
"1662 562 OFFCURVE",
"1933 1247 CURVE",
"1998 1065 LINE SMOOTH",
"2083 827 OFFCURVE",
"2152 632 OFFCURVE",
"2203 480 CURVE SMOOTH",
"2242 359 OFFCURVE",
"2271 267 OFFCURVE",
"2290 206 CURVE SMOOTH",
"2306 162 OFFCURVE",
"2347 104 OFFCURVE",
"2413 32 CURVE SMOOTH",
"2486 -47 OFFCURVE",
"2530 -102 OFFCURVE",
"2546 -132 CURVE",
"2584 -111 LINE",
"2638 154 OFFCURVE",
"2806 623 OFFCURVE",
"3087 1296 CURVE SMOOTH",
"3394 2032 OFFCURVE",
"3616 2441 OFFCURVE",
"3753 2522 CURVE SMOOTH",
"3840 2574 OFFCURVE",
"3928 2600 OFFCURVE",
"4016 2601 CURVE",
"4059 2675 LINE",
"3906 2660 OFFCURVE",
"3789 2653 OFFCURVE",
"3710 2653 CURVE SMOOTH",
"3551 2647 OFFCURVE",
"3485 2644 OFFCURVE",
"3511 2644 CURVE SMOOTH",
"3527 2644 OFFCURVE",
"3460 2647 OFFCURVE",
"3309 2654 CURVE SMOOTH",
"3152 2661 OFFCURVE",
"3056 2667 OFFCURVE",
"3021 2674 CURVE",
"2963 2587 LINE",
"2994 2592 OFFCURVE",
"3028 2595 OFFCURVE",
"3065 2595 CURVE SMOOTH",
"3232 2595 OFFCURVE",
"3316 2546 OFFCURVE",
"3316 2449 CURVE SMOOTH",
"3316 2343 OFFCURVE",
"3213 2009 OFFCURVE",
"3007 1448 CURVE SMOOTH",
"2818 934 OFFCURVE",
"2681 590 OFFCURVE",
"2596 416 CURVE SMOOTH",
"2584 391 OFFCURVE",
"2573 378 OFFCURVE",
"2564 378 CURVE SMOOTH",
"2554 378 OFFCURVE",
"2542 393 OFFCURVE",
"2529 424 CURVE SMOOTH",
"2420 706 OFFCURVE",
"2341 918 OFFCURVE",
"2291 1061 CURVE SMOOTH",
"2246 1178 OFFCURVE",
"2181 1373 OFFCURVE",
"2096 1646 CURVE",
"2323 2189 OFFCURVE",
"2471 2481 OFFCURVE",
"2539 2522 CURVE SMOOTH",
"2600 2559 OFFCURVE",
"2644 2577 OFFCURVE",
"2670 2577 CURVE",
"2713 2651 LINE",
"2664 2647 OFFCURVE",
"2618 2644 OFFCURVE",
"2575 2644 CURVE SMOOTH",
"2540 2644 OFFCURVE",
"2507 2646 OFFCURVE",
"2475 2649 CURVE SMOOTH",
"2427 2654 OFFCURVE",
"2388 2656 OFFCURVE",
"2357 2656 CURVE SMOOTH",
"2299 2656 OFFCURVE",
"2270 2648 OFFCURVE",
"2270 2633 CURVE SMOOTH",
"2270 2548 OFFCURVE",
"2191 2286 OFFCURVE",
"2034 1846 CURVE",
"1913 2242 OFFCURVE",
"1845 2498 OFFCURVE",
"1830 2615 CURVE SMOOTH",
"1827 2638 OFFCURVE",
"1771 2651 OFFCURVE",
"1660 2654 CURVE SMOOTH",
"1399 2654 LINE SMOOTH",
"1339 2654 OFFCURVE",
"1302 2652 OFFCURVE",
"1290 2650 CURVE",
"1253 2571 LINE",
"1274 2575 OFFCURVE",
"1294 2577 OFFCURVE",
"1313 2577 CURVE SMOOTH",
"1359 2577 OFFCURVE",
"1399 2564 OFFCURVE",
"1432 2537 CURVE SMOOTH",
"1478 2500 OFFCURVE",
"1626 2126 OFFCURVE",
"1875 1415 CURVE",
"1681 904 OFFCURVE",
"1546 571 OFFCURVE",
"1471 416 CURVE SMOOTH",
"1458 391 OFFCURVE",
"1447 378 OFFCURVE",
"1438 378 CURVE SMOOTH",
"1428 378 OFFCURVE",
"1417 393 OFFCURVE",
"1404 424 CURVE SMOOTH",
"1295 706 OFFCURVE",
"1216 918 OFFCURVE",
"1165 1061 CURVE SMOOTH",
"881 1808 OFFCURVE",
"739 2273 OFFCURVE",
"739 2456 CURVE SMOOTH",
"739 2505 OFFCURVE",
"775 2541 OFFCURVE",
"846 2566 CURVE SMOOTH",
"897 2585 OFFCURVE",
"953 2594 OFFCURVE",
"1012 2594 CURVE SMOOTH",
"1028 2594 OFFCURVE",
"1042 2593 OFFCURVE",
"1053 2592 CURVE",
"1108 2680 LINE",
"889 2655 OFFCURVE",
"698 2643 OFFCURVE",
"537 2643 CURVE SMOOTH",
"539 2643 OFFCURVE",
"465 2647 OFFCURVE",
"315 2654 CURVE SMOOTH",
"152 2662 OFFCURVE",
"47 2669 OFFCURVE",
"0 2674 CURVE",
"-37 2595 LINE",
"-13 2600 OFFCURVE",
"17 2602 OFFCURVE",
"54 2602 CURVE SMOOTH",
"170 2602 OFFCURVE",
"254 2580 OFFCURVE",
"307 2537 CURVE SMOOTH",
"342 2508 OFFCURVE",
"438 2279 OFFCURVE",
"594 1851 CURVE SMOOTH",
"872 1065 LINE SMOOTH",
"958 827 OFFCURVE",
"1027 632 OFFCURVE",
"1078 480 CURVE SMOOTH",
"1117 359 OFFCURVE",
"1145 267 OFFCURVE",
"1164 206 CURVE SMOOTH",
"1180 162 OFFCURVE",
"1221 104 OFFCURVE",
"1287 32 CURVE SMOOTH",
"1360 -47 OFFCURVE",
"1405 -102 OFFCURVE",
"1421 -132 CURVE",
"1421 -132 LINE"
);
}
);
width = 3974;
}
);
leftKerningGroup = V;
note = W;
rightKerningGroup = V;
unicode = 0057;
},
{
glyphname = X;
lastChange = "2021-08-12 00:41:17 +0000";
layers = (
{
layerId = "274E8830-0A80-4149-8BE8-CF3C4CCD3F6F";
paths = (
{
closed = 1;
nodes = (
"2847 76 LINE",
"2568 89 OFFCURVE",
"2393 138 OFFCURVE",
"2323 221 CURVE SMOOTH",
"2136 442 OFFCURVE",
"1852 845 OFFCURVE",
"1470 1430 CURVE",
"1801 1928 OFFCURVE",
"2040 2269 OFFCURVE",
"2188 2452 CURVE SMOOTH",
"2234 2509 OFFCURVE",
"2315 2548 OFFCURVE",
"2432 2570 CURVE",
"2662 2598 LINE",
"2708 2674 LINE",
"2333 2658 OFFCURVE",
"2139 2650 OFFCURVE",
"2125 2650 CURVE SMOOTH",
"2082 2650 OFFCURVE",
"1983 2654 OFFCURVE",
"1828 2662 CURVE SMOOTH",
"1673 2670 OFFCURVE",
"1586 2674 OFFCURVE",
"1568 2674 CURVE",
"1526 2598 LINE",
"1804 2598 OFFCURVE",
"1942 2553 OFFCURVE",
"1941 2464 CURVE",
"1882 2334 OFFCURVE",
"1699 2029 OFFCURVE",
"1394 1548 CURVE",
"1081 2033 OFFCURVE",
"909 2335 OFFCURVE",
"877 2456 CURVE SMOOTH",
"875 2463 OFFCURVE",
"874 2471 OFFCURVE",
"874 2478 CURVE SMOOTH",
"874 2555 OFFCURVE",
"954 2594 OFFCURVE",
"1114 2594 CURVE SMOOTH",
"1130 2594 OFFCURVE",
"1144 2593 OFFCURVE",
"1155 2592 CURVE",
"1187 2680 LINE",
"974 2655 OFFCURVE",
"780 2643 OFFCURVE",
"605 2643 CURVE SMOOTH",
"593 2643 OFFCURVE",
"511 2647 OFFCURVE",
"360 2654 CURVE SMOOTH",
"195 2662 OFFCURVE",
"88 2669 OFFCURVE",
"39 2674 CURVE",
"23 2595 LINE",
"15 2593 OFFCURVE",
"48 2592 OFFCURVE",
"122 2592 CURVE SMOOTH",
"241 2592 OFFCURVE",
"328 2574 OFFCURVE",
"382 2537 CURVE SMOOTH",
"445 2494 OFFCURVE",
"732 2086 OFFCURVE",
"1243 1313 CURVE",
"928 824 OFFCURVE",
"696 481 OFFCURVE",
"549 284 CURVE SMOOTH",
"443 141 OFFCURVE",
"236 69 OFFCURVE",
"-72 69 CURVE",
"-104 -10 LINE",
"79 9 OFFCURVE",
"240 19 OFFCURVE",
"381 19 CURVE SMOOTH",
"662 19 OFFCURVE",
"877 11 OFFCURVE",
"1026 -6 CURVE",
"1072 82 LINE",
"1061 81 OFFCURVE",
"1030 80 OFFCURVE",
"980 80 CURVE SMOOTH",
"827 80 OFFCURVE",
"750 118 OFFCURVE",
"750 194 CURVE SMOOTH",
"750 202 OFFCURVE",
"751 210 OFFCURVE",
"753 218 CURVE SMOOTH",
"786 343 OFFCURVE",
"975 670 OFFCURVE",
"1318 1199 CURVE",
"1611 753 OFFCURVE",
"1803 445 OFFCURVE",
"1894 274 CURVE SMOOTH",
"1909 245 OFFCURVE",
"1917 220 OFFCURVE",
"1917 197 CURVE SMOOTH",
"1917 116 OFFCURVE",
"1831 76 OFFCURVE",
"1660 76 CURVE",
"1623 -6 LINE",
"1747 8 OFFCURVE",
"1945 18 OFFCURVE",
"2217 24 CURVE SMOOTH",
"2268 24 LINE SMOOTH",
"2424 24 OFFCURVE",
"2603 12 OFFCURVE",
"2805 -14 CURVE",
"2805 -14 LINE"
);
}
);
width = 2743;
}
);
leftKerningGroup = X;
note = X;
rightKerningGroup = X;
unicode = 0058;
},
{
glyphname = Y;
lastChange = "2021-08-12 00:41:17 +0000";
layers = (
{
anchors = (
{
name = bottom;
position = "{1232, 0}";
},
{
name = top;
position = "{1232, 2681}";
},
{
name = topleft;
position = "{-156, 2681}";
}
);
layerId = "274E8830-0A80-4149-8BE8-CF3C4CCD3F6F";
paths = (
{
closed = 1;
nodes = (
"504 -10 LINE",
"834 15 OFFCURVE",
"1053 28 OFFCURVE",
"1162 29 CURVE SMOOTH",
"1222 29 LINE SMOOTH",
"1494 29 OFFCURVE",
"1677 16 OFFCURVE",
"1771 -10 CURVE",
"1816 78 LINE",
"1788 75 OFFCURVE",
"1761 74 OFFCURVE",
"1734 74 CURVE SMOOTH",
"1669 74 OFFCURVE",
"1605 82 OFFCURVE",
"1541 98 CURVE SMOOTH",
"1422 128 OFFCURVE",
"1359 180 OFFCURVE",
"1350 254 CURVE SMOOTH",
"1332 410 OFFCURVE",
"1323 555 OFFCURVE",
"1323 690 CURVE SMOOTH",
"1323 1016 OFFCURVE",
"1375 1275 OFFCURVE",
"1480 1467 CURVE SMOOTH",
"1729 1921 OFFCURVE",
"1939 2246 OFFCURVE",
"2110 2442 CURVE SMOOTH",
"2190 2534 OFFCURVE",
"2311 2580 OFFCURVE",
"2473 2580 CURVE SMOOTH",
"2497 2580 OFFCURVE",
"2523 2579 OFFCURVE",
"2549 2577 CURVE",
"2592 2664 LINE",
"2245 2648 OFFCURVE",
"2064 2640 OFFCURVE",
"2051 2640 CURVE SMOOTH",
"1994 2640 OFFCURVE",
"1961 2634 OFFCURVE",
"1951 2623 CURVE SMOOTH",
"1896 2561 OFFCURVE",
"1791 2391 OFFCURVE",
"1637 2113 CURVE SMOOTH",
"1478 1824 OFFCURVE",
"1348 1568 OFFCURVE",
"1247 1343 CURVE",
"1158 1574 OFFCURVE",
"1035 1847 OFFCURVE",
"877 2164 CURVE SMOOTH",
"718 2485 OFFCURVE",
"624 2646 OFFCURVE",
"597 2646 CURVE SMOOTH",
"466 2646 OFFCURVE",
"348 2649 OFFCURVE",
"243 2654 CURVE SMOOTH",
"36 2665 OFFCURVE",
"-78 2671 OFFCURVE",
"-99 2674 CURVE",
"-114 2595 LINE",
"-121 2593 OFFCURVE",
"-91 2592 OFFCURVE",
"-22 2592 CURVE SMOOTH",
"119 2592 OFFCURVE",
"214 2574 OFFCURVE",
"264 2537 CURVE SMOOTH",
"306 2506 OFFCURVE",
"387 2400 OFFCURVE",
"508 2220 CURVE SMOOTH",
"665 1985 OFFCURVE",
"796 1742 OFFCURVE",
"900 1493 CURVE SMOOTH",
"993 1268 OFFCURVE",
"1040 1004 OFFCURVE",
"1040 701 CURVE SMOOTH",
"1040 539 OFFCURVE",
"1025 390 OFFCURVE",
"996 254 CURVE SMOOTH",
"968 128 OFFCURVE",
"842 65 OFFCURVE",
"618 65 CURVE SMOOTH",
"587 65 OFFCURVE",
"562 67 OFFCURVE",
"543 70 CURVE",
"504 -10 LINE"
);
}
);
width = 2477;
}
);
leftKerningGroup = Y;
note = Y;
rightKerningGroup = Y;
unicode = 0059;
},
{
glyphname = Z;
lastChange = "2021-08-12 00:41:17 +0000";
layers = (
{
anchors = (
{
name = bottom;
position = "{1182, 0}";
},
{
name = center;
position = "{1182, 1341}";
},
{
name = top;
position = "{1182, 2681}";
}
);
layerId = "274E8830-0A80-4149-8BE8-CF3C4CCD3F6F";
paths = (
{
closed = 1;
nodes = (
"189 -37 LINE",
"200 -34 LINE SMOOTH",
"313 -4 OFFCURVE",
"441 11 OFFCURVE",
"584 11 CURVE SMOOTH",
"623 11 LINE SMOOTH",
"1288 -1 OFFCURVE",
"1703 -13 OFFCURVE",
"1870 -25 CURVE SMOOTH",
"1898 -27 OFFCURVE",
"1922 -28 OFFCURVE",
"1941 -28 CURVE SMOOTH",
"2004 -28 OFFCURVE",
"2047 -16 OFFCURVE",
"2070 8 CURVE SMOOTH",
"2094 32 OFFCURVE",
"2111 79 OFFCURVE",
"2122 148 CURVE",
"2170 341 OFFCURVE",
"2212 487 OFFCURVE",
"2247 588 CURVE",
"2191 606 LINE",
"2177 549 OFFCURVE",
"2146 477 OFFCURVE",
"2099 392 CURVE SMOOTH",
"2046 296 OFFCURVE",
"1999 233 OFFCURVE",
"1956 203 CURVE SMOOTH",
"1878 148 OFFCURVE",
"1669 120 OFFCURVE",
"1329 120 CURVE SMOOTH",
"855 120 OFFCURVE",
"633 119 OFFCURVE",
"664 117 CURVE SMOOTH",
"644 118 OFFCURVE",
"633 126 OFFCURVE",
"633 140 CURVE SMOOTH",
"633 147 OFFCURVE",
"636 156 OFFCURVE",
"642 167 CURVE SMOOTH",
"810 489 OFFCURVE",
"939 738 OFFCURVE",
"1030 915 CURVE",
"1528 1792 LINE",
"1751 2159 OFFCURVE",
"1915 2423 OFFCURVE",
"2021 2585 CURVE",
"2002 2648 LINE",
"1637 2631 OFFCURVE",
"1433 2623 OFFCURVE",
"1390 2623 CURVE SMOOTH",
"1118 2623 LINE SMOOTH",
"877 2623 OFFCURVE",
"588 2632 OFFCURVE",
"250 2649 CURVE",
"206 2588 LINE",
"215 2435 OFFCURVE",
"219 2304 OFFCURVE",
"219 2197 CURVE SMOOTH",
"219 2122 OFFCURVE",
"217 2058 OFFCURVE",
"213 2006 CURVE",
"302 2060 LINE",
"301 2080 OFFCURVE",
"301 2153 OFFCURVE",
"301 2278 CURVE SMOOTH",
"301 2371 OFFCURVE",
"346 2434 OFFCURVE",
"436 2467 CURVE SMOOTH",
"506 2493 OFFCURVE",
"636 2509 OFFCURVE",
"826 2516 CURVE SMOOTH",
"1011 2522 OFFCURVE",
"1194 2525 OFFCURVE",
"1375 2525 CURVE SMOOTH",
"1421 2525 OFFCURVE",
"1467 2524 OFFCURVE",
"1513 2524 CURVE SMOOTH",
"1540 2524 OFFCURVE",
"1554 2516 OFFCURVE",
"1554 2500 CURVE SMOOTH",
"1554 2494 OFFCURVE",
"1552 2488 OFFCURVE",
"1549 2480 CURVE SMOOTH",
"1437 2222 OFFCURVE",
"1286 1928 OFFCURVE",
"1097 1599 CURVE SMOOTH",
"765 1019 LINE",
"653 847 OFFCURVE",
"541 675 OFFCURVE",
"430 502 CURVE SMOOTH",
"250 221 OFFCURVE",
"161 52 OFFCURVE",
"162 -4 CURVE",
"189 -37 LINE"
);
}
);
width = 2313;
}
);
leftKerningGroup = Z;
note = Z;
rightKerningGroup = Z;
unicode = 005A;
},
{
glyphname = a;
lastChange = "2021-08-12 00:41:17 +0000";
layers = (
{
anchors = (
{
name = bottom;
position = "{837, 0}";
},
{
name = ogonek;
position = "{1735, 10}";
},
{
name = top;
position = "{838, 1912}";
}
);
layerId = "274E8830-0A80-4149-8BE8-CF3C4CCD3F6F";
paths = (
{
closed = 1;
nodes = (
"1443 -28 OFFCURVE",
"1522 -24 OFFCURVE",
"1631 -17 CURVE SMOOTH",
"1732 -11 OFFCURVE",
"1810 -9 OFFCURVE",
"1866 -10 CURVE",
"1917 87 LINE",
"1896 78 OFFCURVE",
"1865 74 OFFCURVE",
"1823 74 CURVE SMOOTH",
"1799 74 OFFCURVE",
"1772 75 OFFCURVE",
"1741 78 CURVE SMOOTH",
"1617 90 OFFCURVE",
"1546 138 OFFCURVE",
"1528 222 CURVE SMOOTH",
"1503 338 OFFCURVE",
"1490 555 OFFCURVE",
"1490 874 CURVE SMOOTH",
"1490 934 OFFCURVE",
"1493 1024 OFFCURVE",
"1498 1144 CURVE SMOOTH",
"1503 1265 OFFCURVE",
"1506 1355 OFFCURVE",
"1506 1415 CURVE SMOOTH",
"1506 1741 OFFCURVE",
"1332 1904 OFFCURVE",
"984 1904 CURVE SMOOTH",
"828 1904 OFFCURVE",
"681 1886 OFFCURVE",
"543 1851 CURVE SMOOTH",
"362 1805 OFFCURVE",
"236 1735 OFFCURVE",
"164 1642 CURVE SMOOTH",
"141 1612 OFFCURVE",
"129 1585 OFFCURVE",
"129 1560 CURVE SMOOTH",
"129 1554 OFFCURVE",
"140 1509 OFFCURVE",
"163 1426 CURVE SMOOTH",
"199 1294 OFFCURVE",
"217 1195 OFFCURVE",
"214 1129 CURVE SMOOTH",
"213 1107 LINE",
"277 1156 LINE",
"274 1169 OFFCURVE",
"272 1186 OFFCURVE",
"272 1207 CURVE SMOOTH",
"272 1387 OFFCURVE",
"330 1529 OFFCURVE",
"446 1634 CURVE SMOOTH",
"557 1735 OFFCURVE",
"704 1785 OFFCURVE",
"886 1785 CURVE SMOOTH",
"1033 1785 OFFCURVE",
"1130 1715 OFFCURVE",
"1178 1576 CURVE SMOOTH",
"1206 1497 OFFCURVE",
"1220 1365 OFFCURVE",
"1220 1180 CURVE SMOOTH",
"1220 1126 LINE",
"1040 1125 OFFCURVE",
"698 1105 OFFCURVE",
"586 1060 CURVE SMOOTH",
"501 1025 OFFCURVE",
"425 960 OFFCURVE",
"286 849 CURVE SMOOTH",
"195 776 OFFCURVE",
"50 720 OFFCURVE",
"50 530 CURVE SMOOTH",
"50 253 OFFCURVE",
"208 -11 OFFCURVE",
"489 -11 CURVE SMOOTH",
"683 -11 OFFCURVE",
"889 74 OFFCURVE",
"1106 245 CURVE SMOOTH",
"1142 273 OFFCURVE",
"1178 299 OFFCURVE",
"1214 322 CURVE",
"1213 303 OFFCURVE",
"1212 285 OFFCURVE",
"1212 266 CURVE SMOOTH",
"1212 70 OFFCURVE",
"1273 -28 OFFCURVE",
"1396 -28 CURVE",
"1396 -28 LINE"
);
},
{
closed = 1;
nodes = (
"448 217 OFFCURVE",
"313 391 OFFCURVE",
"313 568 CURVE SMOOTH",
"313 701 OFFCURVE",
"390 836 OFFCURVE",
"561 900 CURVE SMOOTH",
"690 948 OFFCURVE",
"902 970 OFFCURVE",
"1217 985 CURVE",
"1213 814 OFFCURVE",
"1210 674 OFFCURVE",
"1207 589 CURVE",
"1190 482 OFFCURVE",
"1132 395 OFFCURVE",
"1033 329 CURVE SMOOTH",
"940 268 OFFCURVE",
"793 217 OFFCURVE",
"675 217 CURVE",
"675 217 LINE"
);
}
);
width = 1917;
}
);
leftKerningGroup = a;
note = a;
rightKerningGroup = a;
rightMetricsKey = n;
unicode = 0061;
},
{
glyphname = ae;
lastChange = "2021-08-12 00:41:17 +0000";
layers = (
{
anchors = (
{
name = bottom;
position = "{1482, 0}";
},
{
name = top;
position = "{1482, 1912}";
}
);
layerId = "274E8830-0A80-4149-8BE8-CF3C4CCD3F6F";
paths = (
{
closed = 1;
nodes = (
"726 -11 OFFCURVE",
"928 86 OFFCURVE",
"1175 279 CURVE SMOOTH",
"1201 300 OFFCURVE",
"1237 325 OFFCURVE",
"1283 356 CURVE SMOOTH",
"1327 386 OFFCURVE",
"1358 405 OFFCURVE",
"1377 412 CURVE",
"1461 137 OFFCURVE",
"1679 -1 OFFCURVE",
"2031 -1 CURVE SMOOTH",
"2446 -1 OFFCURVE",
"2709 53 OFFCURVE",
"2820 160 CURVE SMOOTH",
"2849 188 OFFCURVE",
"2865 214 OFFCURVE",
"2869 238 CURVE SMOOTH",
"2870 244 OFFCURVE",
"2871 253 OFFCURVE",
"2871 264 CURVE SMOOTH",
"2871 281 OFFCURVE",
"2869 305 OFFCURVE",
"2866 336 CURVE SMOOTH",
"2860 393 OFFCURVE",
"2857 426 OFFCURVE",
"2857 434 CURVE SMOOTH",
"2857 478 OFFCURVE",
"2861 567 OFFCURVE",
"2868 700 CURVE",
"2785 660 LINE",
"2786 647 OFFCURVE",
"2784 630 OFFCURVE",
"2781 609 CURVE SMOOTH",
"2721 284 OFFCURVE",
"2513 121 OFFCURVE",
"2156 121 CURVE SMOOTH",
"1899 121 OFFCURVE",
"1729 217 OFFCURVE",
"1645 413 CURVE SMOOTH",
"1601 515 OFFCURVE",
"1576 693 OFFCURVE",
"1569 946 CURVE",
"1572 1044 LINE",
"1721 1057 OFFCURVE",
"1891 1063 OFFCURVE",
"2083 1063 CURVE SMOOTH",
"2112 1063 OFFCURVE",
"2210 1066 OFFCURVE",
"2377 1072 CURVE SMOOTH",
"2400 1073 OFFCURVE",
"2422 1073 OFFCURVE",
"2444 1073 CURVE SMOOTH",
"2513 1073 OFFCURVE",
"2578 1070 OFFCURVE",
"2639 1062 CURVE SMOOTH",
"2656 1060 OFFCURVE",
"2695 1103 OFFCURVE",
"2758 1191 CURVE SMOOTH",
"2831 1293 OFFCURVE",
"2868 1343 OFFCURVE",
"2868 1340 CURVE SMOOTH",
"2868 1519 OFFCURVE",
"2812 1660 OFFCURVE",
"2701 1761 CURVE SMOOTH",
"2581 1870 OFFCURVE",
"2406 1925 OFFCURVE",
"2177 1925 CURVE SMOOTH",
"1888 1925 OFFCURVE",
"1667 1853 OFFCURVE",
"1515 1709 CURVE",
"1436 1839 OFFCURVE",
"1285 1904 OFFCURVE",
"1062 1904 CURVE SMOOTH",
"906 1904 OFFCURVE",
"759 1886 OFFCURVE",
"621 1851 CURVE SMOOTH",
"440 1805 OFFCURVE",
"314 1735 OFFCURVE",
"242 1642 CURVE SMOOTH",
"219 1612 OFFCURVE",
"207 1585 OFFCURVE",
"207 1560 CURVE SMOOTH",
"207 1554 OFFCURVE",
"218 1509 OFFCURVE",
"241 1426 CURVE SMOOTH",
"277 1294 OFFCURVE",
"294 1195 OFFCURVE",
"292 1129 CURVE SMOOTH",
"291 1107 LINE",
"355 1156 LINE",
"352 1169 OFFCURVE",
"350 1186 OFFCURVE",
"350 1207 CURVE SMOOTH",
"350 1387 OFFCURVE",
"408 1529 OFFCURVE",
"524 1634 CURVE SMOOTH",
"635 1735 OFFCURVE",
"782 1785 OFFCURVE",
"964 1785 CURVE SMOOTH",
"1111 1785 OFFCURVE",
"1208 1715 OFFCURVE",
"1256 1576 CURVE SMOOTH",
"1284 1497 OFFCURVE",
"1298 1365 OFFCURVE",
"1298 1180 CURVE SMOOTH",
"1298 1150 LINE",
"1201 1137 OFFCURVE",
"1129 1128 OFFCURVE",
"1081 1121 CURVE SMOOTH",
"902 1100 OFFCURVE",
"771 1072 OFFCURVE",
"689 1038 CURVE SMOOTH",
"604 1003 OFFCURVE",
"492 931 OFFCURVE",
"353 820 CURVE SMOOTH",
"272 757 OFFCURVE",
"210 710 OFFCURVE",
"169 679 CURVE",
"133 646 OFFCURVE",
"115 592 OFFCURVE",
"115 517 CURVE SMOOTH",
"115 382 OFFCURVE",
"156 262 OFFCURVE",
"238 157 CURVE SMOOTH",
"326 45 OFFCURVE",
"436 -11 OFFCURVE",
"567 -11 CURVE",
"567 -11 LINE"
);
},
{
closed = 1;
nodes = (
"612 237 OFFCURVE",
"481 312 OFFCURVE",
"403 461 CURVE SMOOTH",
"372 522 OFFCURVE",
"356 576 OFFCURVE",
"356 624 CURVE SMOOTH",
"356 726 OFFCURVE",
"447 811 OFFCURVE",
"628 879 CURVE SMOOTH",
"757 927 OFFCURVE",
"980 958 OFFCURVE",
"1295 973 CURVE",
"1291 802 OFFCURVE",
"1288 674 OFFCURVE",
"1285 589 CURVE",
"1268 482 OFFCURVE",
"1210 395 OFFCURVE",
"1111 329 CURVE SMOOTH",
"1018 268 OFFCURVE",
"913 237 OFFCURVE",
"795 237 CURVE",
"795 237 LINE"
);
},
{
closed = 1;
nodes = (
"1741 1188 OFFCURVE",
"1640 1195 OFFCURVE",
"1579 1207 CURVE",
"1582 1312 LINE",
"1584 1323 LINE SMOOTH",
"1625 1647 OFFCURVE",
"1807 1808 OFFCURVE",
"2129 1808 CURVE SMOOTH",
"2369 1808 OFFCURVE",
"2524 1699 OFFCURVE",
"2593 1479 CURVE SMOOTH",
"2609 1430 OFFCURVE",
"2617 1386 OFFCURVE",
"2617 1347 CURVE SMOOTH",
"2617 1272 OFFCURVE",
"2591 1230 OFFCURVE",
"2538 1222 CURVE SMOOTH",
"2439 1207 OFFCURVE",
"2280 1197 OFFCURVE",
"2063 1191 CURVE SMOOTH",
"1997 1189 OFFCURVE",
"1937 1188 OFFCURVE",
"1883 1188 CURVE",
"1883 1188 LINE"
);
}
);
width = 2964;
}
);
leftKerningGroup = a;
note = ae;
rightKerningGroup = a;
unicode = 00E6;
},
{
glyphname = b;
lastChange = "2021-08-12 00:41:17 +0000";
layers = (
{
layerId = "274E8830-0A80-4149-8BE8-CF3C4CCD3F6F";
paths = (
{
closed = 1;
nodes = (
"378 -37 LINE",
"457 84 OFFCURVE",
"550 166 OFFCURVE",
"657 209 CURVE",
"763 48 OFFCURVE",
"938 -33 OFFCURVE",
"1181 -33 CURVE SMOOTH",
"1732 -33 OFFCURVE",
"2008 319 OFFCURVE",
"2008 1023 CURVE SMOOTH",
"2008 1302 OFFCURVE",
"1969 1507 OFFCURVE",
"1891 1640 CURVE SMOOTH",
"1795 1803 OFFCURVE",
"1630 1885 OFFCURVE",
"1396 1885 CURVE SMOOTH",
"1351 1885 OFFCURVE",
"1304 1882 OFFCURVE",
"1254 1876 CURVE SMOOTH",
"953 1842 OFFCURVE",
"752 1719 OFFCURVE",
"649 1508 CURVE",
"671 2113 OFFCURVE",
"694 2479 OFFCURVE",
"717 2604 CURVE SMOOTH",
"718 2612 OFFCURVE",
"719 2619 OFFCURVE",
"719 2626 CURVE SMOOTH",
"719 2652 OFFCURVE",
"704 2665 OFFCURVE",
"674 2665 CURVE SMOOTH",
"661 2665 OFFCURVE",
"628 2660 OFFCURVE",
"573 2649 CURVE SMOOTH",
"518 2638 OFFCURVE",
"474 2634 OFFCURVE",
"439 2635 CURVE SMOOTH",
"238 2641 OFFCURVE",
"106 2648 OFFCURVE",
"43 2655 CURVE",
"7 2578 LINE",
"56 2589 OFFCURVE",
"101 2594 OFFCURVE",
"142 2594 CURVE SMOOTH",
"222 2594 OFFCURVE",
"286 2574 OFFCURVE",
"336 2532 CURVE",
"394 2466 OFFCURVE",
"423 1989 OFFCURVE",
"423 1102 CURVE SMOOTH",
"423 992 OFFCURVE",
"412 803 OFFCURVE",
"389 534 CURVE SMOOTH",
"365 245 OFFCURVE",
"343 68 OFFCURVE",
"324 5 CURVE",
"378 -37 LINE"
);
},
{
closed = 1;
nodes = (
"949 84 OFFCURVE",
"809 184 OFFCURVE",
"728 384 CURVE SMOOTH",
"671 526 OFFCURVE",
"642 712 OFFCURVE",
"642 943 CURVE SMOOTH",
"642 1162 OFFCURVE",
"675 1331 OFFCURVE",
"741 1448 CURVE SMOOTH",
"850 1640 OFFCURVE",
"1010 1736 OFFCURVE",
"1221 1736 CURVE SMOOTH",
"1421 1736 OFFCURVE",
"1561 1636 OFFCURVE",
"1642 1436 CURVE SMOOTH",
"1699 1294 OFFCURVE",
"1728 1108 OFFCURVE",
"1728 877 CURVE SMOOTH",
"1728 658 OFFCURVE",
"1695 489 OFFCURVE",
"1629 372 CURVE SMOOTH",
"1520 180 OFFCURVE",
"1360 84 OFFCURVE",
"1149 84 CURVE",
"1149 84 LINE"
);
}
);
width = 2178;
}
);
leftKerningGroup = n;
note = b;
rightKerningGroup = b;
unicode = 0062;
},
{
glyphname = c;
lastChange = "2021-08-12 00:41:17 +0000";
layers = (
{
anchors = (
{
name = bottom;
position = "{904, 0}";
},
{
name = top;
position = "{1050, 1912}";
}
);
layerId = "274E8830-0A80-4149-8BE8-CF3C4CCD3F6F";
paths = (
{
closed = 1;
nodes = (
"1343 -39 OFFCURVE",
"1565 4 OFFCURVE",
"1646 91 CURVE",
"1691 342 LINE",
"1494 176 OFFCURVE",
"1288 92 OFFCURVE",
"1075 92 CURVE SMOOTH",
"805 92 OFFCURVE",
"628 192 OFFCURVE",
"542 392 CURVE SMOOTH",
"481 533 OFFCURVE",
"451 726 OFFCURVE",
"451 971 CURVE SMOOTH",
"451 1059 OFFCURVE",
"455 1144 OFFCURVE",
"464 1225 CURVE SMOOTH",
"483 1396 OFFCURVE",
"543 1535 OFFCURVE",
"645 1642 CURVE SMOOTH",
"756 1759 OFFCURVE",
"905 1822 OFFCURVE",
"1091 1830 CURVE SMOOTH",
"1104 1831 OFFCURVE",
"1117 1831 OFFCURVE",
"1129 1831 CURVE SMOOTH",
"1254 1831 OFFCURVE",
"1352 1804 OFFCURVE",
"1425 1749 CURVE SMOOTH",
"1512 1684 OFFCURVE",
"1559 1597 OFFCURVE",
"1566 1490 CURVE SMOOTH",
"1569 1438 OFFCURVE",
"1571 1397 OFFCURVE",
"1571 1365 CURVE SMOOTH",
"1571 1326 OFFCURVE",
"1568 1302 OFFCURVE",
"1564 1293 CURVE",
"1657 1335 LINE",
"1648 1434 OFFCURVE",
"1643 1518 OFFCURVE",
"1643 1589 CURVE SMOOTH",
"1643 1654 OFFCURVE",
"1647 1708 OFFCURVE",
"1655 1750 CURVE SMOOTH",
"1656 1753 OFFCURVE",
"1656 1757 OFFCURVE",
"1656 1762 CURVE SMOOTH",
"1656 1797 OFFCURVE",
"1631 1826 OFFCURVE",
"1580 1851 CURVE SMOOTH",
"1460 1908 OFFCURVE",
"1309 1937 OFFCURVE",
"1124 1937 CURVE SMOOTH",
"1074 1937 OFFCURVE",
"1022 1935 OFFCURVE",
"967 1931 CURVE SMOOTH",
"625 1904 OFFCURVE",
"396 1774 OFFCURVE",
"280 1539 CURVE SMOOTH",
"203 1384 OFFCURVE",
"165 1165 OFFCURVE",
"165 881 CURVE SMOOTH",
"165 474 OFFCURVE",
"243 211 OFFCURVE",
"398 92 CURVE SMOOTH",
"512 5 OFFCURVE",
"706 -39 OFFCURVE",
"981 -39 CURVE",
"981 -39 LINE"
);
}
);
width = 1856;
}
);
leftKerningGroup = c;
note = c;
rightKerningGroup = c;
unicode = 0063;
},
{
glyphname = d;
lastChange = "2021-08-12 00:41:17 +0000";
layers = (
{
anchors = (
{
name = bottom;
position = "{1150, 0}";
},
{
name = center;
position = "{1150, 1055}";
},
{
name = top;
position = "{1685, 2649}";
},
{
name = topright;
position = "{2071, 2781}";
}
);
layerId = "274E8830-0A80-4149-8BE8-CF3C4CCD3F6F";
paths = (
{
closed = 1;
nodes = (
"1596 -30 OFFCURVE",
"1615 -26 OFFCURVE",
"1640 -18 CURVE SMOOTH",
"1666 -11 OFFCURVE",
"1683 -7 OFFCURVE",
"1691 -7 CURVE SMOOTH",
"1802 2 OFFCURVE",
"1906 7 OFFCURVE",
"2005 7 CURVE SMOOTH",
"2085 7 OFFCURVE",
"2162 4 OFFCURVE",
"2234 -2 CURVE",
"2288 89 LINE",
"2259 84 OFFCURVE",
"2222 82 OFFCURVE",
"2179 82 CURVE SMOOTH",
"1965 82 OFFCURVE",
"1845 135 OFFCURVE",
"1819 242 CURVE SMOOTH",
"1788 371 OFFCURVE",
"1773 656 OFFCURVE",
"1773 1097 CURVE SMOOTH",
"1773 1238 OFFCURVE",
"1773 1329 OFFCURVE",
"1772 1368 CURVE SMOOTH",
"1771 1427 OFFCURVE",
"1771 1485 OFFCURVE",
"1771 1541 CURVE SMOOTH",
"1771 2041 OFFCURVE",
"1791 2395 OFFCURVE",
"1830 2604 CURVE SMOOTH",
"1832 2612 OFFCURVE",
"1833 2619 OFFCURVE",
"1833 2626 CURVE SMOOTH",
"1833 2652 OFFCURVE",
"1818 2665 OFFCURVE",
"1788 2665 CURVE SMOOTH",
"1775 2665 OFFCURVE",
"1741 2660 OFFCURVE",
"1685 2649 CURVE SMOOTH",
"1632 2638 OFFCURVE",
"1587 2634 OFFCURVE",
"1552 2635 CURVE SMOOTH",
"1351 2641 OFFCURVE",
"1219 2648 OFFCURVE",
"1156 2655 CURVE",
"1120 2578 LINE",
"1169 2589 OFFCURVE",
"1214 2594 OFFCURVE",
"1255 2594 CURVE SMOOTH",
"1335 2594 OFFCURVE",
"1399 2574 OFFCURVE",
"1449 2532 CURVE",
"1496 2479 OFFCURVE",
"1525 2196 OFFCURVE",
"1534 1685 CURVE",
"1481 1750 OFFCURVE",
"1405 1804 OFFCURVE",
"1306 1847 CURVE SMOOTH",
"1203 1890 OFFCURVE",
"1097 1912 OFFCURVE",
"987 1912 CURVE SMOOTH",
"670 1912 OFFCURVE",
"446 1808 OFFCURVE",
"315 1600 CURVE SMOOTH",
"212 1436 OFFCURVE",
"160 1188 OFFCURVE",
"160 856 CURVE SMOOTH",
"160 593 OFFCURVE",
"212 387 OFFCURVE",
"315 238 CURVE SMOOTH",
"426 77 OFFCURVE",
"590 -3 OFFCURVE",
"807 -3 CURVE SMOOTH",
"842 -3 OFFCURVE",
"878 -1 OFFCURVE",
"915 3 CURVE SMOOTH",
"1198 36 OFFCURVE",
"1392 146 OFFCURVE",
"1499 333 CURVE",
"1510 166 OFFCURVE",
"1517 66 OFFCURVE",
"1522 34 CURVE SMOOTH",
"1529 -9 OFFCURVE",
"1549 -30 OFFCURVE",
"1583 -30 CURVE",
"1583 -30 LINE"
);
},
{
closed = 1;
nodes = (
"742 130 OFFCURVE",
"602 230 OFFCURVE",
"521 431 CURVE SMOOTH",
"464 572 OFFCURVE",
"435 759 OFFCURVE",
"435 990 CURVE SMOOTH",
"435 1209 OFFCURVE",
"468 1377 OFFCURVE",
"534 1494 CURVE SMOOTH",
"643 1687 OFFCURVE",
"803 1783 OFFCURVE",
"1014 1783 CURVE SMOOTH",
"1214 1783 OFFCURVE",
"1354 1683 OFFCURVE",
"1435 1482 CURVE SMOOTH",
"1492 1341 OFFCURVE",
"1521 1154 OFFCURVE",
"1521 923 CURVE SMOOTH",
"1521 704 OFFCURVE",
"1488 536 OFFCURVE",
"1422 419 CURVE SMOOTH",
"1313 226 OFFCURVE",
"1153 130 OFFCURVE",
"942 130 CURVE",
"942 130 LINE"
);
}
);
width = 2288;
}
);
leftKerningGroup = c;
note = d;
rightKerningGroup = d;
rightMetricsKey = n;
unicode = 0064;
},
{
glyphname = eth;
lastChange = "2021-08-12 00:41:17 +0000";
layers = (
{
layerId = "274E8830-0A80-4149-8BE8-CF3C4CCD3F6F";
paths = (
{
closed = 1;
nodes = (
"1141 -39 OFFCURVE",
"1437 285 OFFCURVE",
"1545 932 CURVE SMOOTH",
"1558 1009 OFFCURVE",
"1564 1089 OFFCURVE",
"1564 1173 CURVE SMOOTH",
"1564 1224 OFFCURVE",
"1562 1277 OFFCURVE",
"1557 1331 CURVE SMOOTH",
"1522 1722 OFFCURVE",
"1371 2047 OFFCURVE",
"1102 2306 CURVE",
"1216 2364 OFFCURVE",
"1314 2411 OFFCURVE",
"1367 2432 CURVE SMOOTH",
"1387 2440 OFFCURVE",
"1396 2504 OFFCURVE",
"1396 2550 CURVE SMOOTH",
"1396 2572 OFFCURVE",
"1394 2590 OFFCURVE",
"1390 2595 CURVE",
"1323 2554 OFFCURVE",
"1171 2471 OFFCURVE",
"1011 2387 CURVE",
"869 2505 OFFCURVE",
"698 2608 OFFCURVE",
"501 2696 CURVE",
"496 2702 OFFCURVE",
"488 2705 OFFCURVE",
"479 2705 CURVE SMOOTH",
"436 2705 OFFCURVE",
"196 2426 OFFCURVE",
"94 2324 CURVE",
"106 2310 OFFCURVE",
"148 2252 OFFCURVE",
"153 2246 CURVE",
"192 2309 OFFCURVE",
"295 2433 OFFCURVE",
"409 2433 CURVE SMOOTH",
"439 2433 OFFCURVE",
"469 2424 OFFCURVE",
"499 2405 CURVE SMOOTH",
"587 2348 OFFCURVE",
"664 2294 OFFCURVE",
"732 2242 CURVE",
"625 2188 OFFCURVE",
"539 2146 OFFCURVE",
"505 2134 CURVE SMOOTH",
"491 2129 OFFCURVE",
"485 2080 OFFCURVE",
"485 2036 CURVE SMOOTH",
"485 1995 OFFCURVE",
"490 1959 OFFCURVE",
"501 1964 CURVE",
"571 2013 OFFCURVE",
"696 2087 OFFCURVE",
"831 2161 CURVE",
"893 2108 OFFCURVE",
"945 2056 OFFCURVE",
"987 2006 CURVE SMOOTH",
"1014 1973 OFFCURVE",
"1040 1938 OFFCURVE",
"1063 1903 CURVE",
"747 1900 OFFCURVE",
"521 1866 OFFCURVE",
"292 1576 CURVE SMOOTH",
"143 1397 OFFCURVE",
"63 1173 OFFCURVE",
"51 904 CURVE SMOOTH",
"49 854 OFFCURVE",
"48 806 OFFCURVE",
"48 761 CURVE SMOOTH",
"48 511 OFFCURVE",
"85 323 OFFCURVE",
"158 198 CURVE SMOOTH",
"237 63 OFFCURVE",
"365 -13 OFFCURVE",
"542 -32 CURVE SMOOTH",
"581 -37 OFFCURVE",
"620 -39 OFFCURVE",
"657 -39 CURVE",
"657 -39 LINE"
);
},
{
closed = 1;
nodes = (
"715 74 OFFCURVE",
"649 104 OFFCURVE",
"581 162 CURVE SMOOTH",
"426 295 OFFCURVE",
"349 515 OFFCURVE",
"349 820 CURVE SMOOTH",
"349 1362 OFFCURVE",
"579 1779 OFFCURVE",
"1111 1822 CURVE",
"1212 1635 OFFCURVE",
"1261 1415 OFFCURVE",
"1258 1163 CURVE SMOOTH",
"1253 705 OFFCURVE",
"1172 386 OFFCURVE",
"1015 206 CURVE SMOOTH",
"939 118 OFFCURVE",
"861 74 OFFCURVE",
"781 74 CURVE",
"781 74 LINE"
);
}
);
width = 1578;
}
);
note = eth;
unicode = 00F0;
},
{
glyphname = dcroat;
lastChange = "2021-08-12 00:41:17 +0000";
layers = (
{
layerId = "274E8830-0A80-4149-8BE8-CF3C4CCD3F6F";
paths = (
{
closed = 1;
nodes = (
"1591 -30 OFFCURVE",
"1610 -26 OFFCURVE",
"1635 -18 CURVE SMOOTH",
"1661 -11 OFFCURVE",
"1678 -7 OFFCURVE",
"1686 -7 CURVE SMOOTH",
"1797 2 OFFCURVE",
"1901 7 OFFCURVE",
"2000 7 CURVE SMOOTH",
"2080 7 OFFCURVE",
"2157 4 OFFCURVE",
"2229 -2 CURVE",
"2283 89 LINE",
"2254 84 OFFCURVE",
"2217 82 OFFCURVE",
"2174 82 CURVE SMOOTH",
"1960 82 OFFCURVE",
"1840 135 OFFCURVE",
"1814 242 CURVE SMOOTH",
"1783 371 OFFCURVE",
"1768 656 OFFCURVE",
"1768 1097 CURVE SMOOTH",
"1768 1238 OFFCURVE",
"1768 1329 OFFCURVE",
"1767 1368 CURVE SMOOTH",
"1766 1427 OFFCURVE",
"1766 1485 OFFCURVE",
"1766 1541 CURVE SMOOTH",
"1766 2041 OFFCURVE",
"1786 2395 OFFCURVE",
"1825 2604 CURVE SMOOTH",
"1827 2612 OFFCURVE",
"1828 2619 OFFCURVE",
"1828 2626 CURVE SMOOTH",
"1828 2652 OFFCURVE",
"1813 2665 OFFCURVE",
"1783 2665 CURVE SMOOTH",
"1770 2665 OFFCURVE",
"1736 2660 OFFCURVE",
"1680 2649 CURVE SMOOTH",
"1627 2638 OFFCURVE",
"1582 2634 OFFCURVE",
"1547 2635 CURVE SMOOTH",
"1346 2641 OFFCURVE",
"1214 2648 OFFCURVE",
"1151 2655 CURVE",
"1115 2578 LINE",
"1164 2589 OFFCURVE",
"1209 2594 OFFCURVE",
"1250 2594 CURVE SMOOTH",
"1330 2594 OFFCURVE",
"1394 2574 OFFCURVE",
"1444 2532 CURVE",
"1491 2479 OFFCURVE",
"1520 2196 OFFCURVE",
"1529 1685 CURVE",
"1476 1750 OFFCURVE",
"1400 1804 OFFCURVE",
"1301 1847 CURVE SMOOTH",
"1198 1890 OFFCURVE",
"1092 1912 OFFCURVE",
"982 1912 CURVE SMOOTH",
"665 1912 OFFCURVE",
"441 1808 OFFCURVE",
"310 1600 CURVE SMOOTH",
"207 1436 OFFCURVE",
"155 1188 OFFCURVE",
"155 856 CURVE SMOOTH",
"155 593 OFFCURVE",
"207 387 OFFCURVE",
"310 238 CURVE SMOOTH",
"421 77 OFFCURVE",
"585 -3 OFFCURVE",
"802 -3 CURVE SMOOTH",
"837 -3 OFFCURVE",
"873 -1 OFFCURVE",
"910 3 CURVE SMOOTH",
"1193 36 OFFCURVE",
"1387 146 OFFCURVE",
"1494 333 CURVE",
"1505 166 OFFCURVE",
"1512 66 OFFCURVE",
"1517 34 CURVE SMOOTH",
"1524 -9 OFFCURVE",
"1544 -30 OFFCURVE",
"1578 -30 CURVE",
"1578 -30 LINE"
);
},
{
closed = 1;
nodes = (
"737 130 OFFCURVE",
"597 230 OFFCURVE",
"516 431 CURVE SMOOTH",
"459 572 OFFCURVE",
"430 759 OFFCURVE",
"430 990 CURVE SMOOTH",
"430 1209 OFFCURVE",
"463 1377 OFFCURVE",
"529 1494 CURVE SMOOTH",
"638 1687 OFFCURVE",
"798 1783 OFFCURVE",
"1009 1783 CURVE SMOOTH",
"1209 1783 OFFCURVE",
"1349 1683 OFFCURVE",
"1430 1482 CURVE SMOOTH",
"1487 1341 OFFCURVE",
"1516 1154 OFFCURVE",
"1516 923 CURVE SMOOTH",
"1516 704 OFFCURVE",
"1483 536 OFFCURVE",
"1417 419 CURVE SMOOTH",
"1308 226 OFFCURVE",
"1148 130 OFFCURVE",
"937 130 CURVE",
"937 130 LINE"
);
},
{
closed = 1;
nodes = (
"2125 2055 OFFCURVE",
"2149 2084 OFFCURVE",
"2178 2145 CURVE SMOOTH",
"2205 2202 OFFCURVE",
"2219 2243 OFFCURVE",
"2219 2268 CURVE SMOOTH",
"2219 2273 OFFCURVE",
"2218 2276 OFFCURVE",
"2215 2277 CURVE",
"2200 2276 OFFCURVE",
"2115 2270 OFFCURVE",
"1960 2257 CURVE SMOOTH",
"1835 2247 OFFCURVE",
"1730 2241 OFFCURVE",
"1647 2241 CURVE SMOOTH",
"1433 2241 OFFCURVE",
"1275 2256 OFFCURVE",
"1174 2284 CURVE SMOOTH",
"1156 2289 OFFCURVE",
"1132 2260 OFFCURVE",
"1103 2199 CURVE SMOOTH",
"1076 2141 OFFCURVE",
"1062 2100 OFFCURVE",
"1062 2075 CURVE SMOOTH",
"1062 2070 OFFCURVE",
"1063 2068 OFFCURVE",
"1066 2067 CURVE",
"1284 2091 OFFCURVE",
"1468 2103 OFFCURVE",
"1617 2103 CURVE SMOOTH",
"1841 2103 OFFCURVE",
"2004 2089 OFFCURVE",
"2107 2060 CURVE",
"2107 2060 LINE"
);
}
);
width = 2289;
}
);
leftKerningGroup = c;
note = dcroat;
rightKerningGroup = d;
unicode = 0111;
},
{
glyphname = e;
lastChange = "2021-08-12 00:41:17 +0000";
layers = (
{
anchors = (
{
name = bottom;
position = "{1051, 0}";
},
{
name = ogonek;
position = "{1589, 52}";
},
{
name = top;
position = "{986, 1912}";
}
);
layerId = "274E8830-0A80-4149-8BE8-CF3C4CCD3F6F";
paths = (
{
closed = 1;
nodes = (
"1347 -30 OFFCURVE",
"1612 25 OFFCURVE",
"1725 134 CURVE SMOOTH",
"1755 162 OFFCURVE",
"1772 189 OFFCURVE",
"1777 214 CURVE",
"1776 295 OFFCURVE",
"1773 361 OFFCURVE",
"1767 413 CURVE",
"1772 542 OFFCURVE",
"1777 632 OFFCURVE",
"1781 684 CURVE",
"1696 644 LINE",
"1697 630 OFFCURVE",
"1695 613 OFFCURVE",
"1691 592 CURVE SMOOTH",
"1627 260 OFFCURVE",
"1412 94 OFFCURVE",
"1048 94 CURVE SMOOTH",
"786 94 OFFCURVE",
"614 193 OFFCURVE",
"530 392 CURVE SMOOTH",
"483 508 OFFCURVE",
"459 701 OFFCURVE",
"459 971 CURVE SMOOTH",
"459 1035 LINE",
"602 1048 OFFCURVE",
"777 1055 OFFCURVE",
"986 1055 CURVE SMOOTH",
"1015 1055 OFFCURVE",
"1114 1058 OFFCURVE",
"1285 1064 CURVE SMOOTH",
"1312 1065 OFFCURVE",
"1338 1066 OFFCURVE",
"1364 1066 CURVE SMOOTH",
"1430 1066 OFFCURVE",
"1493 1062 OFFCURVE",
"1553 1054 CURVE SMOOTH",
"1570 1052 OFFCURVE",
"1611 1096 OFFCURVE",
"1676 1186 CURVE SMOOTH",
"1730 1259 OFFCURVE",
"1768 1309 OFFCURVE",
"1790 1338 CURVE",
"1792 1521 OFFCURVE",
"1737 1664 OFFCURVE",
"1625 1767 CURVE SMOOTH",
"1504 1878 OFFCURVE",
"1327 1934 OFFCURVE",
"1093 1934 CURVE SMOOTH",
"687 1934 OFFCURVE",
"417 1802 OFFCURVE",
"283 1539 CURVE SMOOTH",
"201 1376 OFFCURVE",
"160 1166 OFFCURVE",
"160 908 CURVE SMOOTH",
"160 588 OFFCURVE",
"212 358 OFFCURVE",
"313 216 CURVE SMOOTH",
"431 50 OFFCURVE",
"637 -30 OFFCURVE",
"930 -30 CURVE",
"930 -30 LINE"
);
},
{
closed = 1;
nodes = (
"632 1183 OFFCURVE",
"529 1190 OFFCURVE",
"469 1202 CURVE",
"474 1263 OFFCURVE",
"477 1302 OFFCURVE",
"480 1321 CURVE SMOOTH",
"529 1651 OFFCURVE",
"716 1815 OFFCURVE",
"1042 1815 CURVE SMOOTH",
"1287 1815 OFFCURVE",
"1444 1703 OFFCURVE",
"1512 1479 CURVE SMOOTH",
"1526 1430 OFFCURVE",
"1533 1387 OFFCURVE",
"1533 1348 CURVE SMOOTH",
"1533 1269 OFFCURVE",
"1506 1225 OFFCURVE",
"1452 1217 CURVE SMOOTH",
"1349 1202 OFFCURVE",
"1186 1191 OFFCURVE",
"963 1186 CURVE SMOOTH",
"895 1184 OFFCURVE",
"834 1183 OFFCURVE",
"778 1183 CURVE",
"778 1183 LINE"
);
}
);
width = 1945;
}
);
leftKerningGroup = c;
note = e;
rightKerningGroup = e;
unicode = 0065;
},
{
glyphname = f;
lastChange = "2021-08-12 00:41:17 +0000";
layers = (
{
layerId = "274E8830-0A80-4149-8BE8-CF3C4CCD3F6F";
paths = (
{
closed = 1;
nodes = (
"12 -10 LINE",
"387 17 OFFCURVE",
"598 32 OFFCURVE",
"645 33 CURVE",
"938 24 OFFCURVE",
"1121 10 OFFCURVE",
"1192 -10 CURVE",
"1236 75 LINE",
"1215 73 OFFCURVE",
"1193 72 OFFCURVE",
"1172 72 CURVE SMOOTH",
"1107 72 OFFCURVE",
"1041 82 OFFCURVE",
"974 102 CURVE SMOOTH",
"865 135 OFFCURVE",
"804 186 OFFCURVE",
"791 257 CURVE",
"771 586 OFFCURVE",
"760 867 OFFCURVE",
"757 1098 CURVE SMOOTH",
"756 1156 OFFCURVE",
"755 1224 OFFCURVE",
"755 1303 CURVE SMOOTH",
"755 1424 OFFCURVE",
"757 1570 OFFCURVE",
"759 1741 CURVE",
"953 1733 OFFCURVE",
"1084 1723 OFFCURVE",
"1151 1710 CURVE SMOOTH",
"1178 1705 OFFCURVE",
"1213 1721 OFFCURVE",
"1258 1757 CURVE SMOOTH",
"1299 1791 OFFCURVE",
"1320 1816 OFFCURVE",
"1320 1832 CURVE SMOOTH",
"1320 1835 OFFCURVE",
"1318 1836 OFFCURVE",
"1313 1837 CURVE",
"760 1837 LINE",
"765 2012 OFFCURVE",
"786 2151 OFFCURVE",
"821 2254 CURVE SMOOTH",
"887 2451 OFFCURVE",
"1015 2549 OFFCURVE",
"1203 2549 CURVE SMOOTH",
"1213 2549 OFFCURVE",
"1224 2549 OFFCURVE",
"1234 2548 CURVE SMOOTH",
"1340 2542 OFFCURVE",
"1415 2515 OFFCURVE",
"1459 2467 CURVE SMOOTH",
"1518 2402 OFFCURVE",
"1553 2318 OFFCURVE",
"1564 2213 CURVE SMOOTH",
"1571 2138 OFFCURVE",
"1575 2069 OFFCURVE",
"1576 2006 CURVE",
"1653 2046 LINE",
"1642 2208 OFFCURVE",
"1636 2325 OFFCURVE",
"1636 2399 CURVE SMOOTH",
"1636 2429 OFFCURVE",
"1637 2452 OFFCURVE",
"1639 2467 CURVE SMOOTH",
"1648 2533 OFFCURVE",
"1588 2585 OFFCURVE",
"1459 2623 CURVE SMOOTH",
"1356 2652 OFFCURVE",
"1240 2667 OFFCURVE",
"1113 2667 CURVE SMOOTH",
"892 2667 OFFCURVE",
"734 2594 OFFCURVE",
"641 2447 CURVE SMOOTH",
"559 2319 OFFCURVE",
"516 2116 OFFCURVE",
"512 1838 CURVE",
"242 1840 LINE",
"174 1753 LINE",
"271 1753 OFFCURVE",
"383 1751 OFFCURVE",
"512 1748 CURVE",
"512 1759 OFFCURVE",
"512 1646 OFFCURVE",
"513 1411 CURVE SMOOTH",
"514 1238 OFFCURVE",
"514 1135 OFFCURVE",
"514 1102 CURVE SMOOTH",
"514 639 OFFCURVE",
"502 358 OFFCURVE",
"477 257 CURVE SMOOTH",
"447 131 OFFCURVE",
"305 68 OFFCURVE",
"50 68 CURVE",
"12 -10 LINE"
);
}
);
width = 1518;
}
);
leftMetricsKey = n;
note = f;
unicode = 0066;
},
{
glyphname = g;
lastChange = "2021-08-12 00:41:17 +0000";
layers = (
{
anchors = (
{
name = bottom;
position = "{705, -618}";
},
{
name = top;
position = "{985, 1912}";
}
);
layerId = "274E8830-0A80-4149-8BE8-CF3C4CCD3F6F";
paths = (
{
closed = 1;
nodes = (
"851 -670 OFFCURVE",
"1007 -648 OFFCURVE",
"1173 -601 CURVE SMOOTH",
"1354 -551 OFFCURVE",
"1508 -482 OFFCURVE",
"1635 -393 CURVE SMOOTH",
"1837 -253 OFFCURVE",
"1938 -89 OFFCURVE",
"1938 99 CURVE SMOOTH",
"1938 323 OFFCURVE",
"1780 431 OFFCURVE",
"1464 424 CURVE SMOOTH",
"1398 422 OFFCURVE",
"1332 422 OFFCURVE",
"1265 422 CURVE SMOOTH",
"1030 422 OFFCURVE",
"792 431 OFFCURVE",
"551 450 CURVE SMOOTH",
"450 458 OFFCURVE",
"400 497 OFFCURVE",
"400 567 CURVE SMOOTH",
"400 614 OFFCURVE",
"422 663 OFFCURVE",
"465 715 CURVE SMOOTH",
"508 767 OFFCURVE",
"559 805 OFFCURVE",
"616 828 CURVE",
"718 775 OFFCURVE",
"834 749 OFFCURVE",
"965 749 CURVE SMOOTH",
"1418 749 OFFCURVE",
"1656 955 OFFCURVE",
"1656 1343 CURVE SMOOTH",
"1656 1511 OFFCURVE",
"1609 1645 OFFCURVE",
"1515 1745 CURVE",
"1733 1728 OFFCURVE",
"1857 1716 OFFCURVE",
"1888 1711 CURVE SMOOTH",
"1915 1706 OFFCURVE",
"1950 1722 OFFCURVE",
"1994 1758 CURVE SMOOTH",
"2035 1792 OFFCURVE",
"2056 1817 OFFCURVE",
"2056 1833 CURVE SMOOTH",
"2056 1836 OFFCURVE",
"2054 1837 OFFCURVE",
"2050 1838 CURVE",
"1392 1838 LINE",
"1287 1895 OFFCURVE",
"1166 1924 OFFCURVE",
"1029 1924 CURVE SMOOTH",
"574 1924 OFFCURVE",
"337 1718 OFFCURVE",
"337 1330 CURVE SMOOTH",
"337 1125 OFFCURVE",
"405 972 OFFCURVE",
"541 873 CURVE",
"476 796 OFFCURVE",
"362 725 OFFCURVE",
"199 660 CURVE SMOOTH",
"165 647 OFFCURVE",
"148 612 OFFCURVE",
"148 557 CURVE SMOOTH",
"148 496 OFFCURVE",
"165 428 OFFCURVE",
"200 352 CURVE SMOOTH",
"235 277 OFFCURVE",
"269 234 OFFCURVE",
"300 224 CURVE",
"352 220 OFFCURVE",
"398 218 OFFCURVE",
"438 218 CURVE SMOOTH",
"452 218 OFFCURVE",
"465 218 OFFCURVE",
"478 219 CURVE",
"190 83 OFFCURVE",
"46 -94 OFFCURVE",
"46 -312 CURVE SMOOTH",
"46 -407 OFFCURVE",
"78 -484 OFFCURVE",
"142 -544 CURVE SMOOTH",
"225 -622 OFFCURVE",
"413 -663 OFFCURVE",
"705 -668 CURVE",
"705 -668 LINE"
);
},
{
closed = 1;
nodes = (
"564 -568 OFFCURVE",
"412 -512 OFFCURVE",
"320 -401 CURVE SMOOTH",
"281 -353 OFFCURVE",
"261 -291 OFFCURVE",
"261 -215 CURVE SMOOTH",
"261 -9 OFFCURVE",
"372 134 OFFCURVE",
"595 213 CURVE",
"706 208 OFFCURVE",
"833 205 OFFCURVE",
"978 204 CURVE SMOOTH",
"1223 201 OFFCURVE",
"1411 189 OFFCURVE",
"1543 168 CURVE SMOOTH",
"1652 150 OFFCURVE",
"1706 83 OFFCURVE",
"1706 -32 CURVE SMOOTH",
"1706 -121 OFFCURVE",
"1661 -209 OFFCURVE",
"1572 -295 CURVE SMOOTH",
"1479 -384 OFFCURVE",
"1351 -454 OFFCURVE",
"1187 -504 CURVE SMOOTH",
"1048 -547 OFFCURVE",
"911 -568 OFFCURVE",
"776 -568 CURVE",
"776 -568 LINE"
);
},
{
closed = 1;
nodes = (
"914 822 OFFCURVE",
"819 874 OFFCURVE",
"738 979 CURVE SMOOTH",
"645 1099 OFFCURVE",
"598 1242 OFFCURVE",
"598 1409 CURVE SMOOTH",
"598 1652 OFFCURVE",
"694 1796 OFFCURVE",
"885 1840 CURVE SMOOTH",
"914 1847 OFFCURVE",
"942 1850 OFFCURVE",
"969 1850 CURVE SMOOTH",
"1078 1850 OFFCURVE",
"1173 1798 OFFCURVE",
"1255 1693 CURVE SMOOTH",
"1348 1572 OFFCURVE",
"1395 1429 OFFCURVE",
"1395 1263 CURVE SMOOTH",
"1395 1020 OFFCURVE",
"1299 876 OFFCURVE",
"1107 832 CURVE SMOOTH",
"1078 825 OFFCURVE",
"1050 822 OFFCURVE",
"1023 822 CURVE",
"1023 822 LINE"
);
}
);
width = 2099;
}
);
leftKerningGroup = g;
note = g;
rightKerningGroup = g;
unicode = 0067;
},
{
glyphname = h;
lastChange = "2021-08-12 00:41:17 +0000";
layers = (
{
anchors = (
{
name = bottom;
position = "{1251, 0}";
},
{
name = center;
position = "{1251, 1606}";
},
{
name = top;
position = "{562, 2636}";
}
);
layerId = "274E8830-0A80-4149-8BE8-CF3C4CCD3F6F";
paths = (
{
closed = 1;
nodes = (
"1333 -12 LINE",
"1528 9 OFFCURVE",
"1720 19 OFFCURVE",
"1908 19 CURVE SMOOTH",
"2085 19 OFFCURVE",
"2258 10 OFFCURVE",
"2429 -8 CURVE",
"2464 77 LINE",
"2444 73 OFFCURVE",
"2417 71 OFFCURVE",
"2383 71 CURVE SMOOTH",
"2145 71 OFFCURVE",
"2012 131 OFFCURVE",
"1983 252 CURVE",
"1964 413 OFFCURVE",
"1954 540 OFFCURVE",
"1952 632 CURVE SMOOTH",
"1944 808 OFFCURVE",
"1940 965 OFFCURVE",
"1940 1102 CURVE SMOOTH",
"1937 1298 LINE SMOOTH",
"1935 1417 OFFCURVE",
"1935 1520 OFFCURVE",
"1935 1605 CURVE SMOOTH",
"1935 1795 OFFCURVE",
"1821 1908 OFFCURVE",
"1593 1945 CURVE SMOOTH",
"1549 1952 OFFCURVE",
"1505 1956 OFFCURVE",
"1461 1956 CURVE SMOOTH",
"1294 1956 OFFCURVE",
"1144 1908 OFFCURVE",
"1012 1812 CURVE SMOOTH",
"941 1761 OFFCURVE",
"853 1706 OFFCURVE",
"748 1648 CURVE",
"752 2106 OFFCURVE",
"771 2425 OFFCURVE",
"805 2606 CURVE SMOOTH",
"806 2614 OFFCURVE",
"807 2621 OFFCURVE",
"807 2627 CURVE SMOOTH",
"807 2654 OFFCURVE",
"792 2667 OFFCURVE",
"762 2667 CURVE SMOOTH",
"749 2667 OFFCURVE",
"716 2662 OFFCURVE",
"661 2651 CURVE SMOOTH",
"606 2640 OFFCURVE",
"562 2636 OFFCURVE",
"527 2637 CURVE SMOOTH",
"326 2643 OFFCURVE",
"194 2649 OFFCURVE",
"131 2656 CURVE",
"95 2580 LINE",
"144 2591 OFFCURVE",
"189 2596 OFFCURVE",
"230 2596 CURVE SMOOTH",
"310 2596 OFFCURVE",
"374 2576 OFFCURVE",
"423 2534 CURVE",
"478 2472 OFFCURVE",
"506 2190 OFFCURVE",
"505 1687 CURVE SMOOTH",
"504 1102 LINE SMOOTH",
"503 616 OFFCURVE",
"494 334 OFFCURVE",
"475 257 CURVE SMOOTH",
"459 190 OFFCURVE",
"407 139 OFFCURVE",
"320 104 CURVE SMOOTH",
"253 77 OFFCURVE",
"179 64 OFFCURVE",
"99 64 CURVE SMOOTH",
"74 64 OFFCURVE",
"54 65 OFFCURVE",
"38 68 CURVE",
"2 -10 LINE",
"377 17 OFFCURVE",
"588 32 OFFCURVE",
"635 33 CURVE",
"839 27 OFFCURVE",
"978 14 OFFCURVE",
"1052 -7 CURVE",
"1088 75 LINE",
"903 75 OFFCURVE",
"801 132 OFFCURVE",
"781 247 CURVE SMOOTH",
"758 373 OFFCURVE",
"747 657 OFFCURVE",
"747 1098 CURVE SMOOTH",
"747 1498 LINE",
"794 1569 OFFCURVE",
"874 1635 OFFCURVE",
"989 1695 CURVE SMOOTH",
"1088 1747 OFFCURVE",
"1175 1778 OFFCURVE",
"1249 1787 CURVE SMOOTH",
"1278 1790 OFFCURVE",
"1304 1792 OFFCURVE",
"1328 1792 CURVE SMOOTH",
"1565 1792 OFFCURVE",
"1676 1592 OFFCURVE",
"1677 1193 CURVE SMOOTH",
"1678 616 LINE",
"1678 573 LINE SMOOTH",
"1678 411 OFFCURVE",
"1665 296 OFFCURVE",
"1639 227 CURVE SMOOTH",
"1622 181 OFFCURVE",
"1585 143 OFFCURVE",
"1529 112 CURVE SMOOTH",
"1482 86 OFFCURVE",
"1437 73 OFFCURVE",
"1393 73 CURVE SMOOTH",
"1388 73 OFFCURVE",
"1382 74 OFFCURVE",
"1376 74 CURVE",
"1333 -12 LINE"
);
}
);
width = 2464;
}
);
leftKerningGroup = h;
leftMetricsKey = "=n-10";
note = h;
rightKerningGroup = n;
rightMetricsKey = n;
unicode = 0068;
},
{
glyphname = i;
lastChange = "2021-08-12 00:41:17 +0000";
layers = (
{
anchors = (
{
name = bottom;
position = "{605, 0}";
}
);
layerId = "274E8830-0A80-4149-8BE8-CF3C4CCD3F6F";
paths = (
{
closed = 1;
nodes = (
"12 -10 LINE",
"324 14 OFFCURVE",
"524 27 OFFCURVE",
"612 29 CURVE SMOOTH",
"650 30 OFFCURVE",
"686 30 OFFCURVE",
"721 30 CURVE SMOOTH",
"936 30 OFFCURVE",
"1091 17 OFFCURVE",
"1186 -10 CURVE",
"1226 76 LINE",
"956 76 OFFCURVE",
"811 133 OFFCURVE",
"791 247 CURVE SMOOTH",
"768 373 OFFCURVE",
"757 593 OFFCURVE",
"757 907 CURVE SMOOTH",
"758 1073 LINE SMOOTH",
"758 1437 OFFCURVE",
"777 1702 OFFCURVE",
"815 1868 CURVE SMOOTH",
"816 1874 OFFCURVE",
"817 1880 OFFCURVE",
"817 1886 CURVE SMOOTH",
"817 1908 OFFCURVE",
"802 1919 OFFCURVE",
"772 1919 CURVE SMOOTH",
"759 1919 OFFCURVE",
"726 1914 OFFCURVE",
"671 1905 CURVE SMOOTH",
"616 1896 OFFCURVE",
"572 1893 OFFCURVE",
"537 1894 CURVE SMOOTH",
"336 1899 OFFCURVE",
"204 1904 OFFCURVE",
"141 1910 CURVE",
"105 1836 LINE",
"154 1845 OFFCURVE",
"199 1850 OFFCURVE",
"240 1850 CURVE SMOOTH",
"320 1850 OFFCURVE",
"384 1832 OFFCURVE",
"433 1798 CURVE",
"487 1747 OFFCURVE",
"514 1516 OFFCURVE",
"514 1104 CURVE SMOOTH",
"514 909 LINE SMOOTH",
"514 553 OFFCURVE",
"504 336 OFFCURVE",
"485 257 CURVE SMOOTH",
"455 131 OFFCURVE",
"309 68 OFFCURVE",
"48 68 CURVE",
"12 -10 LINE"
);
},
{
closed = 1;
nodes = (
"588 2251 OFFCURVE",
"652 2290 OFFCURVE",
"749 2368 CURVE SMOOTH",
"816 2421 OFFCURVE",
"857 2455 OFFCURVE",
"872 2470 CURVE SMOOTH",
"881 2479 OFFCURVE",
"885 2489 OFFCURVE",
"885 2500 CURVE SMOOTH",
"885 2517 OFFCURVE",
"876 2526 OFFCURVE",
"860 2526 CURVE SMOOTH",
"808 2526 OFFCURVE",
"761 2536 OFFCURVE",
"720 2556 CURVE SMOOTH",
"693 2569 OFFCURVE",
"666 2586 OFFCURVE",
"637 2609 CURVE SMOOTH",
"617 2624 OFFCURVE",
"602 2632 OFFCURVE",
"592 2632 CURVE SMOOTH",
"574 2632 OFFCURVE",
"535 2608 OFFCURVE",
"475 2559 CURVE SMOOTH",
"392 2492 OFFCURVE",
"350 2448 OFFCURVE",
"350 2429 CURVE SMOOTH",
"350 2404 OFFCURVE",
"375 2368 OFFCURVE",
"425 2323 CURVE SMOOTH",
"478 2275 OFFCURVE",
"522 2251 OFFCURVE",
"559 2251 CURVE",
"559 2251 LINE"
);
}
);
width = 1226;
}
);
leftKerningGroup = i;
leftMetricsKey = n;
note = i;
rightKerningGroup = i;
rightMetricsKey = n;
unicode = 0069;
},
{
glyphname = idotless;
lastChange = "2021-08-12 00:41:17 +0000";
layers = (
{
anchors = (
{
name = bottom;
position = "{649, 0}";
},
{
name = ogonek;
position = "{1168, 10}";
},
{
name = top;
position = "{649, 1912}";
}
);
layerId = "274E8830-0A80-4149-8BE8-CF3C4CCD3F6F";
paths = (
{
closed = 1;
nodes = (
"56 -10 LINE",
"368 14 OFFCURVE",
"568 27 OFFCURVE",
"656 29 CURVE SMOOTH",
"694 30 OFFCURVE",
"730 30 OFFCURVE",
"765 30 CURVE SMOOTH",
"980 30 OFFCURVE",
"1135 17 OFFCURVE",
"1230 -10 CURVE",
"1270 76 LINE",
"1000 76 OFFCURVE",
"855 133 OFFCURVE",
"835 247 CURVE SMOOTH",
"812 373 OFFCURVE",
"801 593 OFFCURVE",
"801 907 CURVE SMOOTH",
"802 1073 LINE SMOOTH",
"802 1437 OFFCURVE",
"821 1702 OFFCURVE",
"859 1868 CURVE SMOOTH",
"860 1874 OFFCURVE",
"861 1880 OFFCURVE",
"861 1886 CURVE SMOOTH",
"861 1908 OFFCURVE",
"846 1919 OFFCURVE",
"816 1919 CURVE SMOOTH",
"803 1919 OFFCURVE",
"770 1914 OFFCURVE",
"715 1905 CURVE SMOOTH",
"660 1896 OFFCURVE",
"616 1893 OFFCURVE",
"581 1894 CURVE SMOOTH",
"380 1899 OFFCURVE",
"248 1904 OFFCURVE",
"185 1910 CURVE",
"149 1836 LINE",
"198 1845 OFFCURVE",
"243 1850 OFFCURVE",
"284 1850 CURVE SMOOTH",
"364 1850 OFFCURVE",
"428 1832 OFFCURVE",
"477 1798 CURVE",
"531 1747 OFFCURVE",
"558 1516 OFFCURVE",
"558 1104 CURVE SMOOTH",
"558 909 LINE SMOOTH",
"558 553 OFFCURVE",
"548 336 OFFCURVE",
"529 257 CURVE SMOOTH",
"499 131 OFFCURVE",
"353 68 OFFCURVE",
"92 68 CURVE",
"56 -10 LINE"
);
}
);
width = 1298;
}
);
leftKerningGroup = i;
note = dotlessi;
rightKerningGroup = i;
unicode = 0131;
},
{
glyphname = j;
lastChange = "2021-08-12 00:41:17 +0000";
layers = (
{
layerId = "274E8830-0A80-4149-8BE8-CF3C4CCD3F6F";
paths = (
{
closed = 1;
nodes = (
"53 -689 LINE",
"118 -674 OFFCURVE",
"169 -663 OFFCURVE",
"206 -656 CURVE SMOOTH",
"604 -580 OFFCURVE",
"799 -376 OFFCURVE",
"792 -44 CURVE SMOOTH",
"779 537 LINE",
"772 1073 LINE SMOOTH",
"771 1109 OFFCURVE",
"771 1143 OFFCURVE",
"771 1177 CURVE SMOOTH",
"771 1469 OFFCURVE",
"790 1700 OFFCURVE",
"829 1868 CURVE SMOOTH",
"830 1874 OFFCURVE",
"831 1880 OFFCURVE",
"831 1886 CURVE SMOOTH",
"831 1908 OFFCURVE",
"816 1919 OFFCURVE",
"786 1919 CURVE SMOOTH",
"773 1919 OFFCURVE",
"740 1914 OFFCURVE",
"685 1905 CURVE SMOOTH",
"630 1896 OFFCURVE",
"586 1893 OFFCURVE",
"551 1894 CURVE SMOOTH",
"350 1899 OFFCURVE",
"218 1904 OFFCURVE",
"155 1910 CURVE",
"119 1836 LINE",
"168 1845 OFFCURVE",
"213 1850 OFFCURVE",
"254 1850 CURVE SMOOTH",
"334 1850 OFFCURVE",
"398 1832 OFFCURVE",
"447 1798 CURVE",
"501 1747 OFFCURVE",
"528 1516 OFFCURVE",
"528 1104 CURVE SMOOTH",
"526 477 LINE SMOOTH",
"525 86 OFFCURVE",
"489 -191 OFFCURVE",
"418 -353 CURVE SMOOTH",
"381 -436 OFFCURVE",
"320 -501 OFFCURVE",
"235 -546 CURVE SMOOTH",
"168 -581 OFFCURVE",
"102 -599 OFFCURVE",
"36 -599 CURVE SMOOTH",
"27 -599 OFFCURVE",
"19 -599 OFFCURVE",
"11 -598 CURVE",
"53 -689 LINE"
);
},
{
closed = 1;
nodes = (
"602 2251 OFFCURVE",
"666 2290 OFFCURVE",
"763 2368 CURVE SMOOTH",
"830 2421 OFFCURVE",
"871 2455 OFFCURVE",
"886 2470 CURVE SMOOTH",
"895 2479 OFFCURVE",
"899 2489 OFFCURVE",
"899 2500 CURVE SMOOTH",
"899 2517 OFFCURVE",
"890 2526 OFFCURVE",
"874 2526 CURVE SMOOTH",
"822 2526 OFFCURVE",
"775 2536 OFFCURVE",
"734 2556 CURVE SMOOTH",
"707 2569 OFFCURVE",
"680 2586 OFFCURVE",
"651 2609 CURVE SMOOTH",
"631 2624 OFFCURVE",
"616 2632 OFFCURVE",
"606 2632 CURVE SMOOTH",
"588 2632 OFFCURVE",
"549 2608 OFFCURVE",
"489 2559 CURVE SMOOTH",
"406 2492 OFFCURVE",
"364 2448 OFFCURVE",
"364 2429 CURVE SMOOTH",
"364 2404 OFFCURVE",
"389 2368 OFFCURVE",
"439 2323 CURVE SMOOTH",
"492 2275 OFFCURVE",
"536 2251 OFFCURVE",
"573 2251 CURVE",
"573 2251 LINE"
);
}
);
width = 1140;
}
);
leftKerningGroup = j;
note = j;
rightKerningGroup = j;
unicode = 006A;
},
{
glyphname = jdotless;
lastChange = "2021-08-12 00:41:17 +0000";
layers = (
{
anchors = (
{
name = bottom;
position = "{536, -1600}";
},
{
name = top;
position = "{630, 1896}";
}
);
layerId = "274E8830-0A80-4149-8BE8-CF3C4CCD3F6F";
paths = (
{
closed = 1;
nodes = (
"53 -689 LINE",
"118 -674 OFFCURVE",
"169 -663 OFFCURVE",
"206 -656 CURVE SMOOTH",
"604 -580 OFFCURVE",
"799 -376 OFFCURVE",
"792 -44 CURVE SMOOTH",
"779 537 LINE",
"772 1073 LINE SMOOTH",
"772 1104 OFFCURVE",
"771 1134 OFFCURVE",
"771 1164 CURVE SMOOTH",
"771 1462 OFFCURVE",
"790 1697 OFFCURVE",
"829 1868 CURVE SMOOTH",
"830 1874 OFFCURVE",
"831 1880 OFFCURVE",
"831 1886 CURVE SMOOTH",
"831 1908 OFFCURVE",
"816 1919 OFFCURVE",
"786 1919 CURVE SMOOTH",
"773 1919 OFFCURVE",
"740 1914 OFFCURVE",
"685 1905 CURVE SMOOTH",
"630 1896 OFFCURVE",
"586 1893 OFFCURVE",
"551 1894 CURVE SMOOTH",
"350 1899 OFFCURVE",
"218 1904 OFFCURVE",
"155 1910 CURVE",
"119 1836 LINE",
"168 1845 OFFCURVE",
"213 1850 OFFCURVE",
"254 1850 CURVE SMOOTH",
"334 1850 OFFCURVE",
"398 1832 OFFCURVE",
"447 1798 CURVE",
"501 1747 OFFCURVE",
"529 1516 OFFCURVE",
"528 1104 CURVE SMOOTH",
"526 477 LINE SMOOTH",
"525 86 OFFCURVE",
"489 -191 OFFCURVE",
"418 -353 CURVE SMOOTH",
"381 -436 OFFCURVE",
"320 -501 OFFCURVE",
"235 -546 CURVE SMOOTH",
"168 -581 OFFCURVE",
"102 -599 OFFCURVE",
"36 -599 CURVE SMOOTH",
"27 -599 OFFCURVE",
"19 -599 OFFCURVE",
"11 -598 CURVE",
"53 -689 LINE"
);
}
);
width = 1072;
}
);
leftKerningGroup = j;
rightKerningGroup = j;
unicode = 0237;
},
{
glyphname = k;
lastChange = "2021-08-12 00:41:17 +0000";
layers = (
{
anchors = (
{
name = bottom;
position = "{1412, 0}";
},
{
name = top;
position = "{661, 2651}";
}
);
layerId = "274E8830-0A80-4149-8BE8-CF3C4CCD3F6F";
paths = (
{
closed = 1;
nodes = (
"2 -10 LINE",
"377 17 OFFCURVE",
"588 32 OFFCURVE",
"635 33 CURVE",
"930 24 OFFCURVE",
"1114 10 OFFCURVE",
"1185 -10 CURVE",
"1226 76 LINE",
"1204 74 OFFCURVE",
"1181 72 OFFCURVE",
"1159 72 CURVE SMOOTH",
"1095 72 OFFCURVE",
"1030 82 OFFCURVE",
"964 102 CURVE SMOOTH",
"855 135 OFFCURVE",
"794 186 OFFCURVE",
"781 257 CURVE SMOOTH",
"758 383 OFFCURVE",
"747 663 OFFCURVE",
"747 1098 CURVE SMOOTH",
"747 1370 LINE SMOOTH",
"747 1986 OFFCURVE",
"766 2398 OFFCURVE",
"805 2606 CURVE SMOOTH",
"806 2614 OFFCURVE",
"807 2621 OFFCURVE",
"807 2627 CURVE SMOOTH",
"807 2654 OFFCURVE",
"792 2667 OFFCURVE",
"762 2667 CURVE SMOOTH",
"749 2667 OFFCURVE",
"716 2662 OFFCURVE",
"661 2651 CURVE SMOOTH",
"606 2640 OFFCURVE",
"562 2636 OFFCURVE",
"527 2637 CURVE SMOOTH",
"326 2643 OFFCURVE",
"194 2649 OFFCURVE",
"131 2656 CURVE",
"95 2580 LINE",
"144 2591 OFFCURVE",
"189 2596 OFFCURVE",
"230 2596 CURVE SMOOTH",
"310 2596 OFFCURVE",
"374 2576 OFFCURVE",
"423 2534 CURVE",
"478 2472 OFFCURVE",
"506 2190 OFFCURVE",
"505 1687 CURVE SMOOTH",
"504 1102 LINE SMOOTH",
"503 625 OFFCURVE",
"493 343 OFFCURVE",
"472 257 CURVE SMOOTH",
"456 190 OFFCURVE",
"404 139 OFFCURVE",
"317 104 CURVE SMOOTH",
"250 77 OFFCURVE",
"176 64 OFFCURVE",
"96 64 CURVE SMOOTH",
"71 64 OFFCURVE",
"51 65 OFFCURVE",
"35 68 CURVE",
"2 -10 LINE"
);
},
{
closed = 1;
nodes = (
"2212 -30 OFFCURVE",
"2273 -23 OFFCURVE",
"2330 -10 CURVE",
"2372 76 LINE",
"2321 67 OFFCURVE",
"2282 63 OFFCURVE",
"2253 63 CURVE SMOOTH",
"2120 63 OFFCURVE",
"1994 117 OFFCURVE",
"1874 225 CURVE SMOOTH",
"1725 360 OFFCURVE",
"1535 562 OFFCURVE",
"1304 833 CURVE SMOOTH",
"1146 1018 OFFCURVE",
"1058 1124 OFFCURVE",
"1039 1149 CURVE",
"1226 1399 OFFCURVE",
"1468 1605 OFFCURVE",
"1764 1766 CURVE SMOOTH",
"1845 1810 OFFCURVE",
"1958 1832 OFFCURVE",
"2103 1832 CURVE",
"2139 1908 LINE",
"1944 1892 OFFCURVE",
"1775 1881 OFFCURVE",
"1631 1876 CURVE",
"1428 1890 OFFCURVE",
"1271 1900 OFFCURVE",
"1161 1907 CURVE",
"1117 1839 LINE",
"1143 1844 OFFCURVE",
"1167 1847 OFFCURVE",
"1189 1847 CURVE SMOOTH",
"1286 1847 OFFCURVE",
"1339 1800 OFFCURVE",
"1347 1705 CURVE SMOOTH",
"1353 1628 OFFCURVE",
"1180 1445 OFFCURVE",
"827 1157 CURVE SMOOTH",
"794 1129 OFFCURVE",
"777 1106 OFFCURVE",
"777 1089 CURVE SMOOTH",
"777 1074 OFFCURVE",
"789 1050 OFFCURVE",
"813 1018 CURVE SMOOTH",
"1015 751 OFFCURVE",
"1200 524 OFFCURVE",
"1369 339 CURVE SMOOTH",
"1502 192 OFFCURVE",
"1617 95 OFFCURVE",
"1714 48 CURVE SMOOTH",
"1819 -3 OFFCURVE",
"1964 -29 OFFCURVE",
"2147 -30 CURVE",
"2147 -30 LINE"
);
}
);
width = 2374;
}
);
leftKerningGroup = h;
leftMetricsKey = h;
note = k;
rightKerningGroup = k;
unicode = 006B;
},
{
glyphname = kgreenlandic;
lastChange = "2021-08-12 00:41:17 +0000";
layers = (
{
layerId = "274E8830-0A80-4149-8BE8-CF3C4CCD3F6F";
paths = (
{
closed = 1;
nodes = (
"2266 -30 OFFCURVE",
"2327 -23 OFFCURVE",
"2384 -10 CURVE",
"2426 76 LINE",
"2375 67 OFFCURVE",
"2336 63 OFFCURVE",
"2307 63 CURVE SMOOTH",
"2174 63 OFFCURVE",
"2048 117 OFFCURVE",
"1928 225 CURVE SMOOTH",
"1779 360 OFFCURVE",
"1589 562 OFFCURVE",
"1358 833 CURVE SMOOTH",
"1200 1018 OFFCURVE",
"1112 1124 OFFCURVE",
"1093 1149 CURVE",
"1280 1399 OFFCURVE",
"1522 1605 OFFCURVE",
"1818 1766 CURVE SMOOTH",
"1899 1810 OFFCURVE",
"2012 1832 OFFCURVE",
"2157 1832 CURVE",
"2193 1908 LINE",
"1998 1892 OFFCURVE",
"1829 1881 OFFCURVE",
"1685 1876 CURVE",
"1482 1890 OFFCURVE",
"1325 1900 OFFCURVE",
"1215 1907 CURVE",
"1171 1839 LINE",
"1197 1844 OFFCURVE",
"1221 1847 OFFCURVE",
"1243 1847 CURVE SMOOTH",
"1340 1847 OFFCURVE",
"1393 1800 OFFCURVE",
"1401 1705 CURVE SMOOTH",
"1407 1628 OFFCURVE",
"1234 1445 OFFCURVE",
"881 1157 CURVE SMOOTH",
"848 1129 OFFCURVE",
"831 1106 OFFCURVE",
"831 1089 CURVE SMOOTH",
"831 1074 OFFCURVE",
"843 1050 OFFCURVE",
"867 1018 CURVE SMOOTH",
"1069 751 OFFCURVE",
"1254 524 OFFCURVE",
"1423 339 CURVE SMOOTH",
"1556 192 OFFCURVE",
"1671 95 OFFCURVE",
"1768 48 CURVE SMOOTH",
"1873 -3 OFFCURVE",
"2018 -29 OFFCURVE",
"2201 -30 CURVE",
"2201 -30 LINE"
);
},
{
closed = 1;
nodes = (
"56 -10 LINE",
"431 17 OFFCURVE",
"642 32 OFFCURVE",
"689 33 CURVE",
"984 24 OFFCURVE",
"1168 10 OFFCURVE",
"1239 -10 CURVE",
"1280 76 LINE",
"1258 74 OFFCURVE",
"1235 72 OFFCURVE",
"1213 72 CURVE SMOOTH",
"1149 72 OFFCURVE",
"1084 82 OFFCURVE",
"1018 102 CURVE SMOOTH",
"909 135 OFFCURVE",
"848 186 OFFCURVE",
"835 257 CURVE SMOOTH",
"812 383 OFFCURVE",
"801 663 OFFCURVE",
"801 1098 CURVE SMOOTH",
"801 1399 LINE SMOOTH",
"801 1659 OFFCURVE",
"820 1740 OFFCURVE",
"859 1890 CURVE SMOOTH",
"860 1896 OFFCURVE",
"861 1901 OFFCURVE",
"861 1905 CURVE SMOOTH",
"861 1925 OFFCURVE",
"846 1934 OFFCURVE",
"816 1934 CURVE SMOOTH",
"803 1934 OFFCURVE",
"770 1931 OFFCURVE",
"715 1922 CURVE SMOOTH",
"660 1914 OFFCURVE",
"616 1912 OFFCURVE",
"581 1912 CURVE SMOOTH",
"380 1917 OFFCURVE",
"248 1921 OFFCURVE",
"185 1926 CURVE",
"149 1872 LINE",
"197 1880 OFFCURVE",
"241 1883 OFFCURVE",
"281 1883 CURVE SMOOTH",
"362 1883 OFFCURVE",
"428 1868 OFFCURVE",
"477 1838 CURVE",
"532 1793 OFFCURVE",
"559 1590 OFFCURVE",
"559 1443 CURVE SMOOTH",
"558 1102 LINE SMOOTH",
"557 625 OFFCURVE",
"547 343 OFFCURVE",
"526 257 CURVE SMOOTH",
"510 190 OFFCURVE",
"458 139 OFFCURVE",
"371 104 CURVE SMOOTH",
"304 77 OFFCURVE",
"230 64 OFFCURVE",
"150 64 CURVE SMOOTH",
"125 64 OFFCURVE",
"105 65 OFFCURVE",
"89 68 CURVE",
"56 -10 LINE"
);
}
);
width = 2428;
}
);
leftKerningGroup = h;
rightKerningGroup = k;
unicode = 0138;
},
{
glyphname = l;
lastChange = "2021-08-12 00:41:17 +0000";
layers = (
{
anchors = (
{
name = bottom;
position = "{635, 0}";
},
{
name = center;
position = "{956, 1606}";
},
{
name = top;
position = "{606, 2640}";
},
{
name = topright;
position = "{1148, 2681}";
}
);
layerId = "274E8830-0A80-4149-8BE8-CF3C4CCD3F6F";
paths = (
{
closed = 1;
nodes = (
"2 -10 LINE",
"377 17 OFFCURVE",
"588 32 OFFCURVE",
"635 33 CURVE",
"921 24 OFFCURVE",
"1100 10 OFFCURVE",
"1172 -10 CURVE",
"1214 80 LINE",
"1188 77 OFFCURVE",
"1161 76 OFFCURVE",
"1136 76 CURVE SMOOTH",
"1075 76 OFFCURVE",
"1016 83 OFFCURVE",
"959 98 CURVE SMOOTH",
"853 127 OFFCURVE",
"794 176 OFFCURVE",
"781 247 CURVE SMOOTH",
"758 373 OFFCURVE",
"747 657 OFFCURVE",
"747 1098 CURVE SMOOTH",
"747 1370 LINE SMOOTH",
"747 1986 OFFCURVE",
"766 2398 OFFCURVE",
"805 2606 CURVE SMOOTH",
"806 2614 OFFCURVE",
"807 2621 OFFCURVE",
"807 2627 CURVE SMOOTH",
"807 2654 OFFCURVE",
"792 2667 OFFCURVE",
"762 2667 CURVE SMOOTH",
"749 2667 OFFCURVE",
"716 2662 OFFCURVE",
"661 2651 CURVE SMOOTH",
"606 2640 OFFCURVE",
"562 2636 OFFCURVE",
"527 2637 CURVE SMOOTH",
"326 2643 OFFCURVE",
"194 2649 OFFCURVE",
"131 2656 CURVE",
"95 2580 LINE",
"144 2591 OFFCURVE",
"189 2596 OFFCURVE",
"230 2596 CURVE SMOOTH",
"310 2596 OFFCURVE",
"374 2576 OFFCURVE",
"423 2534 CURVE",
"478 2472 OFFCURVE",
"506 2190 OFFCURVE",
"505 1687 CURVE SMOOTH",
"504 1102 LINE SMOOTH",
"503 618 OFFCURVE",
"488 333 OFFCURVE",
"467 247 CURVE SMOOTH",
"438 124 OFFCURVE",
"319 63 OFFCURVE",
"111 63 CURVE SMOOTH",
"82 63 OFFCURVE",
"59 65 OFFCURVE",
"40 68 CURVE",
"2 -10 LINE"
);
}
);
width = 1204;
}
);
leftKerningGroup = h;
leftMetricsKey = h;
note = l;
rightKerningGroup = l;
unicode = 006C;
},
{
glyphname = m;
lastChange = "2021-08-12 00:41:17 +0000";
layers = (
{
layerId = "274E8830-0A80-4149-8BE8-CF3C4CCD3F6F";
paths = (
{
closed = 1;
nodes = (
"1106 82 LINE",
"922 82 OFFCURVE",
"820 137 OFFCURVE",
"801 247 CURVE SMOOTH",
"778 377 OFFCURVE",
"766 661 OFFCURVE",
"766 1098 CURVE SMOOTH",
"766 1362 LINE SMOOTH",
"767 1429 OFFCURVE",
"767 1475 OFFCURVE",
"767 1498 CURVE",
"814 1570 OFFCURVE",
"887 1636 OFFCURVE",
"986 1695 CURVE SMOOTH",
"1074 1747 OFFCURVE",
"1150 1778 OFFCURVE",
"1213 1787 CURVE SMOOTH",
"1238 1790 OFFCURVE",
"1262 1792 OFFCURVE",
"1284 1792 CURVE SMOOTH",
"1495 1792 OFFCURVE",
"1598 1592 OFFCURVE",
"1594 1193 CURVE SMOOTH",
"1595 616 LINE",
"1595 573 LINE SMOOTH",
"1595 411 OFFCURVE",
"1584 296 OFFCURVE",
"1561 227 CURVE SMOOTH",
"1546 185 OFFCURVE",
"1518 149 OFFCURVE",
"1476 118 CURVE SMOOTH",
"1434 87 OFFCURVE",
"1393 72 OFFCURVE",
"1352 72 CURVE SMOOTH",
"1343 72 OFFCURVE",
"1335 73 OFFCURVE",
"1326 74 CURVE",
"1293 -2 LINE",
"1415 13 OFFCURVE",
"1541 20 OFFCURVE",
"1671 20 CURVE SMOOTH",
"1819 20 OFFCURVE",
"1972 11 OFFCURVE",
"2131 -8 CURVE",
"2162 76 LINE",
"2151 74 OFFCURVE",
"2139 73 OFFCURVE",
"2126 73 CURVE SMOOTH",
"2077 73 OFFCURVE",
"2031 85 OFFCURVE",
"1986 110 CURVE SMOOTH",
"1935 139 OFFCURVE",
"1905 176 OFFCURVE",
"1895 222 CURVE",
"1878 393 OFFCURVE",
"1869 530 OFFCURVE",
"1867 632 CURVE SMOOTH",
"1860 808 OFFCURVE",
"1856 965 OFFCURVE",
"1856 1102 CURVE SMOOTH",
"1854 1253 LINE SMOOTH",
"1852 1358 OFFCURVE",
"1851 1438 OFFCURVE",
"1851 1493 CURVE",
"1913 1562 OFFCURVE",
"1992 1628 OFFCURVE",
"2089 1689 CURVE SMOOTH",
"2180 1747 OFFCURVE",
"2251 1780 OFFCURVE",
"2301 1787 CURVE SMOOTH",
"2326 1790 OFFCURVE",
"2350 1792 OFFCURVE",
"2372 1792 CURVE SMOOTH",
"2583 1792 OFFCURVE",
"2686 1592 OFFCURVE",
"2682 1193 CURVE SMOOTH",
"2681 616 LINE SMOOTH",
"2680 425 OFFCURVE",
"2667 295 OFFCURVE",
"2642 227 CURVE SMOOTH",
"2626 184 OFFCURVE",
"2594 147 OFFCURVE",
"2546 116 CURVE SMOOTH",
"2498 85 OFFCURVE",
"2451 70 OFFCURVE",
"2405 70 CURVE SMOOTH",
"2395 70 OFFCURVE",
"2386 71 OFFCURVE",
"2377 72 CURVE",
"2335 -12 LINE",
"2530 9 OFFCURVE",
"2722 19 OFFCURVE",
"2911 19 CURVE SMOOTH",
"3087 19 OFFCURVE",
"3261 10 OFFCURVE",
"3432 -8 CURVE",
"3469 77 LINE",
"3450 72 OFFCURVE",
"3418 69 OFFCURVE",
"3371 69 CURVE SMOOTH",
"3138 69 OFFCURVE",
"3010 120 OFFCURVE",
"2985 222 CURVE SMOOTH",
"2964 308 OFFCURVE",
"2954 445 OFFCURVE",
"2954 632 CURVE SMOOTH",
"2952 1125 LINE SMOOTH",
"2952 1119 OFFCURVE",
"2952 1181 OFFCURVE",
"2951 1310 CURVE SMOOTH",
"2950 1421 OFFCURVE",
"2950 1521 OFFCURVE",
"2950 1608 CURVE SMOOTH",
"2950 1795 OFFCURVE",
"2842 1907 OFFCURVE",
"2627 1945 CURVE SMOOTH",
"2587 1952 OFFCURVE",
"2547 1956 OFFCURVE",
"2507 1956 CURVE SMOOTH",
"2354 1956 OFFCURVE",
"2218 1908 OFFCURVE",
"2097 1812 CURVE SMOOTH",
"2030 1759 OFFCURVE",
"1948 1703 OFFCURVE",
"1850 1643 CURVE",
"1840 1810 OFFCURVE",
"1736 1910 OFFCURVE",
"1539 1945 CURVE SMOOTH",
"1499 1952 OFFCURVE",
"1459 1956 OFFCURVE",
"1419 1956 CURVE SMOOTH",
"1266 1956 OFFCURVE",
"1130 1908 OFFCURVE",
"1009 1812 CURVE SMOOTH",
"923 1744 OFFCURVE",
"843 1689 OFFCURVE",
"768 1648 CURVE",
"777 1728 OFFCURVE",
"786 1794 OFFCURVE",
"796 1847 CURVE SMOOTH",
"798 1857 OFFCURVE",
"799 1866 OFFCURVE",
"799 1873 CURVE SMOOTH",
"799 1902 OFFCURVE",
"782 1917 OFFCURVE",
"748 1917 CURVE SMOOTH",
"737 1917 OFFCURVE",
"707 1914 OFFCURVE",
"660 1907 CURVE SMOOTH",
"615 1901 OFFCURVE",
"577 1898 OFFCURVE",
"546 1899 CURVE SMOOTH",
"277 1907 OFFCURVE",
"121 1914 OFFCURVE",
"76 1919 CURVE",
"40 1842 LINE",
"74 1850 OFFCURVE",
"115 1854 OFFCURVE",
"162 1854 CURVE SMOOTH",
"188 1854 OFFCURVE",
"217 1852 OFFCURVE",
"247 1850 CURVE SMOOTH",
"343 1843 OFFCURVE",
"408 1825 OFFCURVE",
"442 1796 CURVE",
"497 1734 OFFCURVE",
"524 1509 OFFCURVE",
"524 1123 CURVE SMOOTH",
"524 636 OFFCURVE",
"510 348 OFFCURVE",
"488 257 CURVE SMOOTH",
"472 190 OFFCURVE",
"420 139 OFFCURVE",
"333 104 CURVE SMOOTH",
"266 77 OFFCURVE",
"192 64 OFFCURVE",
"112 64 CURVE SMOOTH",
"87 64 OFFCURVE",
"67 65 OFFCURVE",
"51 68 CURVE",
"12 -10 LINE",
"348 16 OFFCURVE",
"547 30 OFFCURVE",
"608 31 CURVE SMOOTH",
"626 31 OFFCURVE",
"645 32 OFFCURVE",
"662 32 CURVE SMOOTH",
"814 32 OFFCURVE",
"944 16 OFFCURVE",
"1052 -14 CURVE",
"1052 -14 LINE"
);
}
);
width = 3469;
}
);
leftKerningGroup = n;
leftMetricsKey = n;
note = m;
rightKerningGroup = n;
rightMetricsKey = n;
unicode = 006D;
},
{
glyphname = n;
lastChange = "2021-08-12 00:41:17 +0000";
layers = (
{
anchors = (
{
name = bottom;
position = "{1237, 0}";
},
{
name = top;
position = "{1423, 1912}";
}
);
layerId = "274E8830-0A80-4149-8BE8-CF3C4CCD3F6F";
paths = (
{
closed = 1;
nodes = (
"1342 -12 LINE",
"1559 11 OFFCURVE",
"1743 22 OFFCURVE",
"1894 22 CURVE SMOOTH",
"2066 22 OFFCURVE",
"2248 12 OFFCURVE",
"2439 -8 CURVE",
"2483 76 LINE",
"2462 72 OFFCURVE",
"2430 70 OFFCURVE",
"2385 70 CURVE SMOOTH",
"2148 70 OFFCURVE",
"2017 121 OFFCURVE",
"1993 222 CURVE",
"1974 393 OFFCURVE",
"1964 530 OFFCURVE",
"1962 632 CURVE SMOOTH",
"1954 808 OFFCURVE",
"1950 965 OFFCURVE",
"1950 1102 CURVE SMOOTH",
"1947 1298 LINE SMOOTH",
"1945 1417 OFFCURVE",
"1945 1520 OFFCURVE",
"1945 1605 CURVE SMOOTH",
"1945 1795 OFFCURVE",
"1831 1908 OFFCURVE",
"1603 1945 CURVE SMOOTH",
"1559 1952 OFFCURVE",
"1515 1956 OFFCURVE",
"1471 1956 CURVE SMOOTH",
"1304 1956 OFFCURVE",
"1154 1908 OFFCURVE",
"1022 1812 CURVE SMOOTH",
"951 1761 OFFCURVE",
"863 1706 OFFCURVE",
"758 1648 CURVE",
"767 1728 OFFCURVE",
"776 1794 OFFCURVE",
"786 1847 CURVE SMOOTH",
"788 1857 OFFCURVE",
"789 1866 OFFCURVE",
"789 1873 CURVE SMOOTH",
"789 1902 OFFCURVE",
"772 1917 OFFCURVE",
"738 1917 CURVE SMOOTH",
"727 1917 OFFCURVE",
"697 1914 OFFCURVE",
"650 1907 CURVE SMOOTH",
"605 1901 OFFCURVE",
"567 1898 OFFCURVE",
"536 1899 CURVE SMOOTH",
"267 1907 OFFCURVE",
"111 1914 OFFCURVE",
"66 1919 CURVE",
"30 1842 LINE",
"64 1850 OFFCURVE",
"105 1854 OFFCURVE",
"152 1854 CURVE SMOOTH",
"178 1854 OFFCURVE",
"207 1852 OFFCURVE",
"237 1850 CURVE SMOOTH",
"333 1843 OFFCURVE",
"398 1825 OFFCURVE",
"432 1796 CURVE",
"487 1734 OFFCURVE",
"514 1509 OFFCURVE",
"514 1123 CURVE SMOOTH",
"514 632 OFFCURVE",
"500 341 OFFCURVE",
"477 247 CURVE SMOOTH",
"448 128 OFFCURVE",
"305 68 OFFCURVE",
"46 68 CURVE",
"12 -10 LINE",
"387 17 OFFCURVE",
"598 32 OFFCURVE",
"645 33 CURVE",
"849 27 OFFCURVE",
"987 14 OFFCURVE",
"1058 -6 CURVE",
"1098 75 LINE",
"913 75 OFFCURVE",
"811 132 OFFCURVE",
"791 247 CURVE SMOOTH",
"768 373 OFFCURVE",
"757 657 OFFCURVE",
"757 1098 CURVE SMOOTH",
"757 1498 LINE",
"804 1569 OFFCURVE",
"884 1635 OFFCURVE",
"999 1695 CURVE SMOOTH",
"1098 1747 OFFCURVE",
"1185 1778 OFFCURVE",
"1259 1787 CURVE SMOOTH",
"1288 1790 OFFCURVE",
"1314 1792 OFFCURVE",
"1338 1792 CURVE SMOOTH",
"1575 1792 OFFCURVE",
"1686 1592 OFFCURVE",
"1687 1193 CURVE SMOOTH",
"1688 616 LINE",
"1688 573 LINE SMOOTH",
"1688 411 OFFCURVE",
"1675 296 OFFCURVE",
"1649 227 CURVE SMOOTH",
"1633 185 OFFCURVE",
"1601 149 OFFCURVE",
"1554 118 CURVE SMOOTH",
"1507 87 OFFCURVE",
"1460 72 OFFCURVE",
"1415 72 CURVE SMOOTH",
"1404 72 OFFCURVE",
"1395 73 OFFCURVE",
"1386 74 CURVE",
"1342 -12 LINE"
);
}
);
width = 2483;
}
);
leftKerningGroup = n;
note = n;
rightKerningGroup = n;
unicode = 006E;
},
{
color = 3;
glyphname = eng;
lastChange = "2021-08-12 00:41:17 +0000";
layers = (
{
layerId = "274E8830-0A80-4149-8BE8-CF3C4CCD3F6F";
paths = (
{
closed = 1;
nodes = (
"1833 -1398 OFFCURVE",
"1999 -1098 OFFCURVE",
"1999 -599 CURVE SMOOTH",
"1999 -791 OFFCURVE",
"1994 1102 OFFCURVE",
"1994 1102 CURVE",
"1991 1298 LINE SMOOTH",
"1989 1417 OFFCURVE",
"1989 1520 OFFCURVE",
"1989 1605 CURVE SMOOTH",
"1989 1795 OFFCURVE",
"1875 1908 OFFCURVE",
"1647 1945 CURVE SMOOTH",
"1603 1952 OFFCURVE",
"1559 1956 OFFCURVE",
"1515 1956 CURVE SMOOTH",
"1348 1956 OFFCURVE",
"1198 1908 OFFCURVE",
"1066 1812 CURVE SMOOTH",
"995 1761 OFFCURVE",
"907 1706 OFFCURVE",
"802 1648 CURVE",
"811 1728 OFFCURVE",
"820 1794 OFFCURVE",
"830 1847 CURVE SMOOTH",
"832 1857 OFFCURVE",
"833 1866 OFFCURVE",
"833 1873 CURVE SMOOTH",
"833 1902 OFFCURVE",
"816 1917 OFFCURVE",
"782 1917 CURVE SMOOTH",
"771 1917 OFFCURVE",
"741 1914 OFFCURVE",
"694 1907 CURVE SMOOTH",
"649 1901 OFFCURVE",
"611 1898 OFFCURVE",
"580 1899 CURVE SMOOTH",
"311 1907 OFFCURVE",
"155 1914 OFFCURVE",
"110 1919 CURVE",
"74 1842 LINE",
"108 1850 OFFCURVE",
"149 1854 OFFCURVE",
"196 1854 CURVE SMOOTH",
"222 1854 OFFCURVE",
"251 1852 OFFCURVE",
"281 1850 CURVE SMOOTH",
"377 1843 OFFCURVE",
"442 1825 OFFCURVE",
"476 1796 CURVE",
"531 1734 OFFCURVE",
"558 1509 OFFCURVE",
"558 1123 CURVE SMOOTH",
"558 632 OFFCURVE",
"544 341 OFFCURVE",
"521 247 CURVE SMOOTH",
"492 128 OFFCURVE",
"349 68 OFFCURVE",
"90 68 CURVE",
"56 -10 LINE",
"431 17 OFFCURVE",
"642 32 OFFCURVE",
"689 33 CURVE",
"893 27 OFFCURVE",
"1031 14 OFFCURVE",
"1102 -6 CURVE",
"1142 75 LINE",
"957 75 OFFCURVE",
"855 132 OFFCURVE",
"835 247 CURVE SMOOTH",
"812 373 OFFCURVE",
"801 657 OFFCURVE",
"801 1098 CURVE SMOOTH",
"801 1498 LINE",
"848 1569 OFFCURVE",
"928 1635 OFFCURVE",
"1043 1695 CURVE SMOOTH",
"1142 1747 OFFCURVE",
"1229 1778 OFFCURVE",
"1303 1787 CURVE SMOOTH",
"1332 1790 OFFCURVE",
"1358 1792 OFFCURVE",
"1382 1792 CURVE SMOOTH",
"1619 1792 OFFCURVE",
"1735 1592 OFFCURVE",
"1731 1193 CURVE SMOOTH",
"1732 558 OFFCURVE",
"1752 46 OFFCURVE",
"1752 -380 CURVE SMOOTH",
"1752 -513 OFFCURVE",
"1750 -637 OFFCURVE",
"1745 -754 CURVE SMOOTH",
"1729 -1125 OFFCURVE",
"1558 -1294 OFFCURVE",
"1305 -1294 CURVE SMOOTH",
"1166 -1294 OFFCURVE",
"1082 -1219 OFFCURVE",
"1051 -1071 CURVE SMOOTH",
"1043 -1033 OFFCURVE",
"1040 -982 OFFCURVE",
"1040 -928 CURVE SMOOTH",
"1040 -833 OFFCURVE",
"1050 -727 OFFCURVE",
"1063 -655 CURVE",
"975 -641 LINE",
"947 -1003 OFFCURVE",
"889 -1269 OFFCURVE",
"835 -1269 CURVE",
"838 -1284 LINE",
"1088 -1388 OFFCURVE",
"1298 -1398 OFFCURVE",
"1522 -1398 CURVE",
"1522 -1398 LINE"
);
}
);
width = 2352;
}
);
leftKerningGroup = n;
rightKerningGroup = j;
unicode = 014B;
},
{
glyphname = ntilde;
lastChange = "2021-08-12 00:41:17 +0000";
layers = (
{
layerId = "274E8830-0A80-4149-8BE8-CF3C4CCD3F6F";
paths = (
{
closed = 1;
nodes = (
"1386 -12 LINE",
"1603 11 OFFCURVE",
"1787 22 OFFCURVE",
"1938 22 CURVE SMOOTH",
"2110 22 OFFCURVE",
"2292 12 OFFCURVE",
"2483 -8 CURVE",
"2527 76 LINE",
"2506 72 OFFCURVE",
"2474 70 OFFCURVE",
"2429 70 CURVE SMOOTH",
"2192 70 OFFCURVE",
"2061 121 OFFCURVE",
"2037 222 CURVE",
"2018 393 OFFCURVE",
"2008 530 OFFCURVE",
"2006 632 CURVE SMOOTH",
"1998 808 OFFCURVE",
"1994 965 OFFCURVE",
"1994 1102 CURVE SMOOTH",
"1991 1298 LINE SMOOTH",
"1989 1417 OFFCURVE",
"1989 1520 OFFCURVE",
"1989 1605 CURVE SMOOTH",
"1989 1795 OFFCURVE",
"1875 1908 OFFCURVE",
"1647 1945 CURVE SMOOTH",
"1603 1952 OFFCURVE",
"1559 1956 OFFCURVE",
"1515 1956 CURVE SMOOTH",
"1348 1956 OFFCURVE",
"1198 1908 OFFCURVE",
"1066 1812 CURVE SMOOTH",
"995 1761 OFFCURVE",
"907 1706 OFFCURVE",
"802 1648 CURVE",
"811 1728 OFFCURVE",
"820 1794 OFFCURVE",
"830 1847 CURVE SMOOTH",
"832 1857 OFFCURVE",
"833 1866 OFFCURVE",
"833 1873 CURVE SMOOTH",
"833 1902 OFFCURVE",
"816 1917 OFFCURVE",
"782 1917 CURVE SMOOTH",
"771 1917 OFFCURVE",
"741 1914 OFFCURVE",
"694 1907 CURVE SMOOTH",
"649 1901 OFFCURVE",
"611 1898 OFFCURVE",
"580 1899 CURVE SMOOTH",
"311 1907 OFFCURVE",
"155 1914 OFFCURVE",
"110 1919 CURVE",
"74 1842 LINE",
"108 1850 OFFCURVE",
"149 1854 OFFCURVE",
"196 1854 CURVE SMOOTH",
"222 1854 OFFCURVE",
"251 1852 OFFCURVE",
"281 1850 CURVE SMOOTH",
"377 1843 OFFCURVE",
"442 1825 OFFCURVE",
"476 1796 CURVE",
"531 1734 OFFCURVE",
"558 1509 OFFCURVE",
"558 1123 CURVE SMOOTH",
"558 632 OFFCURVE",
"544 341 OFFCURVE",
"521 247 CURVE SMOOTH",
"492 128 OFFCURVE",
"349 68 OFFCURVE",
"90 68 CURVE",
"56 -10 LINE",
"431 17 OFFCURVE",
"642 32 OFFCURVE",
"689 33 CURVE",
"893 27 OFFCURVE",
"1031 14 OFFCURVE",
"1102 -6 CURVE",
"1142 75 LINE",
"957 75 OFFCURVE",
"855 132 OFFCURVE",
"835 247 CURVE SMOOTH",
"812 373 OFFCURVE",
"801 657 OFFCURVE",
"801 1098 CURVE SMOOTH",
"801 1498 LINE",
"848 1569 OFFCURVE",
"928 1635 OFFCURVE",
"1043 1695 CURVE SMOOTH",
"1142 1747 OFFCURVE",
"1229 1778 OFFCURVE",
"1303 1787 CURVE SMOOTH",
"1332 1790 OFFCURVE",
"1358 1792 OFFCURVE",
"1382 1792 CURVE SMOOTH",
"1619 1792 OFFCURVE",
"1735 1592 OFFCURVE",
"1731 1193 CURVE SMOOTH",
"1732 616 LINE",
"1732 573 LINE SMOOTH",
"1732 411 OFFCURVE",
"1719 296 OFFCURVE",
"1693 227 CURVE SMOOTH",
"1677 185 OFFCURVE",
"1645 149 OFFCURVE",
"1598 118 CURVE SMOOTH",
"1551 87 OFFCURVE",
"1504 72 OFFCURVE",
"1459 72 CURVE SMOOTH",
"1448 72 OFFCURVE",
"1439 73 OFFCURVE",
"1430 74 CURVE",
"1386 -12 LINE"
);
},
{
closed = 1;
nodes = (
"1510 2268 OFFCURVE",
"1553 2284 OFFCURVE",
"1597 2316 CURVE SMOOTH",
"1672 2370 OFFCURVE",
"1731 2461 OFFCURVE",
"1774 2590 CURVE",
"1790 2648 LINE",
"1731 2648 LINE",
"1715 2597 OFFCURVE",
"1687 2550 OFFCURVE",
"1648 2508 CURVE SMOOTH",
"1617 2475 OFFCURVE",
"1582 2459 OFFCURVE",
"1542 2459 CURVE SMOOTH",
"1524 2459 OFFCURVE",
"1505 2462 OFFCURVE",
"1485 2469 CURVE",
"1379 2529 OFFCURVE",
"1298 2581 OFFCURVE",
"1241 2624 CURVE",
"1205 2646 OFFCURVE",
"1166 2657 OFFCURVE",
"1125 2657 CURVE SMOOTH",
"1064 2657 OFFCURVE",
"1006 2635 OFFCURVE",
"949 2591 CURVE SMOOTH",
"886 2542 OFFCURVE",
"839 2487 OFFCURVE",
"808 2424 CURVE SMOOTH",
"784 2377 OFFCURVE",
"766 2330 OFFCURVE",
"755 2284 CURVE",
"817 2284 LINE",
"850 2367 OFFCURVE",
"888 2423 OFFCURVE",
"929 2452 CURVE SMOOTH",
"956 2471 OFFCURVE",
"986 2481 OFFCURVE",
"1018 2481 CURVE SMOOTH",
"1049 2481 OFFCURVE",
"1081 2472 OFFCURVE",
"1116 2455 CURVE SMOOTH",
"1139 2443 OFFCURVE",
"1188 2410 OFFCURVE",
"1263 2355 CURVE SMOOTH",
"1322 2312 OFFCURVE",
"1375 2285 OFFCURVE",
"1420 2274 CURVE SMOOTH",
"1435 2270 OFFCURVE",
"1451 2268 OFFCURVE",
"1466 2268 CURVE",
"1466 2268 LINE"
);
}
);
width = 2561;
}
);
leftKerningGroup = n;
note = ntilde;
rightKerningGroup = n;
unicode = 00F1;
},
{
glyphname = o;
lastChange = "2021-08-12 00:41:17 +0000";
layers = (
{
anchors = (
{
name = bottom;
position = "{979, 0}";
},
{
name = center;
position = "{1016, 956}";
},
{
name = ogonek;
position = "{1204, 10}";
},
{
name = top;
position = "{1016, 1912}";
},
{
name = topright;
position = "{1361, 1872}";
}
);
layerId = "274E8830-0A80-4149-8BE8-CF3C4CCD3F6F";
paths = (
{
closed = 1;
nodes = (
"1127 -44 OFFCURVE",
"1263 -3 OFFCURVE",
"1352 79 CURVE SMOOTH",
"1478 189 OFFCURVE",
"1573 271 OFFCURVE",
"1638 325 CURVE",
"1784 473 OFFCURVE",
"1857 689 OFFCURVE",
"1857 973 CURVE SMOOTH",
"1857 1256 OFFCURVE",
"1788 1487 OFFCURVE",
"1650 1665 CURVE SMOOTH",
"1499 1860 OFFCURVE",
"1288 1957 OFFCURVE",
"1017 1957 CURVE SMOOTH",
"878 1957 OFFCURVE",
"769 1924 OFFCURVE",
"692 1859 CURVE SMOOTH",
"509 1705 OFFCURVE",
"407 1617 OFFCURVE",
"385 1595 CURVE SMOOTH",
"228 1435 OFFCURVE",
"150 1201 OFFCURVE",
"150 893 CURVE SMOOTH",
"150 630 OFFCURVE",
"215 412 OFFCURVE",
"345 241 CURVE SMOOTH",
"488 51 OFFCURVE",
"688 -44 OFFCURVE",
"943 -44 CURVE",
"943 -44 LINE"
);
},
{
closed = 1;
nodes = (
"853 137 OFFCURVE",
"688 238 OFFCURVE",
"567 439 CURVE SMOOTH",
"466 610 OFFCURVE",
"415 808 OFFCURVE",
"415 1033 CURVE SMOOTH",
"415 1218 OFFCURVE",
"453 1378 OFFCURVE",
"528 1513 CURVE SMOOTH",
"621 1678 OFFCURVE",
"752 1760 OFFCURVE",
"923 1760 CURVE SMOOTH",
"1040 1760 OFFCURVE",
"1156 1716 OFFCURVE",
"1269 1629 CURVE SMOOTH",
"1373 1548 OFFCURVE",
"1451 1450 OFFCURVE",
"1504 1335 CURVE SMOOTH",
"1577 1174 OFFCURVE",
"1614 1011 OFFCURVE",
"1614 845 CURVE SMOOTH",
"1614 658 OFFCURVE",
"1570 499 OFFCURVE",
"1481 366 CURVE SMOOTH",
"1380 213 OFFCURVE",
"1240 137 OFFCURVE",
"1063 137 CURVE",
"1063 137 LINE"
);
}
);
width = 2007;
}
);
leftKerningGroup = o;
note = o;
rightKerningGroup = o;
unicode = 006F;
},
{
glyphname = oslash;
lastChange = "2021-08-12 00:41:17 +0000";
layers = (
{
anchors = (
{
name = top;
position = "{934, 1912}";
}
);
layerId = "274E8830-0A80-4149-8BE8-CF3C4CCD3F6F";
paths = (
{
closed = 1;
nodes = (
"1053 -44 OFFCURVE",
"1189 -3 OFFCURVE",
"1270 79 CURVE",
"1397 194 OFFCURVE",
"1493 276 OFFCURVE",
"1556 325 CURVE",
"1702 472 OFFCURVE",
"1775 688 OFFCURVE",
"1775 973 CURVE SMOOTH",
"1775 1321 OFFCURVE",
"1672 1589 OFFCURVE",
"1465 1777 CURVE",
"1540 1905 LINE",
"1356 1905 LINE",
"1335 1869 LINE",
"1234 1925 OFFCURVE",
"1121 1953 OFFCURVE",
"997 1953 CURVE SMOOTH",
"808 1953 OFFCURVE",
"679 1922 OFFCURVE",
"610 1859 CURVE SMOOTH",
"477 1743 OFFCURVE",
"375 1655 OFFCURVE",
"303 1595 CURVE",
"146 1437 OFFCURVE",
"68 1203 OFFCURVE",
"68 893 CURVE SMOOTH",
"68 570 OFFCURVE",
"161 321 OFFCURVE",
"347 147 CURVE",
"260 -6 LINE",
"420 -5 LINE",
"459 62 LINE",
"574 -9 OFFCURVE",
"708 -44 OFFCURVE",
"861 -44 CURVE",
"861 -44 LINE"
);
},
{
closed = 1;
nodes = (
"503 419 LINE",
"391 576 OFFCURVE",
"335 777 OFFCURVE",
"335 1020 CURVE SMOOTH",
"335 1091 OFFCURVE",
"340 1162 OFFCURVE",
"351 1233 CURVE SMOOTH",
"401 1578 OFFCURVE",
"554 1750 OFFCURVE",
"811 1750 CURVE SMOOTH",
"866 1750 OFFCURVE",
"925 1741 OFFCURVE",
"988 1723 CURVE SMOOTH",
"1064 1702 OFFCURVE",
"1133 1669 OFFCURVE",
"1194 1624 CURVE",
"503 419 LINE"
);
},
{
closed = 1;
nodes = (
"968 140 OFFCURVE",
"902 151 OFFCURVE",
"833 174 CURVE SMOOTH",
"746 203 OFFCURVE",
"669 247 OFFCURVE",
"602 307 CURVE",
"1311 1515 LINE",
"1446 1354 OFFCURVE",
"1513 1140 OFFCURVE",
"1513 873 CURVE SMOOTH",
"1513 800 OFFCURVE",
"1507 726 OFFCURVE",
"1496 652 CURVE SMOOTH",
"1443 311 OFFCURVE",
"1287 140 OFFCURVE",
"1029 140 CURVE",
"1029 140 LINE"
);
}
);
width = 1867;
}
);
leftKerningGroup = o;
note = oslash;
rightKerningGroup = o;
unicode = 00F8;
},
{
glyphname = oe;
lastChange = "2021-08-12 00:41:17 +0000";
layers = (
{
layerId = "274E8830-0A80-4149-8BE8-CF3C4CCD3F6F";
paths = (
{
closed = 1;
nodes = (
"1053 -44 OFFCURVE",
"1189 -3 OFFCURVE",
"1270 79 CURVE SMOOTH",
"1298 107 OFFCURVE",
"1352 153 OFFCURVE",
"1431 216 CURVE SMOOTH",
"1502 271 OFFCURVE",
"1553 319 OFFCURVE",
"1586 358 CURVE",
"1691 119 OFFCURVE",
"1912 -1 OFFCURVE",
"2250 -1 CURVE SMOOTH",
"2665 -1 OFFCURVE",
"2927 53 OFFCURVE",
"3038 160 CURVE SMOOTH",
"3067 188 OFFCURVE",
"3083 214 OFFCURVE",
"3088 238 CURVE SMOOTH",
"3089 244 OFFCURVE",
"3090 253 OFFCURVE",
"3090 264 CURVE SMOOTH",
"3090 281 OFFCURVE",
"3088 305 OFFCURVE",
"3085 336 CURVE SMOOTH",
"3079 393 OFFCURVE",
"3076 426 OFFCURVE",
"3076 434 CURVE SMOOTH",
"3076 478 OFFCURVE",
"3080 567 OFFCURVE",
"3087 700 CURVE",
"3004 660 LINE",
"3005 647 OFFCURVE",
"3003 630 OFFCURVE",
"2999 609 CURVE SMOOTH",
"2939 284 OFFCURVE",
"2732 121 OFFCURVE",
"2375 121 CURVE SMOOTH",
"2118 121 OFFCURVE",
"1948 217 OFFCURVE",
"1864 413 CURVE SMOOTH",
"1812 534 OFFCURVE",
"1786 744 OFFCURVE",
"1786 1043 CURVE",
"1926 1056 OFFCURVE",
"2098 1063 OFFCURVE",
"2302 1063 CURVE SMOOTH",
"2330 1063 OFFCURVE",
"2428 1066 OFFCURVE",
"2595 1072 CURVE SMOOTH",
"2618 1073 OFFCURVE",
"2641 1073 OFFCURVE",
"2663 1073 CURVE SMOOTH",
"2732 1073 OFFCURVE",
"2797 1070 OFFCURVE",
"2858 1062 CURVE SMOOTH",
"2875 1060 OFFCURVE",
"2914 1103 OFFCURVE",
"2977 1191 CURVE SMOOTH",
"3050 1293 OFFCURVE",
"3086 1343 OFFCURVE",
"3086 1340 CURVE SMOOTH",
"3086 1519 OFFCURVE",
"3030 1660 OFFCURVE",
"2919 1761 CURVE SMOOTH",
"2800 1870 OFFCURVE",
"2625 1925 OFFCURVE",
"2396 1925 CURVE SMOOTH",
"2018 1925 OFFCURVE",
"1761 1807 OFFCURVE",
"1626 1572 CURVE",
"1481 1826 OFFCURVE",
"1272 1953 OFFCURVE",
"997 1953 CURVE SMOOTH",
"808 1953 OFFCURVE",
"679 1922 OFFCURVE",
"610 1859 CURVE SMOOTH",
"477 1743 OFFCURVE",
"375 1655 OFFCURVE",
"303 1595 CURVE",
"146 1437 OFFCURVE",
"68 1203 OFFCURVE",
"68 893 CURVE SMOOTH",
"68 638 OFFCURVE",
"130 424 OFFCURVE",
"254 253 CURVE SMOOTH",
"397 55 OFFCURVE",
"599 -44 OFFCURVE",
"861 -44 CURVE",
"861 -44 LINE"
);
},
{
closed = 1;
nodes = (
"968 140 OFFCURVE",
"902 151 OFFCURVE",
"833 174 CURVE SMOOTH",
"666 229 OFFCURVE",
"540 338 OFFCURVE",
"453 501 CURVE SMOOTH",
"374 646 OFFCURVE",
"335 819 OFFCURVE",
"335 1020 CURVE SMOOTH",
"335 1091 OFFCURVE",
"340 1162 OFFCURVE",
"351 1233 CURVE SMOOTH",
"401 1578 OFFCURVE",
"554 1750 OFFCURVE",
"811 1750 CURVE SMOOTH",
"866 1750 OFFCURVE",
"925 1741 OFFCURVE",
"988 1723 CURVE SMOOTH",
"1162 1674 OFFCURVE",
"1295 1567 OFFCURVE",
"1388 1403 CURVE SMOOTH",
"1471 1254 OFFCURVE",
"1513 1078 OFFCURVE",
"1513 873 CURVE SMOOTH",
"1513 800 OFFCURVE",
"1507 726 OFFCURVE",
"1496 652 CURVE SMOOTH",
"1443 311 OFFCURVE",
"1287 140 OFFCURVE",
"1029 140 CURVE",
"1029 140 LINE"
);
},
{
closed = 1;
nodes = (
"1954 1188 OFFCURVE",
"1853 1195 OFFCURVE",
"1794 1207 CURVE",
"1797 1267 OFFCURVE",
"1800 1306 OFFCURVE",
"1802 1323 CURVE SMOOTH",
"1846 1647 OFFCURVE",
"2028 1808 OFFCURVE",
"2348 1808 CURVE SMOOTH",
"2588 1808 OFFCURVE",
"2742 1699 OFFCURVE",
"2812 1479 CURVE SMOOTH",
"2827 1430 OFFCURVE",
"2835 1386 OFFCURVE",
"2835 1347 CURVE SMOOTH",
"2835 1272 OFFCURVE",
"2809 1230 OFFCURVE",
"2757 1222 CURVE SMOOTH",
"2656 1207 OFFCURVE",
"2497 1197 OFFCURVE",
"2278 1191 CURVE SMOOTH",
"2212 1189 OFFCURVE",
"2151 1188 OFFCURVE",
"2097 1188 CURVE",
"2097 1188 LINE"
);
}
);
width = 3197;
}
);
leftKerningGroup = o;
note = oe;
rightKerningGroup = o;
unicode = 0153;
},
{
glyphname = p;
lastChange = "2021-08-12 00:41:17 +0000";
layers = (
{
layerId = "274E8830-0A80-4149-8BE8-CF3C4CCD3F6F";
paths = (
{
closed = 1;
nodes = (
"1237 -682 LINE",
"1216 -684 OFFCURVE",
"1194 -685 OFFCURVE",
"1173 -685 CURVE SMOOTH",
"1108 -685 OFFCURVE",
"1041 -675 OFFCURVE",
"973 -655 CURVE SMOOTH",
"862 -622 OFFCURVE",
"801 -570 OFFCURVE",
"788 -500 CURVE SMOOTH",
"771 -405 OFFCURVE",
"761 -290 OFFCURVE",
"757 -154 CURVE SMOOTH",
"755 195 LINE",
"856 43 OFFCURVE",
"1027 -33 OFFCURVE",
"1270 -33 CURVE SMOOTH",
"1822 -33 OFFCURVE",
"2098 319 OFFCURVE",
"2098 1023 CURVE SMOOTH",
"2098 1302 OFFCURVE",
"2059 1507 OFFCURVE",
"1981 1640 CURVE SMOOTH",
"1885 1803 OFFCURVE",
"1720 1885 OFFCURVE",
"1486 1885 CURVE SMOOTH",
"1441 1885 OFFCURVE",
"1393 1882 OFFCURVE",
"1343 1876 CURVE SMOOTH",
"1076 1845 OFFCURVE",
"887 1746 OFFCURVE",
"778 1578 CURVE",
"787 1693 OFFCURVE",
"798 1786 OFFCURVE",
"812 1859 CURVE SMOOTH",
"813 1867 OFFCURVE",
"814 1874 OFFCURVE",
"814 1881 CURVE SMOOTH",
"814 1907 OFFCURVE",
"799 1920 OFFCURVE",
"769 1920 CURVE SMOOTH",
"756 1920 OFFCURVE",
"723 1915 OFFCURVE",
"668 1904 CURVE SMOOTH",
"613 1893 OFFCURVE",
"569 1889 OFFCURVE",
"534 1890 CURVE SMOOTH",
"333 1896 OFFCURVE",
"201 1902 OFFCURVE",
"138 1909 CURVE",
"102 1833 LINE",
"151 1844 OFFCURVE",
"196 1849 OFFCURVE",
"237 1849 CURVE SMOOTH",
"317 1849 OFFCURVE",
"381 1829 OFFCURVE",
"430 1787 CURVE",
"485 1725 OFFCURVE",
"512 1443 OFFCURVE",
"512 940 CURVE SMOOTH",
"511 355 LINE SMOOTH",
"510 -115 OFFCURVE",
"498 -400 OFFCURVE",
"474 -500 CURVE SMOOTH",
"458 -567 OFFCURVE",
"406 -618 OFFCURVE",
"319 -653 CURVE SMOOTH",
"252 -680 OFFCURVE",
"178 -693 OFFCURVE",
"98 -693 CURVE SMOOTH",
"73 -693 OFFCURVE",
"53 -691 OFFCURVE",
"37 -688 CURVE",
"-3 -766 LINE",
"354 -738 OFFCURVE",
"568 -724 OFFCURVE",
"639 -723 CURVE SMOOTH",
"666 -723 OFFCURVE",
"691 -722 OFFCURVE",
"716 -722 CURVE SMOOTH",
"929 -722 OFFCURVE",
"1090 -738 OFFCURVE",
"1197 -768 CURVE",
"1197 -768 LINE"
);
},
{
closed = 1;
nodes = (
"1038 84 OFFCURVE",
"898 184 OFFCURVE",
"817 384 CURVE SMOOTH",
"760 526 OFFCURVE",
"731 712 OFFCURVE",
"731 943 CURVE SMOOTH",
"731 1162 OFFCURVE",
"764 1331 OFFCURVE",
"830 1448 CURVE SMOOTH",
"939 1640 OFFCURVE",
"1099 1736 OFFCURVE",
"1310 1736 CURVE SMOOTH",
"1510 1736 OFFCURVE",
"1650 1636 OFFCURVE",
"1731 1436 CURVE SMOOTH",
"1788 1294 OFFCURVE",
"1817 1108 OFFCURVE",
"1817 877 CURVE SMOOTH",
"1817 658 OFFCURVE",
"1784 489 OFFCURVE",
"1718 372 CURVE SMOOTH",
"1609 180 OFFCURVE",
"1449 84 OFFCURVE",
"1238 84 CURVE",
"1238 84 LINE"
);
}
);
width = 2268;
}
);
leftKerningGroup = n;
leftMetricsKey = "=n-15";
note = p;
rightKerningGroup = b;
rightMetricsKey = b;
unicode = 0070;
},
{
glyphname = thorn;
lastChange = "2021-08-12 00:41:17 +0000";
layers = (
{
layerId = "274E8830-0A80-4149-8BE8-CF3C4CCD3F6F";
paths = (
{
closed = 1;
nodes = (
"56 -757 LINE",
"431 -730 OFFCURVE",
"642 -715 OFFCURVE",
"689 -714 CURVE",
"975 -723 OFFCURVE",
"1154 -737 OFFCURVE",
"1226 -757 CURVE",
"1270 -691 LINE",
"1251 -693 OFFCURVE",
"1233 -694 OFFCURVE",
"1214 -694 CURVE SMOOTH",
"1149 -694 OFFCURVE",
"1082 -682 OFFCURVE",
"1013 -659 CURVE SMOOTH",
"907 -623 OFFCURVE",
"848 -570 OFFCURVE",
"835 -499 CURVE SMOOTH",
"822 -428 OFFCURVE",
"813 -290 OFFCURVE",
"807 -85 CURVE SMOOTH",
"804 0 OFFCURVE",
"803 94 OFFCURVE",
"802 195 CURVE",
"903 43 OFFCURVE",
"1074 -33 OFFCURVE",
"1317 -33 CURVE SMOOTH",
"1869 -33 OFFCURVE",
"2145 319 OFFCURVE",
"2145 1023 CURVE SMOOTH",
"2145 1302 OFFCURVE",
"2106 1507 OFFCURVE",
"2028 1640 CURVE SMOOTH",
"1932 1803 OFFCURVE",
"1767 1885 OFFCURVE",
"1533 1885 CURVE SMOOTH",
"1488 1885 OFFCURVE",
"1440 1882 OFFCURVE",
"1390 1876 CURVE SMOOTH",
"1123 1845 OFFCURVE",
"934 1746 OFFCURVE",
"825 1578 CURVE",
"828 1783 OFFCURVE",
"829 1975 OFFCURVE",
"830 2155 CURVE SMOOTH",
"833 2348 OFFCURVE",
"836 2466 OFFCURVE",
"841 2507 CURVE SMOOTH",
"846 2548 OFFCURVE",
"852 2585 OFFCURVE",
"859 2618 CURVE SMOOTH",
"860 2626 OFFCURVE",
"861 2633 OFFCURVE",
"861 2640 CURVE SMOOTH",
"861 2666 OFFCURVE",
"846 2679 OFFCURVE",
"816 2679 CURVE SMOOTH",
"803 2679 OFFCURVE",
"770 2674 OFFCURVE",
"715 2663 CURVE SMOOTH",
"660 2652 OFFCURVE",
"616 2648 OFFCURVE",
"581 2649 CURVE SMOOTH",
"380 2655 OFFCURVE",
"248 2662 OFFCURVE",
"185 2669 CURVE",
"149 2592 LINE",
"198 2603 OFFCURVE",
"243 2608 OFFCURVE",
"284 2608 CURVE SMOOTH",
"364 2608 OFFCURVE",
"428 2588 OFFCURVE",
"477 2546 CURVE",
"504 2206 OFFCURVE",
"522 1875 OFFCURVE",
"533 1553 CURVE",
"550 1394 OFFCURVE",
"559 1190 OFFCURVE",
"559 940 CURVE SMOOTH",
"558 355 LINE SMOOTH",
"557 -115 OFFCURVE",
"545 -400 OFFCURVE",
"521 -500 CURVE SMOOTH",
"505 -567 OFFCURVE",
"453 -618 OFFCURVE",
"366 -653 CURVE SMOOTH",
"299 -680 OFFCURVE",
"225 -693 OFFCURVE",
"145 -693 CURVE SMOOTH",
"120 -693 OFFCURVE",
"100 -691 OFFCURVE",
"84 -688 CURVE",
"56 -757 LINE"
);
},
{
closed = 1;
nodes = (
"1085 84 OFFCURVE",
"945 184 OFFCURVE",
"864 384 CURVE SMOOTH",
"807 526 OFFCURVE",
"778 712 OFFCURVE",
"778 943 CURVE SMOOTH",
"778 1162 OFFCURVE",
"811 1331 OFFCURVE",
"877 1448 CURVE SMOOTH",
"986 1640 OFFCURVE",
"1146 1736 OFFCURVE",
"1357 1736 CURVE SMOOTH",
"1557 1736 OFFCURVE",
"1697 1636 OFFCURVE",
"1778 1436 CURVE SMOOTH",
"1835 1294 OFFCURVE",
"1864 1108 OFFCURVE",
"1864 877 CURVE SMOOTH",
"1864 658 OFFCURVE",
"1831 489 OFFCURVE",
"1765 372 CURVE SMOOTH",
"1656 180 OFFCURVE",
"1496 84 OFFCURVE",
"1285 84 CURVE",
"1285 84 LINE"
);
}
);
width = 2513;
}
);
leftKerningGroup = n;
note = thorn;
rightKerningGroup = b;
unicode = 00FE;
},
{
glyphname = q;
lastChange = "2021-08-12 00:41:17 +0000";
layers = (
{
layerId = "274E8830-0A80-4149-8BE8-CF3C4CCD3F6F";
paths = (
{
closed = 1;
nodes = (
"1004 -767 LINE",
"1353 -740 OFFCURVE",
"1566 -725 OFFCURVE",
"1643 -724 CURVE SMOOTH",
"1675 -723 OFFCURVE",
"1706 -723 OFFCURVE",
"1735 -723 CURVE SMOOTH",
"1942 -723 OFFCURVE",
"2098 -738 OFFCURVE",
"2202 -767 CURVE",
"2245 -682 LINE",
"2224 -684 OFFCURVE",
"2202 -685 OFFCURVE",
"2181 -685 CURVE SMOOTH",
"2116 -685 OFFCURVE",
"2050 -675 OFFCURVE",
"1983 -655 CURVE SMOOTH",
"1872 -622 OFFCURVE",
"1811 -570 OFFCURVE",
"1798 -500 CURVE SMOOTH",
"1776 -374 OFFCURVE",
"1765 -89 OFFCURVE",
"1765 355 CURVE SMOOTH",
"1763 940 LINE SMOOTH",
"1763 1443 OFFCURVE",
"1790 1725 OFFCURVE",
"1845 1787 CURVE",
"1890 1825 OFFCURVE",
"1951 1844 OFFCURVE",
"2029 1844 CURVE SMOOTH",
"2071 1844 OFFCURVE",
"2118 1839 OFFCURVE",
"2170 1827 CURVE",
"2209 1905 LINE",
"2108 1902 OFFCURVE",
"2018 1900 OFFCURVE",
"1940 1900 CURVE SMOOTH",
"1894 1900 OFFCURVE",
"1851 1901 OFFCURVE",
"1813 1902 CURVE SMOOTH",
"1782 1901 OFFCURVE",
"1735 1905 OFFCURVE",
"1673 1912 CURVE SMOOTH",
"1608 1921 OFFCURVE",
"1565 1925 OFFCURVE",
"1544 1925 CURVE SMOOTH",
"1489 1925 OFFCURVE",
"1462 1908 OFFCURVE",
"1462 1875 CURVE SMOOTH",
"1462 1870 OFFCURVE",
"1463 1864 OFFCURVE",
"1464 1859 CURVE SMOOTH",
"1471 1824 OFFCURVE",
"1477 1784 OFFCURVE",
"1482 1739 CURVE",
"1351 1854 OFFCURVE",
"1186 1912 OFFCURVE",
"987 1912 CURVE SMOOTH",
"669 1912 OFFCURVE",
"445 1808 OFFCURVE",
"315 1600 CURVE SMOOTH",
"212 1436 OFFCURVE",
"160 1188 OFFCURVE",
"160 856 CURVE SMOOTH",
"160 593 OFFCURVE",
"212 387 OFFCURVE",
"315 238 CURVE SMOOTH",
"426 77 OFFCURVE",
"590 -3 OFFCURVE",
"807 -3 CURVE SMOOTH",
"842 -3 OFFCURVE",
"878 -1 OFFCURVE",
"915 3 CURVE SMOOTH",
"1198 36 OFFCURVE",
"1392 146 OFFCURVE",
"1499 333 CURVE",
"1521 389 LINE",
"1521 355 LINE SMOOTH",
"1521 -115 OFFCURVE",
"1509 -400 OFFCURVE",
"1485 -500 CURVE SMOOTH",
"1468 -567 OFFCURVE",
"1416 -618 OFFCURVE",
"1328 -653 CURVE SMOOTH",
"1259 -680 OFFCURVE",
"1185 -693 OFFCURVE",
"1104 -693 CURVE SMOOTH",
"1079 -693 OFFCURVE",
"1059 -691 OFFCURVE",
"1042 -688 CURVE",
"1004 -767 LINE"
);
},
{
closed = 1;
nodes = (
"742 130 OFFCURVE",
"602 230 OFFCURVE",
"521 431 CURVE SMOOTH",
"464 572 OFFCURVE",
"435 759 OFFCURVE",
"435 990 CURVE SMOOTH",
"435 1209 OFFCURVE",
"468 1377 OFFCURVE",
"534 1494 CURVE SMOOTH",
"643 1687 OFFCURVE",
"803 1783 OFFCURVE",
"1014 1783 CURVE SMOOTH",
"1214 1783 OFFCURVE",
"1354 1683 OFFCURVE",
"1435 1482 CURVE SMOOTH",
"1490 1348 OFFCURVE",
"1518 1187 OFFCURVE",
"1520 998 CURVE SMOOTH",
"1521 893 LINE SMOOTH",
"1523 698 OFFCURVE",
"1490 540 OFFCURVE",
"1422 419 CURVE SMOOTH",
"1313 226 OFFCURVE",
"1153 130 OFFCURVE",
"942 130 CURVE",
"942 130 LINE"
);
}
);
width = 2245;
}
);
leftKerningGroup = c;
leftMetricsKey = d;
note = q;
rightKerningGroup = n;
rightMetricsKey = n;
unicode = 0071;
},
{
glyphname = r;
lastChange = "2021-08-12 00:41:17 +0000";
layers = (
{
anchors = (
{
name = bottom;
position = "{621, 12}";
},
{
name = top;
position = "{887, 1934}";
}
);
layerId = "274E8830-0A80-4149-8BE8-CF3C4CCD3F6F";
paths = (
{
closed = 1;
nodes = (
"18 -12 LINE",
"157 3 OFFCURVE",
"358 11 OFFCURVE",
"621 12 CURVE SMOOTH",
"677 12 LINE SMOOTH",
"916 12 OFFCURVE",
"1100 6 OFFCURVE",
"1225 -8 CURVE",
"1269 77 LINE",
"1240 71 OFFCURVE",
"1201 68 OFFCURVE",
"1153 68 CURVE SMOOTH",
"930 68 OFFCURVE",
"805 123 OFFCURVE",
"779 232 CURVE",
"760 400 OFFCURVE",
"750 533 OFFCURVE",
"748 632 CURVE SMOOTH",
"740 902 OFFCURVE",
"736 1066 OFFCURVE",
"736 1125 CURVE SMOOTH",
"736 1204 LINE SMOOTH",
"736 1258 OFFCURVE",
"736 1289 OFFCURVE",
"737 1297 CURVE",
"738 1291 OFFCURVE",
"739 1305 OFFCURVE",
"739 1340 CURVE SMOOTH",
"739 1423 OFFCURVE",
"797 1512 OFFCURVE",
"914 1609 CURVE SMOOTH",
"1017 1695 OFFCURVE",
"1103 1743 OFFCURVE",
"1170 1753 CURVE SMOOTH",
"1195 1756 OFFCURVE",
"1217 1758 OFFCURVE",
"1238 1758 CURVE SMOOTH",
"1389 1758 OFFCURVE",
"1483 1653 OFFCURVE",
"1518 1442 CURVE SMOOTH",
"1530 1372 OFFCURVE",
"1542 1337 OFFCURVE",
"1553 1337 CURVE SMOOTH",
"1556 1337 OFFCURVE",
"1559 1338 OFFCURVE",
"1562 1340 CURVE SMOOTH",
"1692 1427 OFFCURVE",
"1757 1503 OFFCURVE",
"1757 1569 CURVE SMOOTH",
"1759 1760 OFFCURVE",
"1662 1874 OFFCURVE",
"1465 1911 CURVE SMOOTH",
"1427 1918 OFFCURVE",
"1389 1921 OFFCURVE",
"1352 1921 CURVE SMOOTH",
"1209 1921 OFFCURVE",
"1080 1873 OFFCURVE",
"967 1778 CURVE SMOOTH",
"835 1666 OFFCURVE",
"759 1597 OFFCURVE",
"738 1572 CURVE",
"751 1685 OFFCURVE",
"761 1777 OFFCURVE",
"768 1847 CURVE",
"770 1857 OFFCURVE",
"771 1866 OFFCURVE",
"771 1873 CURVE SMOOTH",
"771 1902 OFFCURVE",
"754 1917 OFFCURVE",
"720 1917 CURVE SMOOTH",
"709 1917 OFFCURVE",
"679 1914 OFFCURVE",
"632 1907 CURVE SMOOTH",
"587 1901 OFFCURVE",
"549 1898 OFFCURVE",
"518 1899 CURVE SMOOTH",
"249 1907 OFFCURVE",
"93 1914 OFFCURVE",
"48 1919 CURVE",
"12 1842 LINE",
"46 1850 OFFCURVE",
"87 1854 OFFCURVE",
"134 1854 CURVE SMOOTH",
"160 1854 OFFCURVE",
"189 1852 OFFCURVE",
"219 1850 CURVE SMOOTH",
"315 1843 OFFCURVE",
"380 1825 OFFCURVE",
"414 1796 CURVE",
"466 1738 OFFCURVE",
"495 1551 OFFCURVE",
"495 1238 CURVE SMOOTH",
"495 1192 LINE",
"490 616 LINE SMOOTH",
"488 438 OFFCURVE",
"474 312 OFFCURVE",
"445 237 CURVE SMOOTH",
"425 184 OFFCURVE",
"377 142 OFFCURVE",
"302 110 CURVE SMOOTH",
"238 83 OFFCURVE",
"173 70 OFFCURVE",
"107 70 CURVE SMOOTH",
"88 70 OFFCURVE",
"72 71 OFFCURVE",
"59 74 CURVE",
"18 -12 LINE"
);
}
);
width = 1822;
}
);
leftKerningGroup = n;
leftMetricsKey = n;
note = r;
rightKerningGroup = r;
unicode = 0072;
},
{
glyphname = s;
lastChange = "2021-08-12 00:41:17 +0000";
layers = (
{
anchors = (
{
name = bottom;
position = "{710, 0}";
},
{
name = top;
position = "{886, 1912}";
}
);
layerId = "274E8830-0A80-4149-8BE8-CF3C4CCD3F6F";
paths = (
{
closed = 1;
nodes = (
"805 -44 OFFCURVE",
"962 -16 OFFCURVE",
"1089 40 CURVE SMOOTH",
"1194 86 OFFCURVE",
"1279 154 OFFCURVE",
"1342 244 CURVE SMOOTH",
"1405 334 OFFCURVE",
"1437 429 OFFCURVE",
"1437 528 CURVE SMOOTH",
"1437 615 OFFCURVE",
"1412 695 OFFCURVE",
"1361 768 CURVE SMOOTH",
"1309 843 OFFCURVE",
"1204 922 OFFCURVE",
"1046 1005 CURVE SMOOTH",
"819 1124 OFFCURVE",
"694 1192 OFFCURVE",
"670 1208 CURVE SMOOTH",
"549 1291 OFFCURVE",
"488 1380 OFFCURVE",
"488 1475 CURVE SMOOTH",
"488 1575 OFFCURVE",
"534 1659 OFFCURVE",
"627 1727 CURVE SMOOTH",
"714 1790 OFFCURVE",
"812 1822 OFFCURVE",
"923 1822 CURVE SMOOTH",
"1009 1822 OFFCURVE",
"1081 1801 OFFCURVE",
"1140 1758 CURVE SMOOTH",
"1221 1699 OFFCURVE",
"1263 1619 OFFCURVE",
"1266 1517 CURVE SMOOTH",
"1267 1481 OFFCURVE",
"1268 1449 OFFCURVE",
"1268 1423 CURVE SMOOTH",
"1268 1371 OFFCURVE",
"1265 1339 OFFCURVE",
"1260 1328 CURVE",
"1348 1373 LINE",
"1343 1448 OFFCURVE",
"1340 1515 OFFCURVE",
"1340 1573 CURVE SMOOTH",
"1340 1655 OFFCURVE",
"1345 1720 OFFCURVE",
"1355 1770 CURVE SMOOTH",
"1356 1773 OFFCURVE",
"1357 1778 OFFCURVE",
"1357 1783 CURVE SMOOTH",
"1357 1816 OFFCURVE",
"1334 1842 OFFCURVE",
"1288 1863 CURVE SMOOTH",
"1207 1899 OFFCURVE",
"1091 1917 OFFCURVE",
"941 1917 CURVE SMOOTH",
"938 1917 LINE SMOOTH",
"749 1917 OFFCURVE",
"586 1865 OFFCURVE",
"450 1762 CURVE SMOOTH",
"311 1657 OFFCURVE",
"242 1528 OFFCURVE",
"242 1377 CURVE SMOOTH",
"242 1235 OFFCURVE",
"303 1121 OFFCURVE",
"425 1034 CURVE SMOOTH",
"446 1019 OFFCURVE",
"572 957 OFFCURVE",
"801 846 CURVE SMOOTH",
"957 771 OFFCURVE",
"1059 686 OFFCURVE",
"1108 589 CURVE SMOOTH",
"1132 542 OFFCURVE",
"1144 490 OFFCURVE",
"1144 433 CURVE SMOOTH",
"1144 275 OFFCURVE",
"1073 162 OFFCURVE",
"932 93 CURVE SMOOTH",
"881 68 OFFCURVE",
"822 56 OFFCURVE",
"757 56 CURVE SMOOTH",
"652 56 OFFCURVE",
"554 84 OFFCURVE",
"463 139 CURVE SMOOTH",
"368 197 OFFCURVE",
"311 268 OFFCURVE",
"291 351 CURVE SMOOTH",
"284 376 OFFCURVE",
"281 476 OFFCURVE",
"281 652 CURVE",
"210 628 LINE",
"211 605 OFFCURVE",
"211 582 OFFCURVE",
"211 558 CURVE SMOOTH",
"211 402 OFFCURVE",
"191 243 OFFCURVE",
"151 79 CURVE SMOOTH",
"150 76 OFFCURVE",
"150 73 OFFCURVE",
"150 71 CURVE SMOOTH",
"150 57 OFFCURVE",
"161 46 OFFCURVE",
"183 38 CURVE SMOOTH",
"346 -17 OFFCURVE",
"491 -44 OFFCURVE",
"616 -44 CURVE",
"616 -44 LINE"
);
}
);
width = 1588;
}
);
leftKerningGroup = s;
note = s;
rightKerningGroup = s;
unicode = 0073;
},
{
glyphname = germandbls;
lastChange = "2021-08-12 00:41:17 +0000";
layers = (
{
layerId = "274E8830-0A80-4149-8BE8-CF3C4CCD3F6F";
paths = (
{
closed = 1;
nodes = (
"174 -986 OFFCURVE",
"182 -984 OFFCURVE",
"193 -980 CURVE SMOOTH",
"301 -936 LINE SMOOTH",
"379 -904 OFFCURVE",
"434 -876 OFFCURVE",
"474 -843 CURVE SMOOTH",
"529 -798 OFFCURVE",
"558 -731 OFFCURVE",
"559 -642 CURVE SMOOTH",
"568 942 LINE SMOOTH",
"571 1459 OFFCURVE",
"587 1886 OFFCURVE",
"610 2221 CURVE SMOOTH",
"618 2339 OFFCURVE",
"659 2431 OFFCURVE",
"734 2497 CURVE SMOOTH",
"800 2556 OFFCURVE",
"881 2586 OFFCURVE",
"976 2586 CURVE SMOOTH",
"1079 2586 OFFCURVE",
"1168 2553 OFFCURVE",
"1242 2487 CURVE SMOOTH",
"1325 2412 OFFCURVE",
"1361 2317 OFFCURVE",
"1361 2215 CURVE SMOOTH",
"1361 1983 OFFCURVE",
"1171 1719 OFFCURVE",
"921 1604 CURVE SMOOTH",
"853 1573 OFFCURVE",
"818 1497 OFFCURVE",
"818 1410 CURVE SMOOTH",
"818 1287 OFFCURVE",
"887 1142 OFFCURVE",
"1027 1069 CURVE SMOOTH",
"1049 1057 OFFCURVE",
"1229 963 OFFCURVE",
"1377 889 CURVE SMOOTH",
"1521 817 OFFCURVE",
"1658 686 OFFCURVE",
"1707 589 CURVE SMOOTH",
"1731 542 OFFCURVE",
"1743 490 OFFCURVE",
"1743 433 CURVE SMOOTH",
"1743 275 OFFCURVE",
"1672 162 OFFCURVE",
"1531 93 CURVE SMOOTH",
"1480 68 OFFCURVE",
"1421 56 OFFCURVE",
"1356 56 CURVE SMOOTH",
"1251 56 OFFCURVE",
"1153 84 OFFCURVE",
"1062 139 CURVE SMOOTH",
"967 197 OFFCURVE",
"910 268 OFFCURVE",
"890 351 CURVE SMOOTH",
"883 376 OFFCURVE",
"880 476 OFFCURVE",
"880 652 CURVE",
"809 628 LINE",
"810 605 OFFCURVE",
"810 582 OFFCURVE",
"810 558 CURVE SMOOTH",
"810 402 OFFCURVE",
"790 243 OFFCURVE",
"750 79 CURVE SMOOTH",
"749 76 OFFCURVE",
"749 73 OFFCURVE",
"749 71 CURVE SMOOTH",
"749 57 OFFCURVE",
"760 46 OFFCURVE",
"782 38 CURVE SMOOTH",
"945 -17 OFFCURVE",
"1090 -44 OFFCURVE",
"1215 -44 CURVE SMOOTH",
"1404 -44 OFFCURVE",
"1561 -16 OFFCURVE",
"1688 40 CURVE SMOOTH",
"1793 86 OFFCURVE",
"1878 154 OFFCURVE",
"1941 244 CURVE SMOOTH",
"2004 334 OFFCURVE",
"2036 429 OFFCURVE",
"2036 528 CURVE SMOOTH",
"2036 615 OFFCURVE",
"2011 695 OFFCURVE",
"1960 768 CURVE SMOOTH",
"1908 843 OFFCURVE",
"1803 922 OFFCURVE",
"1606 1041 CURVE",
"1394 1155 OFFCURVE",
"1278 1221 OFFCURVE",
"1255 1235 CURVE SMOOTH",
"1127 1318 OFFCURVE",
"1060 1406 OFFCURVE",
"1060 1492 CURVE SMOOTH",
"1060 1563 OFFCURVE",
"1106 1632 OFFCURVE",
"1203 1694 CURVE SMOOTH",
"1444 1849 OFFCURVE",
"1606 2006 OFFCURVE",
"1606 2221 CURVE SMOOTH",
"1606 2492 OFFCURVE",
"1439 2660 OFFCURVE",
"1017 2660 CURVE SMOOTH",
"963 2660 OFFCURVE",
"905 2658 OFFCURVE",
"842 2653 CURVE SMOOTH",
"582 2635 OFFCURVE",
"421 2567 OFFCURVE",
"367 2449 CURVE SMOOTH",
"334 2376 OFFCURVE",
"317 2225 OFFCURVE",
"317 1996 CURVE SMOOTH",
"317 1938 LINE",
"19 1942 LINE",
"0 1848 LINE",
"81 1857 OFFCURVE",
"130 1861 OFFCURVE",
"148 1861 CURVE SMOOTH",
"251 1861 OFFCURVE",
"309 1792 OFFCURVE",
"323 1653 CURVE",
"324 1562 OFFCURVE",
"325 1459 OFFCURVE",
"325 1343 CURVE SMOOTH",
"325 108 OFFCURVE",
"274 -850 OFFCURVE",
"174 -938 CURVE SMOOTH",
"159 -951 OFFCURVE",
"152 -962 OFFCURVE",
"152 -971 CURVE SMOOTH",
"152 -981 OFFCURVE",
"157 -986 OFFCURVE",
"167 -986 CURVE",
"167 -986 LINE"
);
}
);
width = 2144;
}
);
note = germandbls;
unicode = 00DF;
},
{
glyphname = t;
lastChange = "2021-08-12 00:41:17 +0000";
layers = (
{
anchors = (
{
name = bottom;
position = "{736, 0}";
},
{
name = center;
position = "{723, 956}";
},
{
name = top;
position = "{484, 2497}";
},
{
name = topright;
position = "{947, 2819}";
}
);
layerId = "274E8830-0A80-4149-8BE8-CF3C4CCD3F6F";
paths = (
{
closed = 1;
nodes = (
"905 -25 OFFCURVE",
"1007 -6 OFFCURVE",
"1109 33 CURVE SMOOTH",
"1228 78 OFFCURVE",
"1287 133 OFFCURVE",
"1287 199 CURVE SMOOTH",
"1287 224 OFFCURVE",
"1291 309 OFFCURVE",
"1301 452 CURVE SMOOTH",
"1312 587 OFFCURVE",
"1319 664 OFFCURVE",
"1323 684 CURVE",
"1228 642 LINE",
"1220 551 OFFCURVE",
"1212 479 OFFCURVE",
"1203 425 CURVE SMOOTH",
"1183 303 OFFCURVE",
"1137 217 OFFCURVE",
"1064 168 CURVE SMOOTH",
"1011 131 OFFCURVE",
"944 113 OFFCURVE",
"863 113 CURVE SMOOTH",
"705 113 OFFCURVE",
"612 209 OFFCURVE",
"584 401 CURVE SMOOTH",
"564 532 OFFCURVE",
"554 717 OFFCURVE",
"554 956 CURVE SMOOTH",
"554 1144 OFFCURVE",
"560 1365 OFFCURVE",
"574 1619 CURVE SMOOTH",
"581 1750 LINE",
"778 1745 OFFCURVE",
"934 1731 OFFCURVE",
"1049 1710 CURVE SMOOTH",
"1076 1705 OFFCURVE",
"1111 1721 OFFCURVE",
"1156 1757 CURVE SMOOTH",
"1197 1791 OFFCURVE",
"1218 1816 OFFCURVE",
"1218 1832 CURVE SMOOTH",
"1218 1835 OFFCURVE",
"1216 1836 OFFCURVE",
"1211 1837 CURVE",
"586 1839 LINE",
"602 2079 OFFCURVE",
"630 2290 OFFCURVE",
"671 2471 CURVE SMOOTH",
"672 2474 OFFCURVE",
"672 2478 OFFCURVE",
"672 2481 CURVE SMOOTH",
"672 2492 OFFCURVE",
"667 2497 OFFCURVE",
"656 2497 CURVE SMOOTH",
"623 2497 OFFCURVE",
"560 2461 OFFCURVE",
"467 2388 CURVE SMOOTH",
"374 2316 OFFCURVE",
"327 2270 OFFCURVE",
"327 2250 CURVE SMOOTH",
"328 1840 LINE",
"140 1840 LINE",
"72 1753 LINE",
"328 1753 LINE",
"329 1580 LINE SMOOTH",
"330 1463 OFFCURVE",
"330 1358 OFFCURVE",
"330 1267 CURVE SMOOTH",
"330 1012 OFFCURVE",
"328 858 OFFCURVE",
"327 804 CURVE SMOOTH",
"325 709 OFFCURVE",
"324 631 OFFCURVE",
"324 570 CURVE SMOOTH",
"324 509 OFFCURVE",
"325 465 OFFCURVE",
"327 437 CURVE SMOOTH",
"337 276 OFFCURVE",
"368 162 OFFCURVE",
"421 95 CURVE SMOOTH",
"484 15 OFFCURVE",
"612 -25 OFFCURVE",
"803 -25 CURVE",
"803 -25 LINE"
);
}
);
width = 1503;
}
);
leftKerningGroup = t;
note = t;
rightKerningGroup = t;
unicode = 0074;
},
{
glyphname = tbar;
lastChange = "2021-08-12 00:41:17 +0000";
layers = (
{
anchors = (
{
name = top;
position = "{499, 1403}";
}
);
components = (
{
name = t;
}
);
layerId = "274E8830-0A80-4149-8BE8-CF3C4CCD3F6F";
paths = (
{
closed = 1;
nodes = (
"829 1203 OFFCURVE",
"825 1230 OFFCURVE",
"861 1254 CURVE SMOOTH",
"886 1271 OFFCURVE",
"892 1285 OFFCURVE",
"892 1297 CURVE SMOOTH",
"892 1308 OFFCURVE",
"886 1318 OFFCURVE",
"886 1325 CURVE SMOOTH",
"886 1327 OFFCURVE",
"885 1330 OFFCURVE",
"883 1330 CURVE SMOOTH",
"874 1330 OFFCURVE",
"823 1326 OFFCURVE",
"730 1318 CURVE SMOOTH",
"658 1312 OFFCURVE",
"570 1309 OFFCURVE",
"514 1309 CURVE SMOOTH",
"384 1309 OFFCURVE",
"243 1317 OFFCURVE",
"181 1334 CURVE SMOOTH",
"170 1336 OFFCURVE",
"156 1320 OFFCURVE",
"139 1285 CURVE SMOOTH",
"122 1252 OFFCURVE",
"114 1228 OFFCURVE",
"114 1214 CURVE SMOOTH",
"114 1211 OFFCURVE",
"114 1210 OFFCURVE",
"116 1209 CURVE",
"253 1224 OFFCURVE",
"405 1230 OFFCURVE",
"497 1230 CURVE SMOOTH",
"625 1230 OFFCURVE",
"758 1221 OFFCURVE",
"819 1205 CURVE",
"819 1205 LINE"
);
}
);
width = 1407;
}
);
leftKerningGroup = t;
rightKerningGroup = t;
unicode = 0167;
},
{
glyphname = u;
lastChange = "2021-08-12 00:41:17 +0000";
layers = (
{
anchors = (
{
name = bottom;
position = "{1158, 0}";
},
{
name = ogonek;
position = "{2115, 29}";
},
{
name = top;
position = "{1158, 1912}";
},
{
name = topright;
position = "{1686, 1813}";
}
);
layerId = "274E8830-0A80-4149-8BE8-CF3C4CCD3F6F";
paths = (
{
closed = 1;
nodes = (
"1069 -53 OFFCURVE",
"1219 -5 OFFCURVE",
"1351 90 CURVE SMOOTH",
"1422 142 OFFCURVE",
"1510 197 OFFCURVE",
"1615 254 CURVE",
"1606 174 OFFCURVE",
"1597 108 OFFCURVE",
"1587 55 CURVE SMOOTH",
"1585 46 OFFCURVE",
"1584 37 OFFCURVE",
"1584 29 CURVE SMOOTH",
"1584 0 OFFCURVE",
"1601 -14 OFFCURVE",
"1635 -14 CURVE SMOOTH",
"1646 -14 OFFCURVE",
"1676 -11 OFFCURVE",
"1723 -5 CURVE SMOOTH",
"1768 2 OFFCURVE",
"1806 4 OFFCURVE",
"1837 3 CURVE SMOOTH",
"2069 -2 OFFCURVE",
"2226 -6 OFFCURVE",
"2307 -7 CURVE",
"2366 90 LINE",
"2332 82 OFFCURVE",
"2291 78 OFFCURVE",
"2244 78 CURVE SMOOTH",
"2218 78 OFFCURVE",
"2189 80 OFFCURVE",
"2159 82 CURVE SMOOTH",
"2063 89 OFFCURVE",
"1998 107 OFFCURVE",
"1964 136 CURVE",
"1929 175 OFFCURVE",
"1902 282 OFFCURVE",
"1881 456 CURVE SMOOTH",
"1866 587 OFFCURVE",
"1859 702 OFFCURVE",
"1859 801 CURVE SMOOTH",
"1861 1278 OFFCURVE",
"1873 1563 OFFCURVE",
"1896 1656 CURVE SMOOTH",
"1925 1777 OFFCURVE",
"2004 1838 OFFCURVE",
"2132 1838 CURVE SMOOTH",
"2153 1838 OFFCURVE",
"2173 1836 OFFCURVE",
"2192 1832 CURVE",
"2220 1901 LINE",
"1953 1881 OFFCURVE",
"1789 1870 OFFCURVE",
"1728 1869 CURVE",
"1495 1876 OFFCURVE",
"1359 1885 OFFCURVE",
"1319 1896 CURVE",
"1276 1830 LINE",
"1459 1830 OFFCURVE",
"1561 1772 OFFCURVE",
"1582 1656 CURVE SMOOTH",
"1605 1529 OFFCURVE",
"1616 1245 OFFCURVE",
"1616 804 CURVE SMOOTH",
"1616 404 LINE",
"1569 333 OFFCURVE",
"1489 268 OFFCURVE",
"1374 207 CURVE SMOOTH",
"1275 155 OFFCURVE",
"1188 124 OFFCURVE",
"1114 115 CURVE SMOOTH",
"1085 112 OFFCURVE",
"1059 110 OFFCURVE",
"1035 110 CURVE SMOOTH",
"798 110 OFFCURVE",
"687 310 OFFCURVE",
"686 709 CURVE SMOOTH",
"685 1286 LINE",
"685 1329 LINE SMOOTH",
"685 1491 OFFCURVE",
"698 1606 OFFCURVE",
"724 1675 CURVE SMOOTH",
"740 1718 OFFCURVE",
"772 1754 OFFCURVE",
"819 1784 CURVE SMOOTH",
"866 1815 OFFCURVE",
"913 1830 OFFCURVE",
"958 1830 CURVE SMOOTH",
"969 1830 OFFCURVE",
"978 1829 OFFCURVE",
"987 1828 CURVE",
"1025 1904 LINE",
"880 1888 OFFCURVE",
"730 1881 OFFCURVE",
"577 1881 CURVE SMOOTH",
"404 1881 OFFCURVE",
"227 1890 OFFCURVE",
"44 1910 CURVE",
"0 1826 LINE",
"35 1833 OFFCURVE",
"72 1836 OFFCURVE",
"111 1836 CURVE SMOOTH",
"266 1836 OFFCURVE",
"355 1784 OFFCURVE",
"380 1681 CURVE",
"400 1512 OFFCURVE",
"411 1379 OFFCURVE",
"414 1280 CURVE SMOOTH",
"420 1151 OFFCURVE",
"423 991 OFFCURVE",
"423 801 CURVE SMOOTH",
"426 604 LINE SMOOTH",
"428 485 OFFCURVE",
"428 382 OFFCURVE",
"428 297 CURVE SMOOTH",
"428 107 OFFCURVE",
"542 -6 OFFCURVE",
"770 -43 CURVE SMOOTH",
"814 -50 OFFCURVE",
"858 -53 OFFCURVE",
"902 -53 CURVE",
"902 -53 LINE"
);
}
);
width = 2376;
}
);
leftKerningGroup = u;
note = u;
rightKerningGroup = u;
unicode = 0075;
},
{
glyphname = v;
lastChange = "2021-08-12 00:41:17 +0000";
layers = (
{
layerId = "274E8830-0A80-4149-8BE8-CF3C4CCD3F6F";
paths = (
{
closed = 1;
nodes = (
"998 -48 LINE",
"1053 224 OFFCURVE",
"1157 555 OFFCURVE",
"1310 945 CURVE SMOOTH",
"1493 1412 OFFCURVE",
"1650 1684 OFFCURVE",
"1781 1762 CURVE SMOOTH",
"1866 1813 OFFCURVE",
"1951 1838 OFFCURVE",
"2036 1838 CURVE",
"2078 1910 LINE",
"1929 1896 OFFCURVE",
"1817 1889 OFFCURVE",
"1740 1889 CURVE SMOOTH",
"1687 1887 OFFCURVE",
"1634 1886 OFFCURVE",
"1581 1886 CURVE SMOOTH",
"1517 1886 OFFCURVE",
"1453 1887 OFFCURVE",
"1390 1890 CURVE SMOOTH",
"1237 1897 OFFCURVE",
"1144 1903 OFFCURVE",
"1111 1909 CURVE",
"1054 1825 LINE",
"1084 1830 OFFCURVE",
"1117 1833 OFFCURVE",
"1153 1833 CURVE SMOOTH",
"1316 1833 OFFCURVE",
"1397 1786 OFFCURVE",
"1397 1691 CURVE SMOOTH",
"1397 1585 OFFCURVE",
"1349 1385 OFFCURVE",
"1253 1092 CURVE SMOOTH",
"1165 824 OFFCURVE",
"1084 615 OFFCURVE",
"1010 464 CURVE SMOOTH",
"998 440 OFFCURVE",
"987 428 OFFCURVE",
"978 428 CURVE SMOOTH",
"969 428 OFFCURVE",
"958 443 OFFCURVE",
"945 472 CURVE SMOOTH",
"671 1127 OFFCURVE",
"534 1535 OFFCURVE",
"534 1694 CURVE SMOOTH",
"534 1741 OFFCURVE",
"568 1777 OFFCURVE",
"637 1802 CURVE SMOOTH",
"687 1819 OFFCURVE",
"741 1828 OFFCURVE",
"799 1828 CURVE SMOOTH",
"814 1828 OFFCURVE",
"827 1827 OFFCURVE",
"838 1826 CURVE",
"892 1912 LINE",
"679 1888 OFFCURVE",
"494 1876 OFFCURVE",
"338 1876 CURVE SMOOTH",
"339 1876 OFFCURVE",
"267 1880 OFFCURVE",
"122 1887 CURVE SMOOTH",
"-37 1894 OFFCURVE",
"-139 1901 OFFCURVE",
"-184 1906 CURVE",
"-220 1829 LINE",
"-197 1834 OFFCURVE",
"-167 1836 OFFCURVE",
"-132 1836 CURVE SMOOTH",
"-19 1836 OFFCURVE",
"63 1815 OFFCURVE",
"114 1773 CURVE SMOOTH",
"203 1700 OFFCURVE",
"374 1284 OFFCURVE",
"628 526 CURVE SMOOTH",
"666 408 OFFCURVE",
"694 319 OFFCURVE",
"712 260 CURVE SMOOTH",
"728 217 OFFCURVE",
"768 161 OFFCURVE",
"832 91 CURVE SMOOTH",
"903 14 OFFCURVE",
"946 -39 OFFCURVE",
"961 -68 CURVE",
"961 -68 LINE"
);
}
);
width = 1988;
}
);
leftKerningGroup = v;
note = v;
rightKerningGroup = v;
unicode = 0076;
},
{
glyphname = w;
lastChange = "2021-08-12 00:41:17 +0000";
layers = (
{
anchors = (
{
name = bottom;
position = "{1538, 0}";
},
{
name = top;
position = "{1538, 1912}";
}
);
layerId = "274E8830-0A80-4149-8BE8-CF3C4CCD3F6F";
paths = (
{
closed = 1;
nodes = (
"998 -48 LINE",
"1031 110 OFFCURVE",
"1094 326 OFFCURVE",
"1188 601 CURVE SMOOTH",
"1295 909 OFFCURVE",
"1401 1171 OFFCURVE",
"1508 1386 CURVE",
"1595 1172 OFFCURVE",
"1699 885 OFFCURVE",
"1820 526 CURVE SMOOTH",
"1858 408 OFFCURVE",
"1886 319 OFFCURVE",
"1904 260 CURVE SMOOTH",
"1919 217 OFFCURVE",
"1959 161 OFFCURVE",
"2023 91 CURVE SMOOTH",
"2094 14 OFFCURVE",
"2138 -39 OFFCURVE",
"2153 -68 CURVE",
"2190 -48 LINE",
"2245 224 OFFCURVE",
"2349 555 OFFCURVE",
"2502 945 CURVE SMOOTH",
"2685 1412 OFFCURVE",
"2842 1684 OFFCURVE",
"2973 1762 CURVE SMOOTH",
"3057 1813 OFFCURVE",
"3142 1838 OFFCURVE",
"3228 1838 CURVE",
"3270 1910 LINE",
"3121 1896 OFFCURVE",
"3008 1889 OFFCURVE",
"2931 1889 CURVE SMOOTH",
"2878 1887 OFFCURVE",
"2826 1886 OFFCURVE",
"2773 1886 CURVE SMOOTH",
"2709 1886 OFFCURVE",
"2645 1887 OFFCURVE",
"2582 1890 CURVE SMOOTH",
"2429 1897 OFFCURVE",
"2336 1903 OFFCURVE",
"2302 1909 CURVE",
"2246 1825 LINE",
"2276 1830 OFFCURVE",
"2309 1833 OFFCURVE",
"2344 1833 CURVE SMOOTH",
"2507 1833 OFFCURVE",
"2588 1786 OFFCURVE",
"2588 1691 CURVE SMOOTH",
"2588 1585 OFFCURVE",
"2540 1385 OFFCURVE",
"2444 1092 CURVE SMOOTH",
"2356 824 OFFCURVE",
"2275 615 OFFCURVE",
"2202 464 CURVE SMOOTH",
"2190 440 OFFCURVE",
"2179 428 OFFCURVE",
"2170 428 CURVE SMOOTH",
"2160 428 OFFCURVE",
"2149 443 OFFCURVE",
"2137 472 CURVE SMOOTH",
"1862 1127 OFFCURVE",
"1725 1535 OFFCURVE",
"1725 1694 CURVE SMOOTH",
"1725 1741 OFFCURVE",
"1760 1777 OFFCURVE",
"1829 1802 CURVE SMOOTH",
"1879 1819 OFFCURVE",
"1933 1828 OFFCURVE",
"1990 1828 CURVE SMOOTH",
"2006 1828 OFFCURVE",
"2019 1827 OFFCURVE",
"2030 1826 CURVE",
"2083 1912 LINE",
"1870 1888 OFFCURVE",
"1686 1876 OFFCURVE",
"1529 1876 CURVE SMOOTH",
"1531 1876 OFFCURVE",
"1459 1880 OFFCURVE",
"1314 1887 CURVE SMOOTH",
"1205 1895 OFFCURVE",
"1131 1901 OFFCURVE",
"1091 1906 CURVE",
"1055 1829 LINE",
"1078 1834 OFFCURVE",
"1100 1836 OFFCURVE",
"1122 1836 CURVE SMOOTH",
"1190 1836 OFFCURVE",
"1250 1815 OFFCURVE",
"1302 1773 CURVE SMOOTH",
"1348 1736 OFFCURVE",
"1379 1692 OFFCURVE",
"1394 1640 CURVE",
"1380 1513 OFFCURVE",
"1328 1315 OFFCURVE",
"1237 1044 CURVE SMOOTH",
"1153 795 OFFCURVE",
"1077 602 OFFCURVE",
"1010 464 CURVE SMOOTH",
"998 440 OFFCURVE",
"987 428 OFFCURVE",
"978 428 CURVE SMOOTH",
"969 428 OFFCURVE",
"958 443 OFFCURVE",
"945 472 CURVE SMOOTH",
"671 1127 OFFCURVE",
"534 1535 OFFCURVE",
"534 1694 CURVE SMOOTH",
"534 1741 OFFCURVE",
"568 1777 OFFCURVE",
"637 1802 CURVE SMOOTH",
"687 1819 OFFCURVE",
"741 1828 OFFCURVE",
"799 1828 CURVE SMOOTH",
"814 1828 OFFCURVE",
"827 1827 OFFCURVE",
"838 1826 CURVE",
"892 1912 LINE",
"679 1888 OFFCURVE",
"494 1876 OFFCURVE",
"338 1876 CURVE SMOOTH",
"339 1876 OFFCURVE",
"267 1880 OFFCURVE",
"122 1887 CURVE SMOOTH",
"-37 1894 OFFCURVE",
"-139 1901 OFFCURVE",
"-184 1906 CURVE",
"-220 1829 LINE",
"-197 1834 OFFCURVE",
"-167 1836 OFFCURVE",
"-132 1836 CURVE SMOOTH",
"-19 1836 OFFCURVE",
"63 1815 OFFCURVE",
"114 1773 CURVE SMOOTH",
"203 1700 OFFCURVE",
"374 1284 OFFCURVE",
"628 526 CURVE SMOOTH",
"666 408 OFFCURVE",
"694 319 OFFCURVE",
"712 260 CURVE SMOOTH",
"728 217 OFFCURVE",
"768 161 OFFCURVE",
"832 91 CURVE SMOOTH",
"903 14 OFFCURVE",
"946 -39 OFFCURVE",
"961 -68 CURVE",
"961 -68 LINE"
);
}
);
width = 3180;
}
);
leftKerningGroup = v;
leftMetricsKey = v;
note = w;
rightKerningGroup = v;
rightMetricsKey = v;
unicode = 0077;
},
{
glyphname = x;
lastChange = "2021-08-12 00:41:17 +0000";
layers = (
{
layerId = "274E8830-0A80-4149-8BE8-CF3C4CCD3F6F";
paths = (
{
closed = 1;
nodes = (
"1031 -18 LINE",
"1183 2 OFFCURVE",
"1346 13 OFFCURVE",
"1519 13 CURVE SMOOTH",
"1594 13 OFFCURVE",
"1670 11 OFFCURVE",
"1748 7 CURVE SMOOTH",
"1910 -1 OFFCURVE",
"2012 -7 OFFCURVE",
"2055 -12 CURVE",
"2101 80 LINE",
"2077 75 OFFCURVE",
"2047 73 OFFCURVE",
"2012 73 CURVE SMOOTH",
"1851 73 OFFCURVE",
"1730 113 OFFCURVE",
"1651 192 CURVE SMOOTH",
"1557 285 OFFCURVE",
"1373 560 OFFCURVE",
"1099 1017 CURVE",
"1167 1123 OFFCURVE",
"1229 1216 OFFCURVE",
"1285 1296 CURVE SMOOTH",
"1353 1393 OFFCURVE",
"1421 1491 OFFCURVE",
"1490 1588 CURVE SMOOTH",
"1553 1672 OFFCURVE",
"1609 1727 OFFCURVE",
"1659 1752 CURVE SMOOTH",
"1769 1809 OFFCURVE",
"1872 1837 OFFCURVE",
"1967 1838 CURVE",
"1997 1910 LINE",
"1851 1896 OFFCURVE",
"1739 1889 OFFCURVE",
"1662 1889 CURVE SMOOTH",
"1614 1887 OFFCURVE",
"1567 1886 OFFCURVE",
"1521 1886 CURVE SMOOTH",
"1470 1886 OFFCURVE",
"1420 1887 OFFCURVE",
"1372 1890 CURVE SMOOTH",
"1281 1898 OFFCURVE",
"1218 1904 OFFCURVE",
"1181 1909 CURVE",
"1143 1825 LINE",
"1152 1828 OFFCURVE",
"1163 1829 OFFCURVE",
"1176 1829 CURVE SMOOTH",
"1203 1829 OFFCURVE",
"1238 1823 OFFCURVE",
"1280 1810 CURVE SMOOTH",
"1342 1791 OFFCURVE",
"1373 1769 OFFCURVE",
"1373 1742 CURVE SMOOTH",
"1373 1731 OFFCURVE",
"1370 1717 OFFCURVE",
"1363 1700 CURVE SMOOTH",
"1319 1591 OFFCURVE",
"1212 1395 OFFCURVE",
"1043 1112 CURVE",
"906 1345 OFFCURVE",
"817 1509 OFFCURVE",
"776 1604 CURVE SMOOTH",
"750 1663 OFFCURVE",
"737 1707 OFFCURVE",
"737 1736 CURVE SMOOTH",
"737 1774 OFFCURVE",
"774 1802 OFFCURVE",
"847 1820 CURVE",
"896 1825 OFFCURVE",
"935 1827 OFFCURVE",
"964 1827 CURVE",
"1013 1911 LINE",
"859 1894 OFFCURVE",
"732 1886 OFFCURVE",
"633 1886 CURVE SMOOTH",
"301 1886 LINE",
"144 1893 OFFCURVE",
"43 1900 OFFCURVE",
"-2 1905 CURVE",
"-50 1828 LINE",
"-26 1833 OFFCURVE",
"4 1835 OFFCURVE",
"39 1835 CURVE SMOOTH",
"183 1835 OFFCURVE",
"282 1810 OFFCURVE",
"335 1760 CURVE SMOOTH",
"480 1623 OFFCURVE",
"676 1341 OFFCURVE",
"923 915 CURVE",
"846 792 OFFCURVE",
"777 687 OFFCURVE",
"717 602 CURVE SMOOTH",
"508 303 LINE SMOOTH",
"442 214 OFFCURVE",
"384 157 OFFCURVE",
"335 132 CURVE SMOOTH",
"255 91 OFFCURVE",
"158 70 OFFCURVE",
"45 69 CURVE",
"4 -13 LINE",
"151 2 OFFCURVE",
"262 9 OFFCURVE",
"339 9 CURVE SMOOTH",
"384 11 OFFCURVE",
"428 11 OFFCURVE",
"471 11 CURVE SMOOTH",
"530 11 OFFCURVE",
"586 10 OFFCURVE",
"640 7 CURVE SMOOTH",
"771 0 OFFCURVE",
"851 -6 OFFCURVE",
"880 -12 CURVE",
"926 82 LINE",
"901 77 OFFCURVE",
"874 74 OFFCURVE",
"844 74 CURVE SMOOTH",
"713 74 OFFCURVE",
"648 111 OFFCURVE",
"648 184 CURVE SMOOTH",
"648 195 OFFCURVE",
"650 206 OFFCURVE",
"654 217 CURVE SMOOTH",
"689 324 OFFCURVE",
"797 525 OFFCURVE",
"977 821 CURVE",
"1263 316 LINE SMOOTH",
"1290 269 OFFCURVE",
"1304 227 OFFCURVE",
"1304 192 CURVE SMOOTH",
"1304 115 OFFCURVE",
"1239 76 OFFCURVE",
"1108 76 CURVE SMOOTH",
"1095 76 OFFCURVE",
"1085 77 OFFCURVE",
"1076 78 CURVE",
"1031 -18 LINE"
);
}
);
width = 2049;
}
);
leftKerningGroup = x;
note = x;
rightKerningGroup = x;
unicode = 0078;
},
